<svg width="982" height="769" viewBox="0 0 982 769" fill="none" xmlns="http://www.w3.org/2000/svg">
<g clip-path="url(#clip0_3_11)">
<path d="M746.449 634.081L745.922 633.29L976.63 500.259C979.267 498.678 980.849 496.834 980.849 494.463C980.849 492.356 979.267 490.249 976.63 488.668L936.025 465.223L936.553 464.433L977.157 487.878C980.058 489.458 981.64 491.829 981.64 494.2C981.64 496.571 980.058 498.942 977.157 500.522L746.449 634.081Z" fill="#42E8E0"/>
<path d="M445.342 666.746C443.232 666.746 441.123 666.219 439.541 665.165L170.865 510.006C169.283 508.952 168.228 507.635 168.228 506.318C168.228 505.264 169.019 504.21 170.074 503.42L330.383 410.957C333.02 409.376 337.766 409.639 340.666 411.483L609.342 566.643C610.924 567.697 611.979 569.014 611.979 570.331C611.979 571.385 611.188 572.438 610.133 573.229L449.824 665.692C448.769 666.482 446.924 666.746 445.342 666.746ZM171.128 509.479L439.805 664.638C442.705 666.219 446.924 666.482 449.297 665.165L609.606 572.702C610.661 572.175 611.188 571.385 611.188 570.594C611.188 569.541 610.397 568.487 609.079 567.697L340.402 412.537C337.502 410.957 333.283 410.693 330.91 412.01L170.337 504.737C169.283 505.264 168.755 506.054 168.755 506.845C169.019 507.635 169.81 508.689 171.128 509.479Z" fill="#42E8E0"/>
<path d="M611.715 543.461L596.95 541.354L340.402 393.307C337.502 391.726 333.02 391.463 330.383 392.78L177.72 480.765L168.228 479.448V491.829C168.228 492.883 169.019 494.2 170.601 494.99L439.277 650.15C442.178 651.73 446.66 651.994 449.297 650.677L609.606 558.213C610.661 557.423 611.188 556.633 611.188 555.579V543.461H611.715Z" fill="url(#paint0_linear_3_11)"/>
<path d="M170.865 483.136L439.541 638.295C442.441 639.876 446.924 640.139 449.56 638.822L609.87 546.359C612.506 544.778 611.979 542.407 609.079 540.563L340.402 385.404C337.502 383.823 333.02 383.56 330.383 384.877L170.074 477.341C167.701 478.921 167.964 481.555 170.865 483.136Z" fill="url(#paint1_linear_3_11)"/>
<path opacity="0.3" d="M194.067 486.297L434.268 624.861C436.904 626.441 440.859 626.441 443.232 625.124L586.667 542.407C589.04 541.09 588.776 538.719 586.14 537.402L345.939 398.839C343.303 397.258 339.348 397.258 336.975 398.575L193.54 481.029C191.167 482.346 191.694 484.717 194.067 486.297Z" fill="#24126A"/>
<path d="M610.133 544.778L449.824 637.242C447.187 638.822 442.705 638.559 439.805 636.715L171.128 481.555C169.81 480.765 169.019 479.975 168.755 478.921C168.228 480.238 169.019 481.819 171.128 482.873L439.805 638.032C442.705 639.613 447.187 639.876 449.824 638.559L610.133 546.095C611.452 545.305 611.979 543.988 611.715 542.934C611.452 543.725 610.924 544.251 610.133 544.778Z" fill="white"/>
<path d="M435.85 405.688L435.322 404.898L520.75 355.637L296.37 226.293C290.042 222.605 282.132 222.605 275.804 226.293L202.768 268.442L202.241 267.651L275.277 225.503C281.868 221.815 290.042 221.815 296.634 225.503L522.332 355.637L521.805 355.9L435.85 405.688Z" fill="#42E8E0"/>
<path d="M919.678 475.233L876.173 450.998C866.417 445.466 857.98 433.611 854.816 421.23L817.112 266.071C814.739 256.324 809.465 247.894 803.401 242.099L798.128 258.168C796.809 262.119 794.436 265.017 791.009 266.334C787.054 267.915 781.78 267.125 776.771 263.963L770.706 260.539L765.169 277.135C763.851 281.086 761.478 283.984 758.05 285.301C754.095 286.882 748.822 286.091 743.812 282.93L735.902 278.452C726.938 273.183 718.5 261.856 715.336 250.265C712.436 239.728 706.372 231.298 699.78 226.03L696.089 233.669C694.507 236.83 692.134 239.201 689.233 239.991C685.278 241.309 680.532 240.255 675.523 237.621L671.304 235.25L663.13 252.636C661.548 255.797 659.175 258.168 656.275 258.958C652.32 260.275 647.574 259.222 642.564 256.587L633.6 251.319C623.844 245.523 615.407 233.406 612.506 221.025L575.066 53.484C572.693 42.9469 566.892 34.2537 560.564 28.1948L506.512 175.978C505.194 179.666 502.821 182.301 499.393 183.618C495.438 184.935 490.429 184.145 485.155 181.247L479.618 178.086L473.554 194.945C472.236 198.633 469.863 201.267 466.435 202.585C462.48 204.165 457.47 203.111 452.197 200.214L420.821 182.037L421.348 181.774L454.57 162.28H454.834L479.355 176.242L533.67 27.668C535.779 21.8726 539.998 18.9749 545.535 19.2383C550.017 19.5017 555.291 22.136 560.037 26.0874L566.365 8.43771C568.474 2.90571 572.165 0.00799561 577.439 0.00799561C577.702 0.00799561 577.966 0.00799561 578.23 0.00799561C589.304 0.798281 604.333 14.4966 608.551 33.4634L645.992 201.004C648.629 213.122 657.33 225.239 666.558 230.771L670.513 233.142L674.204 224.976C676.577 219.971 680.532 217.6 686.069 218.127C690.024 218.39 694.507 220.498 698.989 223.922L707.426 206.273C709.799 201.267 713.754 198.897 719.291 199.423C729.574 200.214 743.549 212.331 748.822 230.508C751.986 241.835 760.16 252.899 768.861 258.168L769.652 258.695L775.189 241.572C777.034 235.513 781.253 232.352 787.054 232.615C791.8 232.879 797.337 235.513 802.61 239.991L808.147 222.605C809.993 216.546 814.211 213.385 820.012 213.649C831.086 214.175 845.851 227.347 850.597 246.314L888.302 401.473C891.202 413.591 899.639 425.445 909.131 430.714L952.636 454.949L952.109 455.739L908.604 431.504C898.848 425.972 890.411 414.118 887.247 401.737L849.543 246.577C845.06 228.137 830.295 214.966 819.748 214.439C814.475 214.175 810.784 217.073 808.938 222.869L803.137 240.518C809.465 246.314 815.002 255.007 817.375 265.281L855.08 420.44C857.98 432.558 866.417 444.412 875.909 449.681L919.414 473.916L919.678 475.233ZM700.307 224.976C706.899 230.508 713.227 239.201 716.127 250.002C719.291 261.329 727.465 272.393 736.166 277.662L744.076 282.14C749.086 285.038 753.832 285.828 757.787 284.247C760.951 283.194 763.06 280.559 764.378 276.608L769.915 259.749L768.861 259.222C759.896 253.953 751.459 242.626 748.295 231.035C743.285 213.122 729.574 201.267 719.555 200.477C714.545 199.95 710.854 202.321 708.745 206.799L700.307 224.976ZM770.97 259.485L777.298 263.173C782.308 266.071 787.054 266.861 790.745 265.281C793.909 264.227 796.018 261.593 797.337 257.641L802.61 241.045C797.6 236.567 792.063 233.669 787.317 233.669C782.044 233.406 778.353 236.303 776.507 242.099L770.97 259.485ZM561.091 26.8777C567.683 32.9366 573.747 41.8931 576.12 52.6937L613.561 220.234C616.198 232.352 624.899 244.47 634.127 250.002L643.092 255.27C647.838 257.905 652.32 258.958 656.011 257.641C658.912 256.851 661.021 254.743 662.603 251.846L670.777 234.459L666.558 232.089C656.802 226.293 648.365 214.175 645.465 201.794L608.024 34.2537C603.805 15.8137 589.04 2.11543 578.493 1.58857C573.22 1.32514 569.265 3.95942 567.419 9.228L561.091 26.8777ZM672.095 234.196L676.314 236.567C681.06 239.201 685.542 240.255 689.233 238.938C692.134 238.147 694.243 236.04 695.825 233.142L699.516 225.239C695.298 221.815 690.815 219.971 686.86 219.707C681.851 219.181 678.159 221.551 676.05 226.03L672.095 234.196ZM422.666 181.51L452.988 198.897C457.998 201.794 462.744 202.585 466.435 201.267C469.335 200.214 471.708 197.843 473.027 194.155L479.355 177.032L455.097 163.07L422.666 181.51ZM480.146 176.769L485.946 179.93C490.956 182.827 495.702 183.618 499.393 182.301C502.294 181.247 504.667 178.876 505.985 175.188L560.037 27.1411C555.291 22.9263 550.017 20.5554 545.799 20.292C540.525 20.0286 536.57 22.6629 534.725 27.9314L480.146 176.769Z" fill="#42E8E0"/>
<path d="M572.059 2.00394L538.896 21.007L539.29 21.6925L572.452 2.68943L572.059 2.00394Z" fill="#42E8E0"/>
<path d="M679.478 221.288L679.214 220.498L712.7 201.267L713.227 202.058L679.478 221.288Z" fill="#42E8E0"/>
<path d="M815.613 214.983L780.614 235.026L781.007 235.712L816.007 215.668L815.613 214.983Z" fill="#42E8E0"/>
<path d="M919.678 475.233L876.173 450.998C866.417 445.466 857.98 433.611 854.816 421.23L817.112 266.071C814.739 256.324 809.465 247.894 803.401 242.099L798.128 258.168C796.809 262.119 794.436 265.017 791.009 266.334C787.054 267.915 781.78 267.125 776.771 263.963L770.706 260.539L765.169 277.135C763.851 281.086 761.478 283.984 758.05 285.301C754.095 286.882 748.822 286.091 743.812 282.93L735.902 278.452C726.938 273.183 718.5 261.856 715.336 250.265C712.436 239.728 706.372 231.298 699.78 226.03L696.089 233.669C694.507 236.83 692.134 239.201 689.233 239.991C685.278 241.309 680.532 240.255 675.523 237.621L671.304 235.25L663.13 252.636C661.548 255.797 659.175 258.168 656.275 258.958C652.32 260.275 647.574 259.222 642.564 256.587L633.6 251.319C623.844 245.523 615.407 233.406 612.506 221.025L575.066 53.484C572.693 42.9469 566.892 34.2537 560.564 28.1948L506.512 175.978C505.194 179.666 502.821 182.301 499.393 183.618C495.438 184.935 490.429 184.145 485.155 181.247L479.618 178.086L473.554 194.945C472.236 198.633 469.863 201.267 466.435 202.585C462.48 204.165 457.47 203.111 452.197 200.214L420.821 182.037L421.348 181.774L454.57 162.28H454.834L479.355 176.242L533.67 27.668C535.779 21.8726 539.998 18.9749 545.535 19.2383C550.017 19.5017 555.291 22.136 560.037 26.0874L566.365 8.43771C568.474 2.90571 572.165 0.00799561 577.439 0.00799561C577.702 0.00799561 577.966 0.00799561 578.23 0.00799561C589.304 0.798281 604.333 14.4966 608.551 33.4634L645.992 201.004C648.629 213.122 657.33 225.239 666.558 230.771L670.513 233.142L674.204 224.976C676.577 219.971 680.532 217.6 686.069 218.127C690.024 218.39 694.507 220.498 698.989 223.922L707.426 206.273C709.799 201.267 713.754 198.897 719.291 199.423C729.574 200.214 743.549 212.331 748.822 230.508C751.986 241.835 760.16 252.899 768.861 258.168L769.652 258.695L775.189 241.572C777.034 235.513 781.253 232.352 787.054 232.615C791.8 232.879 797.337 235.513 802.61 239.991L808.147 222.605C809.993 216.546 814.211 213.385 820.012 213.649C831.086 214.175 845.851 227.347 850.597 246.314L888.302 401.473C891.202 413.591 899.639 425.445 909.131 430.714L952.636 454.949L952.109 455.739L908.604 431.504C898.848 425.972 890.411 414.118 887.247 401.737L849.543 246.577C845.06 228.137 830.295 214.966 819.748 214.439C814.475 214.175 810.784 217.073 808.938 222.869L803.137 240.518C809.465 246.314 815.002 255.007 817.375 265.281L855.08 420.44C857.98 432.558 866.417 444.412 875.909 449.681L919.414 473.916L919.678 475.233ZM700.307 224.976C706.899 230.508 713.227 239.201 716.127 250.002C719.291 261.329 727.465 272.393 736.166 277.662L744.076 282.14C749.086 285.038 753.832 285.828 757.787 284.247C760.951 283.194 763.06 280.559 764.378 276.608L769.915 259.749L768.861 259.222C759.896 253.953 751.459 242.626 748.295 231.035C743.285 213.122 729.574 201.267 719.555 200.477C714.545 199.95 710.854 202.321 708.745 206.799L700.307 224.976ZM770.97 259.485L777.298 263.173C782.308 266.071 787.054 266.861 790.745 265.281C793.909 264.227 796.018 261.593 797.337 257.641L802.61 241.045C797.6 236.567 792.063 233.669 787.317 233.669C782.044 233.406 778.353 236.303 776.507 242.099L770.97 259.485ZM561.091 26.8777C567.683 32.9366 573.747 41.8931 576.12 52.6937L613.561 220.234C616.198 232.352 624.899 244.47 634.127 250.002L643.092 255.27C647.838 257.905 652.32 258.958 656.011 257.641C658.912 256.851 661.021 254.743 662.603 251.846L670.777 234.459L666.558 232.089C656.802 226.293 648.365 214.175 645.465 201.794L608.024 34.2537C603.805 15.8137 589.04 2.11543 578.493 1.58857C573.22 1.32514 569.265 3.95942 567.419 9.228L561.091 26.8777ZM672.095 234.196L676.314 236.567C681.06 239.201 685.542 240.255 689.233 238.938C692.134 238.147 694.243 236.04 695.825 233.142L699.516 225.239C695.298 221.815 690.815 219.971 686.86 219.707C681.851 219.181 678.159 221.551 676.05 226.03L672.095 234.196ZM422.666 181.51L452.988 198.897C457.998 201.794 462.744 202.585 466.435 201.267C469.335 200.214 471.708 197.843 473.027 194.155L479.355 177.032L455.097 163.07L422.666 181.51ZM480.146 176.769L485.946 179.93C490.956 182.827 495.702 183.618 499.393 182.301C502.294 181.247 504.667 178.876 505.985 175.188L560.037 27.1411C555.291 22.9263 550.017 20.5554 545.799 20.292C540.525 20.0286 536.57 22.6629 534.725 27.9314L480.146 176.769Z" fill="#42E8E0"/>
<path opacity="0.5" d="M454.57 162.807L485.419 180.72C494.647 185.989 502.821 184.145 505.985 175.715L566.892 9.228C573.747 -9.73886 602.223 7.384 608.288 34.2537L645.728 201.794C648.365 214.175 657.066 226.293 666.558 231.825L675.523 237.094C684.224 242.099 692.134 240.782 695.561 233.406L707.954 207.063C715.6 190.73 741.439 206.009 748.295 231.298C751.459 242.889 759.632 253.953 768.597 259.222L776.507 263.7C785.999 269.232 794.436 266.861 797.337 258.168L808.674 223.395C815.002 203.638 843.742 220.234 850.07 247.104L887.774 402.263C890.675 414.381 899.376 426.499 908.868 431.767L952.373 456.003L454.57 162.807Z" fill="url(#paint2_linear_3_11)"/>
<path opacity="0.5" d="M421.612 181.247L452.461 199.16C461.689 204.429 469.863 202.585 473.027 194.155L533.934 27.668C540.789 8.70115 569.265 25.824 575.329 52.6937L612.77 220.234C615.407 232.615 624.108 244.733 633.6 250.265L642.564 255.534C651.265 260.539 659.175 259.222 662.603 251.846L674.995 225.503C682.642 209.17 708.481 224.449 715.336 249.738C718.5 261.329 726.674 272.393 735.639 277.662L743.549 282.14C753.041 287.672 761.478 285.301 764.378 276.608L775.716 241.835C782.044 222.078 810.784 238.674 817.112 265.544L855.343 420.44C858.244 432.558 866.945 444.675 876.437 449.944L919.942 474.179L421.612 181.247Z" fill="url(#paint3_linear_3_11)"/>
<path d="M183.521 430.714C179.302 430.714 175.347 429.923 172.183 428.079L119.977 398.049C116.813 396.205 115.231 393.834 115.231 391.199C115.231 388.565 116.813 386.194 119.977 384.35L172.183 354.319C178.511 350.631 188.53 350.631 194.858 354.319L247.064 384.35C250.228 386.194 251.81 388.565 251.81 391.199C251.81 393.834 250.228 396.205 247.064 398.049L194.858 428.079C191.694 429.923 187.739 430.714 183.521 430.714ZM172.71 427.289C178.775 430.714 188.53 430.714 194.331 427.289L246.537 397.258C249.437 395.678 251.019 393.57 251.019 391.199C251.019 388.829 249.437 386.721 246.537 385.141L194.331 355.11C188.267 351.685 178.511 351.685 172.71 355.11L120.504 385.141C117.604 386.721 116.286 388.829 116.286 391.199C116.286 393.57 117.868 395.678 120.768 397.258L172.71 427.289Z" fill="#42E8E0"/>
<path d="M340.139 336.933L374.152 135.41L371.515 134.357L375.734 131.986C376.525 131.459 377.579 131.459 378.898 132.249L650.474 288.989C652.584 290.306 654.429 293.467 653.902 295.838L619.625 498.942C619.362 499.995 618.834 500.786 618.307 501.049L614.352 503.42L613.561 499.732H613.825L343.83 344.046C341.457 342.465 339.611 339.304 340.139 336.933Z" fill="url(#paint4_linear_3_11)"/>
<path d="M648.629 294.521L653.111 292.677C653.638 293.731 653.902 295.048 653.638 296.102L619.362 499.205C619.098 500.259 618.571 501.049 618.043 501.313L614.088 503.683L613.297 499.995H613.561L599.85 492.093L648.629 294.521Z" fill="url(#paint5_linear_3_11)"/>
<path d="M339.348 346.417L610.924 503.157C613.034 504.474 614.879 503.683 615.143 501.576L649.42 298.473C649.683 296.102 648.101 292.941 645.992 291.623L374.415 134.883C372.306 133.566 370.46 134.357 370.197 136.464L335.92 339.567C335.393 341.675 336.975 345.099 339.348 346.417Z" fill="#24126A"/>
<g opacity="0.51">
<path d="M373.361 138.571L646.256 295.838L611.715 499.469L339.084 342.202L373.361 138.571Z" fill="#453C9E"/>
</g>
<path d="M168.755 442.305L183.521 449.944L332.229 364.33C334.602 363.013 339.084 363.013 341.984 364.857L598.268 512.64C600.641 511.323 611.979 505.791 611.979 505.791L606.442 514.484C606.178 515.011 605.651 515.801 604.86 516.065L448.242 606.421C445.869 607.738 441.387 607.738 438.486 605.894L176.138 454.686C175.083 453.895 174.292 453.105 174.029 452.315L168.755 442.305Z" fill="url(#paint6_linear_3_11)"/>
<path d="M170.865 444.939L439.541 600.098C442.441 601.679 446.924 601.942 449.56 600.625L609.87 508.162C612.506 506.581 611.979 504.21 609.079 502.366L340.402 347.207C337.502 345.626 333.02 345.363 330.383 346.68L170.074 439.143C167.701 440.461 167.964 443.095 170.865 444.939Z" fill="url(#paint7_linear_3_11)"/>
<path d="M170.865 443.622L439.541 598.781C442.441 600.362 446.924 600.625 449.56 599.308L609.87 506.845C610.661 506.318 611.188 505.791 611.452 505.001C611.715 506.054 611.188 507.371 609.87 508.162L449.56 600.625C446.924 602.206 442.441 601.942 439.541 600.098L170.865 444.939C169.019 443.885 168.228 442.305 168.492 440.987C168.755 442.041 169.546 442.831 170.865 443.622Z" fill="white"/>
<g opacity="0.15">
<mask id="mask0_3_11" style="mask-type:luminance" maskUnits="userSpaceOnUse" x="339" y="138" width="308" height="362">
<path d="M646.256 295.838L373.361 138.571L339.084 342.202L611.715 499.469L646.256 295.838Z" fill="white"/>
</mask>
<g mask="url(#mask0_3_11)">
<path d="M339.084 345.099L353.849 352.739L502.557 267.125C504.93 265.807 509.413 265.807 512.313 267.651L768.333 415.171C770.706 413.854 782.044 408.322 782.044 408.322L776.507 417.015C776.243 417.542 775.716 418.333 774.925 418.596L618.307 508.952C615.934 510.269 611.452 510.269 608.551 508.425L346.203 357.217C345.148 356.427 344.357 355.637 344.094 354.846L339.084 345.099Z" fill="url(#paint8_linear_3_11)"/>
<path d="M341.193 347.47L610.133 502.366C613.034 503.947 617.516 504.21 620.153 502.893L780.462 410.43C783.099 408.849 782.571 406.478 779.671 404.634L510.995 249.475C508.094 247.894 503.612 247.631 500.975 248.948L340.666 341.411C338.029 343.255 338.293 345.626 341.193 347.47Z" fill="url(#paint9_linear_3_11)"/>
<path d="M779.671 404.634L510.995 249.475C509.149 248.421 506.512 247.894 504.403 248.158C505.985 248.158 507.831 248.685 509.149 249.475L777.825 404.634C780.726 406.215 780.989 408.849 778.616 410.43L618.043 502.893C617.252 503.42 615.934 503.683 614.616 503.947C616.461 504.21 618.571 503.683 619.889 502.893L780.198 410.43C783.099 408.849 782.571 406.215 779.671 404.634Z" fill="white"/>
<g opacity="0.5">
<path d="M481.991 320.864L473.29 315.859C472.499 315.332 471.445 315.595 470.654 315.859L461.162 321.391C460.371 321.918 460.371 322.445 461.162 322.971L469.863 327.977C470.654 328.503 471.708 328.24 472.499 327.977L481.991 322.445C482.782 321.918 482.782 321.127 481.991 320.864Z" fill="#24126A"/>
<path d="M495.438 328.503L486.737 323.498C485.946 322.971 484.892 323.235 484.101 323.498L474.609 329.03C473.818 329.557 473.818 330.084 474.609 330.611L483.31 335.616C484.101 336.143 485.155 335.879 485.946 335.616L495.438 330.084C495.966 329.557 495.966 328.767 495.438 328.503Z" fill="#24126A"/>
<path d="M508.622 336.143L499.921 331.138C499.13 330.611 498.075 330.874 497.284 331.138L487.792 336.67C487.001 337.197 487.001 337.723 487.792 338.25L496.493 343.255C497.284 343.782 498.339 343.519 499.13 343.255L508.622 337.723C509.413 337.197 509.413 336.406 508.622 336.143Z" fill="#24126A"/>
<path d="M498.602 346.417L489.901 341.411C489.11 340.885 488.056 341.148 487.265 341.411L479.355 346.153C478.564 346.68 478.564 347.207 479.355 347.734L488.056 352.739C488.847 353.266 489.901 353.002 490.692 352.739L498.602 347.997C499.13 347.47 499.393 346.68 498.602 346.417Z" fill="#24126A"/>
<path d="M511.786 354.056L503.085 349.051C502.294 348.524 501.239 348.787 500.448 349.051L492.538 353.793C491.747 354.319 491.747 354.846 492.538 355.373L501.239 360.378C502.03 360.905 503.085 360.642 503.876 360.378L511.786 355.637C512.577 355.11 512.577 354.319 511.786 354.056Z" fill="#24126A"/>
<path d="M525.233 361.695L516.532 356.69C515.741 356.163 514.686 356.427 513.895 356.69L505.985 361.432C505.194 361.959 505.194 362.486 505.985 363.013L514.686 368.018C515.477 368.545 516.532 368.281 517.323 368.018L525.233 363.276C525.76 362.749 525.76 361.959 525.233 361.695Z" fill="#24126A"/>
<path d="M538.416 369.335L529.715 364.33C528.924 363.803 527.869 364.066 527.078 364.33L519.168 369.071C518.377 369.598 518.377 370.125 519.168 370.652L527.869 375.657C528.66 376.184 529.715 375.921 530.506 375.657L538.416 370.915C539.207 370.389 539.207 369.598 538.416 369.335Z" fill="#24126A"/>
<path d="M551.863 376.974L543.162 371.969C542.371 371.442 541.316 371.706 540.525 371.969L532.615 376.711C531.824 377.238 531.824 377.765 532.615 378.291L541.316 383.297C542.107 383.823 543.162 383.56 543.953 383.297L551.863 378.555C552.39 378.028 552.39 377.501 551.863 376.974Z" fill="#24126A"/>
<path d="M565.046 384.614L556.345 379.609C555.554 379.082 554.5 379.345 553.709 379.609L545.799 384.35C545.008 384.877 545.008 385.404 545.799 385.931L554.5 390.936C555.291 391.463 556.345 391.199 557.136 390.936L565.046 386.194C565.837 385.667 565.837 385.141 565.046 384.614Z" fill="#24126A"/>
<path d="M578.493 392.253L569.792 387.248C569.001 386.721 567.947 386.985 567.156 387.248L559.246 391.99C558.455 392.517 558.455 393.043 559.246 393.57L567.947 398.575C568.738 399.102 569.792 398.839 570.583 398.575L578.493 393.834C579.021 393.307 579.021 392.78 578.493 392.253Z" fill="#24126A"/>
<path d="M591.677 400.156L582.976 395.151C582.185 394.624 581.13 394.887 580.339 395.151L572.429 399.893C571.638 400.419 571.638 400.946 572.429 401.473L581.13 406.478C581.921 407.005 582.976 406.742 583.767 406.478L591.677 401.737C592.468 401.21 592.468 400.419 591.677 400.156Z" fill="#24126A"/>
<path d="M605.124 407.795L596.423 402.79C595.632 402.263 594.577 402.527 593.786 402.79L585.876 407.532C585.085 408.059 585.085 408.586 585.876 409.113L594.577 414.118C595.368 414.645 596.423 414.381 597.214 414.118L605.124 409.376C605.651 408.849 605.651 408.059 605.124 407.795Z" fill="#24126A"/>
<path d="M618.307 415.435L609.606 410.43C608.815 409.903 607.76 410.166 606.969 410.43L599.059 415.171C598.268 415.698 598.268 416.225 599.059 416.752L607.76 421.757C608.551 422.284 609.606 422.021 610.397 421.757L618.307 417.015C619.098 416.489 619.098 415.698 618.307 415.435Z" fill="#24126A"/>
<path d="M493.065 357.217L484.364 352.212C483.573 351.685 482.519 351.949 481.728 352.212L473.818 356.954C473.027 357.481 473.027 358.007 473.818 358.534L482.519 363.539C483.31 364.066 484.364 363.803 485.155 363.539L493.065 358.798C493.593 358.271 493.593 357.744 493.065 357.217Z" fill="#24126A"/>
<path d="M479.618 349.578L470.917 344.573C470.126 344.046 469.072 344.309 468.281 344.573L460.371 349.314C459.58 349.841 459.58 350.368 460.371 350.895L469.072 355.9C469.863 356.427 470.917 356.163 471.708 355.9L479.618 351.158C480.146 350.631 480.146 349.841 479.618 349.578Z" fill="#24126A"/>
<path d="M465.908 341.675L447.451 330.874C446.66 330.347 445.605 330.611 444.814 330.874L436.904 335.616C436.113 336.143 436.113 336.67 436.904 337.197L455.361 347.997C456.152 348.524 457.207 348.261 457.998 347.997L465.908 343.255C466.699 342.729 466.699 341.938 465.908 341.675Z" fill="#24126A"/>
<path d="M450.351 346.68L435.322 337.987C434.531 337.46 433.477 337.723 432.686 337.987L424.776 342.729C423.985 343.255 423.985 343.782 424.776 344.309L439.805 353.002C440.596 353.529 441.65 353.266 442.441 353.002L450.351 348.261C450.879 347.734 450.879 347.207 450.351 346.68Z" fill="#24126A"/>
<path d="M506.249 364.857L497.548 359.851C496.757 359.325 495.702 359.588 494.911 359.851L487.001 364.593C486.21 365.12 486.21 365.647 487.001 366.174L495.702 371.179C496.493 371.706 497.548 371.442 498.339 371.179L506.249 366.437C507.04 365.91 507.04 365.383 506.249 364.857Z" fill="#24126A"/>
<path d="M519.696 372.496L510.995 367.491C510.204 366.964 509.149 367.227 508.358 367.491L500.448 372.233C499.657 372.759 499.657 373.286 500.448 373.813L509.149 378.818C509.94 379.345 510.995 379.082 511.786 378.818L519.696 374.077C520.223 373.813 520.223 373.023 519.696 372.496Z" fill="#24126A"/>
<path d="M532.879 380.399L524.178 375.394C523.387 374.867 522.332 375.13 521.541 375.394L513.631 380.135C512.84 380.662 512.84 381.189 513.631 381.716L522.332 386.721C523.123 387.248 524.178 386.985 524.969 386.721L532.879 381.979C533.67 381.453 533.67 380.662 532.879 380.399Z" fill="#24126A"/>
<path d="M546.326 388.038L537.625 383.033C536.834 382.506 535.779 382.77 534.988 383.033L527.078 387.775C526.287 388.302 526.287 388.829 527.078 389.355L535.779 394.361C536.57 394.887 537.625 394.624 538.416 394.361L546.326 389.619C546.853 389.092 546.853 388.302 546.326 388.038Z" fill="#24126A"/>
<path d="M559.509 395.678L550.808 390.673C550.017 390.146 548.963 390.409 548.172 390.673L540.262 395.414C539.471 395.941 539.471 396.468 540.262 396.995L548.963 402C549.754 402.527 550.808 402.263 551.599 402L559.509 397.258C560.3 396.731 560.3 395.941 559.509 395.678Z" fill="#24126A"/>
<path d="M572.956 403.317L564.255 398.312C563.464 397.785 562.41 398.049 561.619 398.312L553.709 403.054C552.918 403.581 552.918 404.107 553.709 404.634L562.41 409.639C563.201 410.166 564.255 409.903 565.046 409.639L572.956 404.898C573.484 404.371 573.484 403.844 572.956 403.317Z" fill="#24126A"/>
<path d="M586.14 410.957L577.439 405.951C576.648 405.425 575.593 405.688 574.802 405.951L566.892 410.693C566.101 411.22 566.101 411.747 566.892 412.274L575.593 417.279C576.384 417.806 577.439 417.542 578.23 417.279L586.14 412.537C586.931 412.01 586.931 411.483 586.14 410.957Z" fill="#24126A"/>
<path d="M599.587 418.596L590.886 413.591C590.095 413.064 589.04 413.327 588.249 413.591L580.339 418.333C579.548 418.859 579.548 419.386 580.339 419.913L589.04 424.918C589.831 425.445 590.886 425.182 591.677 424.918L599.587 420.177C600.114 419.65 600.114 419.123 599.587 418.596Z" fill="#24126A"/>
<path d="M612.77 426.235L604.069 421.23C603.278 420.703 602.223 420.967 601.432 421.23L593.522 425.972C592.731 426.499 592.731 427.026 593.522 427.553L602.223 432.558C603.014 433.085 604.069 432.821 604.86 432.558L612.77 427.816C613.561 427.289 613.561 426.762 612.77 426.235Z" fill="#24126A"/>
<path d="M636.5 439.934L617.78 429.133C616.989 428.606 615.934 428.87 615.143 429.133L607.233 433.875C606.442 434.402 606.442 434.929 607.233 435.455L625.953 446.256C626.744 446.783 627.799 446.519 628.59 446.256L636.5 441.514C637.027 440.987 637.027 440.461 636.5 439.934Z" fill="#24126A"/>
<path d="M611.979 454.159L596.159 444.939C595.368 444.412 594.313 444.675 593.522 444.939L585.612 449.681C584.821 450.207 584.821 450.734 585.612 451.261L601.432 460.481C602.223 461.008 603.278 460.745 604.069 460.481L611.979 455.739C612.77 455.213 612.77 454.686 611.979 454.159Z" fill="#24126A"/>
<path d="M504.403 378.028L495.702 373.023C494.911 372.496 493.856 372.759 493.065 373.023L485.155 377.765C484.364 378.291 484.364 378.818 485.155 379.345L493.856 384.35C494.647 384.877 495.702 384.614 496.493 384.35L504.403 379.609C505.194 379.082 505.194 378.555 504.403 378.028Z" fill="#24126A"/>
<path d="M490.956 370.125L482.255 365.12C481.464 364.593 480.409 364.857 479.618 365.12L471.708 369.862C470.917 370.389 470.917 370.915 471.708 371.442L480.409 376.447C481.2 376.974 482.255 376.711 483.046 376.447L490.956 371.706C491.483 371.179 491.483 370.652 490.956 370.125Z" fill="#24126A"/>
<path d="M477.245 362.222L468.544 357.217C467.753 356.69 466.699 356.954 465.908 357.217L457.998 361.959C457.207 362.486 457.207 363.013 457.998 363.539L466.699 368.545C467.49 369.071 468.544 368.808 469.335 368.545L477.245 363.803C477.773 363.276 478.036 362.749 477.245 362.222Z" fill="#24126A"/>
<path d="M463.535 354.319L454.834 349.314C454.043 348.787 452.988 349.051 452.197 349.314L444.287 354.056C443.496 354.583 443.496 355.11 444.287 355.637L452.988 360.642C453.779 361.169 454.834 360.905 455.625 360.642L463.535 355.9C464.326 355.373 464.326 354.846 463.535 354.319Z" fill="#24126A"/>
<path d="M517.85 385.667L509.149 380.662C508.358 380.135 507.303 380.399 506.512 380.662L498.602 385.404C497.811 385.931 497.811 386.458 498.602 386.985L507.303 391.99C508.094 392.517 509.149 392.253 509.94 391.99L517.85 387.248C518.377 386.721 518.377 386.194 517.85 385.667Z" fill="#24126A"/>
<path d="M531.033 393.307L522.332 388.302C521.541 387.775 520.487 388.038 519.696 388.302L511.786 393.043C510.995 393.57 510.995 394.097 511.786 394.624L520.487 399.629C521.278 400.156 522.332 399.893 523.123 399.629L531.033 394.887C531.824 394.361 531.824 393.834 531.033 393.307Z" fill="#24126A"/>
<path d="M544.48 400.946L535.779 395.941C534.988 395.414 533.934 395.678 533.143 395.941L525.233 400.683C524.442 401.21 524.442 401.737 525.233 402.263L533.934 407.269C534.725 407.795 535.779 407.532 536.57 407.269L544.48 402.527C545.008 402 545.008 401.473 544.48 400.946Z" fill="#24126A"/>
<path d="M557.664 408.849L548.963 403.844C548.172 403.317 547.117 403.581 546.326 403.844L538.416 408.586C537.625 409.113 537.625 409.639 538.416 410.166L547.117 415.171C547.908 415.698 548.963 415.435 549.754 415.171L557.664 410.43C558.455 409.903 558.455 409.113 557.664 408.849Z" fill="#24126A"/>
<path d="M571.111 416.489L562.41 411.483C561.619 410.957 560.564 411.22 559.773 411.483L551.863 416.225C551.072 416.752 551.072 417.279 551.863 417.806L560.564 422.811C561.355 423.338 562.41 423.074 563.201 422.811L571.111 418.069C571.638 417.542 571.638 416.752 571.111 416.489Z" fill="#24126A"/>
<path d="M584.294 424.128L575.593 419.123C574.802 418.596 573.747 418.859 572.956 419.123L565.046 423.865C564.255 424.391 564.255 424.918 565.046 425.445L573.747 430.45C574.538 430.977 575.593 430.714 576.384 430.45L584.294 425.709C585.085 425.182 585.085 424.391 584.294 424.128Z" fill="#24126A"/>
<path d="M597.741 431.767L589.04 426.762C588.249 426.235 587.194 426.499 586.403 426.762L578.493 431.504C577.702 432.031 577.702 432.558 578.493 433.085L587.194 438.09C587.985 438.617 589.04 438.353 589.831 438.09L597.741 433.348C598.268 432.821 598.268 432.031 597.741 431.767Z" fill="#24126A"/>
<path d="M610.924 439.407L602.223 434.402C601.432 433.875 600.378 434.138 599.587 434.402L591.677 439.143C590.886 439.67 590.886 440.197 591.677 440.724L600.378 445.729C601.169 446.256 602.223 445.993 603.014 445.729L610.924 440.987C611.452 440.461 611.715 439.934 610.924 439.407Z" fill="#24126A"/>
<path d="M624.371 447.046L615.67 442.041C614.879 441.514 613.825 441.778 613.034 442.041L605.124 446.783C604.333 447.31 604.333 447.837 605.124 448.363L613.825 453.369C614.616 453.895 615.67 453.632 616.461 453.369L624.371 448.627C624.899 448.1 624.899 447.573 624.371 447.046Z" fill="#24126A"/>
<path d="M472.236 373.55L463.535 368.545C462.744 368.018 461.689 368.281 460.898 368.545L452.988 373.286C452.197 373.813 452.197 374.34 452.988 374.867L461.689 379.872C462.48 380.399 463.535 380.135 464.326 379.872L472.236 375.13C473.027 374.603 473.027 374.077 472.236 373.55Z" fill="#24126A"/>
<path d="M459.052 365.91L450.351 360.905C449.56 360.378 448.506 360.642 447.715 360.905L439.805 365.647C439.014 366.174 439.014 366.701 439.805 367.227L448.506 372.233C449.297 372.759 450.351 372.496 451.142 372.233L459.052 367.491C459.843 366.964 459.843 366.437 459.052 365.91Z" fill="#24126A"/>
<path d="M445.869 358.271L437.168 353.266C436.377 352.739 435.322 353.002 434.531 353.266L426.621 358.007C425.83 358.534 425.83 359.061 426.621 359.588L435.322 364.593C436.113 365.12 437.168 364.857 437.959 364.593L445.869 359.851C446.396 359.325 446.66 358.798 445.869 358.271Z" fill="#24126A"/>
<path d="M432.686 350.631L423.985 345.626C423.194 345.099 422.139 345.363 421.348 345.626L413.438 350.368C412.647 350.895 412.647 351.422 413.438 351.949L422.139 356.954C422.93 357.481 423.985 357.217 424.776 356.954L432.686 352.212C433.213 351.685 433.213 351.158 432.686 350.631Z" fill="#24126A"/>
<path d="M419.766 358.271L411.065 353.266C410.274 352.739 409.219 353.002 408.428 353.266L405.792 354.846C405.001 355.373 405.001 355.9 405.792 356.427L414.493 361.432C415.284 361.959 416.338 361.695 417.129 361.432L419.766 359.851C420.557 359.325 420.557 358.534 419.766 358.271Z" fill="#24126A"/>
<path d="M437.168 368.281L428.467 363.276C427.676 362.749 426.621 363.013 425.83 363.276L423.194 364.857C422.403 365.383 422.403 365.91 423.194 366.437L431.895 371.442C432.686 371.969 433.74 371.706 434.531 371.442L437.168 369.862C437.695 369.335 437.695 368.545 437.168 368.281Z" fill="#24126A"/>
<path d="M450.351 375.657L441.65 370.652C440.859 370.125 439.805 370.389 439.014 370.652L436.377 372.233C435.586 372.759 435.586 373.286 436.377 373.813L445.078 378.818C445.869 379.345 446.924 379.082 447.715 378.818L450.351 377.238C450.879 376.974 450.879 376.184 450.351 375.657Z" fill="#24126A"/>
<path d="M463.535 383.297L454.834 378.291C454.043 377.765 452.988 378.028 452.197 378.291L449.56 379.872C448.769 380.399 448.769 380.926 449.56 381.453L458.261 386.458C459.052 386.985 460.107 386.721 460.898 386.458L463.535 384.877C464.062 384.35 464.062 383.823 463.535 383.297Z" fill="#24126A"/>
<path d="M476.718 390.936L468.017 385.931C467.226 385.404 466.171 385.667 465.38 385.931L462.744 387.511C461.953 388.038 461.953 388.565 462.744 389.092L471.445 394.097C472.236 394.624 473.29 394.361 474.081 394.097L476.718 392.517C477.245 391.99 477.245 391.463 476.718 390.936Z" fill="#24126A"/>
<path d="M550.281 433.348L541.58 428.343C540.789 427.816 539.734 428.079 538.943 428.343L536.307 429.923C535.516 430.45 535.516 430.977 536.307 431.504L545.008 436.509C545.799 437.036 546.853 436.773 547.644 436.509L550.281 434.929C550.808 434.402 550.808 433.875 550.281 433.348Z" fill="#24126A"/>
<path d="M563.464 440.987L554.763 435.982C553.972 435.455 552.918 435.719 552.127 435.982L549.49 437.563C548.699 438.09 548.699 438.617 549.49 439.143L558.191 444.149C558.982 444.675 560.037 444.412 560.828 444.149L563.464 442.568C563.992 442.041 563.992 441.514 563.464 440.987Z" fill="#24126A"/>
<path d="M576.648 448.627L567.947 443.622C567.156 443.095 566.101 443.358 565.31 443.622L562.673 445.202C561.882 445.729 561.882 446.256 562.673 446.783L571.374 451.788C572.165 452.315 573.22 452.051 574.011 451.788L576.648 450.207C577.175 449.681 577.175 449.154 576.648 448.627Z" fill="#24126A"/>
<path d="M589.831 456.266L581.13 451.261C580.339 450.734 579.284 450.998 578.493 451.261L575.857 452.842C575.066 453.369 575.066 453.895 575.857 454.422L584.558 459.427C585.349 459.954 586.403 459.691 587.194 459.427L589.831 457.847C590.358 457.32 590.358 456.53 589.831 456.266Z" fill="#24126A"/>
<path d="M485.683 381.189L476.982 376.184C476.191 375.657 475.136 375.921 474.345 376.184L466.435 380.926C465.644 381.453 465.644 381.979 466.435 382.506L475.136 387.511C475.927 388.038 476.982 387.775 477.773 387.511L485.683 382.77C486.21 382.506 486.21 381.716 485.683 381.189Z" fill="#24126A"/>
<path d="M498.866 389.092L490.165 384.087C489.374 383.56 488.319 383.823 487.528 384.087L479.618 388.829C478.827 389.355 478.827 389.882 479.618 390.409L488.319 395.414C489.11 395.941 490.165 395.678 490.956 395.414L498.866 390.673C499.657 390.146 499.657 389.355 498.866 389.092Z" fill="#24126A"/>
<path d="M512.313 396.731L503.612 391.726C502.821 391.199 501.766 391.463 500.975 391.726L493.065 396.468C492.274 396.995 492.274 397.522 493.065 398.049L501.766 403.054C502.557 403.581 503.612 403.317 504.403 403.054L512.313 398.312C512.84 397.785 512.84 396.995 512.313 396.731Z" fill="#24126A"/>
<path d="M525.496 404.371L516.795 399.366C516.004 398.839 514.95 399.102 514.159 399.366L506.249 404.107C505.458 404.634 505.458 405.161 506.249 405.688L514.95 410.693C515.741 411.22 516.795 410.957 517.586 410.693L525.496 405.951C526.287 405.425 526.287 404.634 525.496 404.371Z" fill="#24126A"/>
<path d="M538.943 412.01L530.242 407.005C529.451 406.478 528.397 406.742 527.606 407.005L519.696 411.747C518.905 412.274 518.905 412.801 519.696 413.327L528.397 418.333C529.188 418.859 530.242 418.596 531.033 418.333L538.943 413.591C539.471 413.064 539.471 412.537 538.943 412.01Z" fill="#24126A"/>
<path d="M552.127 419.65L543.426 414.645C542.635 414.118 541.58 414.381 540.789 414.645L532.879 419.386C532.088 419.913 532.088 420.44 532.879 420.967L541.58 425.972C542.371 426.499 543.426 426.235 544.217 425.972L552.127 421.23C552.918 420.703 552.918 420.177 552.127 419.65Z" fill="#24126A"/>
<path d="M565.574 427.289L556.873 422.284C556.082 421.757 555.027 422.021 554.236 422.284L546.326 427.026C545.535 427.553 545.535 428.079 546.326 428.606L555.027 433.611C555.818 434.138 556.873 433.875 557.664 433.611L565.574 428.87C566.101 428.343 566.101 427.816 565.574 427.289Z" fill="#24126A"/>
<path d="M578.757 434.929L570.056 429.923C569.265 429.397 568.21 429.66 567.419 429.923L559.509 434.665C558.718 435.192 558.718 435.719 559.509 436.246L568.21 441.251C569.001 441.778 570.056 441.514 570.847 441.251L578.757 436.509C579.548 435.982 579.548 435.455 578.757 434.929Z" fill="#24126A"/>
<path d="M592.204 442.831L583.503 437.826C582.712 437.299 581.657 437.563 580.866 437.826L572.956 442.568C572.165 443.095 572.165 443.622 572.956 444.149L581.657 449.154C582.448 449.681 583.503 449.417 584.294 449.154L592.204 444.412C592.731 443.885 592.731 443.095 592.204 442.831Z" fill="#24126A"/>
<path d="M484.892 338.514L459.58 323.762C458.789 323.235 457.734 323.498 456.943 323.762L449.033 328.503C448.242 329.03 448.242 329.557 449.033 330.084L474.345 344.836C475.136 345.363 476.191 345.099 476.982 344.836L484.892 340.094C485.683 339.567 485.683 338.777 484.892 338.514Z" fill="#24126A"/>
<path d="M648.365 432.821L623.053 418.069C622.262 417.542 621.207 417.806 620.416 418.069L612.506 422.811C611.715 423.338 611.715 423.865 612.506 424.391L637.818 439.143C638.609 439.67 639.664 439.407 640.455 439.143L648.365 434.402C649.156 433.875 649.156 433.085 648.365 432.821Z" fill="#24126A"/>
<path d="M623.844 402.527L615.143 397.522C614.352 396.995 613.297 397.258 612.506 397.522L603.014 403.054C602.223 403.581 602.223 404.107 603.014 404.634L611.715 409.639C612.506 410.166 613.561 409.903 614.352 409.639L623.844 404.107C624.371 403.581 624.371 402.79 623.844 402.527Z" fill="#24126A"/>
<path d="M527.078 346.68L513.368 338.777C512.577 338.25 511.522 338.514 510.731 338.777L501.239 344.309C500.448 344.836 500.448 345.363 501.239 345.89L514.95 353.793C515.741 354.319 516.795 354.056 517.586 353.793L527.078 348.261C527.869 347.734 527.869 347.207 527.078 346.68Z" fill="#24126A"/>
<path d="M610.924 395.151L597.214 387.248C596.423 386.721 595.368 386.985 594.577 387.248L585.085 392.78C584.294 393.307 584.294 393.834 585.085 394.361L598.796 402.263C599.587 402.79 600.641 402.527 601.432 402.263L610.924 396.731C611.715 396.205 611.715 395.414 610.924 395.151Z" fill="#24126A"/>
<path d="M546.326 357.744L532.615 349.841C531.824 349.314 530.77 349.578 529.979 349.841L520.487 355.373C519.696 355.9 519.696 356.427 520.487 356.954L534.197 364.857C534.988 365.383 536.043 365.12 536.834 364.857L546.326 359.325C547.117 358.798 547.117 358.271 546.326 357.744Z" fill="#24126A"/>
<path d="M520.487 357.217L580.339 391.726C581.13 392.253 582.185 392.253 582.976 391.726L592.731 385.931C593.522 385.404 593.522 384.877 592.731 384.35L532.879 349.841L520.487 357.217Z" fill="#24126A"/>
<path d="M634.918 415.962L644.41 421.494C644.937 421.757 645.992 421.757 646.519 421.494L650.474 419.123C651.002 418.859 651.002 418.333 650.474 417.806L640.982 412.274C640.455 412.01 639.4 412.01 638.873 412.274L634.918 414.645C634.391 415.171 634.391 415.698 634.918 415.962Z" fill="#24126A"/>
<path d="M621.471 408.322L630.963 413.854C631.49 414.118 632.545 414.118 633.072 413.854L637.027 411.483C637.555 411.22 637.555 410.693 637.027 410.166L627.535 404.634C627.008 404.371 625.953 404.371 625.426 404.634L621.471 407.005C620.944 407.532 620.944 408.059 621.471 408.322Z" fill="#24126A"/>
<path d="M628.063 420.177L637.555 425.709C638.082 425.972 639.137 425.972 639.664 425.709L643.619 423.338C644.146 423.074 644.146 422.547 643.619 422.021L634.127 416.489C633.6 416.225 632.545 416.225 632.018 416.489L628.063 418.859C627.535 419.123 627.535 419.65 628.063 420.177Z" fill="#24126A"/>
</g>
</g>
</g>
<g opacity="0.8">
<path d="M294.524 427.553L286.087 422.547C285.296 422.021 285.56 421.494 286.351 420.967L296.37 415.171C297.161 414.645 298.479 414.645 299.007 415.171L307.444 420.177C308.235 420.44 307.971 421.23 307.18 421.757L297.161 427.553C296.37 428.079 295.315 428.079 294.524 427.553Z" fill="#24126A"/>
<path d="M307.708 435.192L299.27 430.187C298.479 429.66 298.743 429.133 299.534 428.606L309.553 422.811C310.344 422.284 311.663 422.284 312.19 422.811L320.627 427.816C321.418 428.343 321.155 428.87 320.364 429.397L310.344 435.192C309.553 435.719 308.499 435.719 307.708 435.192Z" fill="#24126A"/>
<path d="M320.891 442.831L312.454 437.826C311.663 437.299 311.926 436.773 312.717 436.246L322.737 430.45C323.528 429.923 324.846 429.923 325.373 430.45L333.811 435.455C334.602 435.982 334.338 436.509 333.547 437.036L323.528 442.831C322.737 443.358 321.682 443.358 320.891 442.831Z" fill="#24126A"/>
<path d="M339.084 436.509L330.647 431.504C329.856 431.241 330.119 430.45 330.91 429.923L339.348 424.918C340.139 424.391 341.457 424.391 341.984 424.918L350.422 429.923C351.213 430.45 350.949 430.977 350.158 431.504L341.721 436.509C340.93 437.036 339.875 437.036 339.084 436.509Z" fill="#24126A"/>
<path d="M352.267 444.149L343.83 439.143C343.039 438.88 343.303 438.09 344.094 437.563L352.531 432.558C353.322 432.031 354.64 432.031 355.168 432.558L363.605 437.563C364.396 437.826 364.132 438.617 363.341 439.143L354.904 444.149C354.113 444.675 353.058 444.675 352.267 444.149Z" fill="#24126A"/>
<path d="M365.451 451.788L357.013 446.783C356.222 446.256 356.486 445.729 357.277 445.202L365.714 440.197C366.505 439.67 367.824 439.67 368.351 440.197L376.788 445.202C377.579 445.466 377.316 446.256 376.525 446.783L368.087 451.788C367.296 452.051 366.242 452.315 365.451 451.788Z" fill="#24126A"/>
<path d="M378.634 459.427L370.197 454.422C369.406 454.159 369.669 453.369 370.46 452.842L378.898 447.837C379.689 447.31 381.007 447.31 381.534 447.837L389.972 452.842C390.763 453.369 390.499 453.895 389.708 454.422L381.271 459.427C380.48 459.691 379.425 459.691 378.634 459.427Z" fill="#24126A"/>
<path d="M391.817 467.067L383.38 462.062C382.589 461.798 382.853 461.008 383.644 460.481L392.081 455.476C392.872 454.949 394.19 454.949 394.718 455.476L403.155 460.481C403.946 460.745 403.682 461.535 402.891 462.062L394.454 467.067C393.663 467.33 392.608 467.33 391.817 467.067Z" fill="#24126A"/>
<path d="M405.001 474.706L396.563 469.701C395.772 469.174 396.036 468.647 396.827 468.121L405.264 463.115C406.055 462.589 407.374 462.589 407.901 463.115L416.338 468.121C417.129 468.384 416.866 469.174 416.075 469.701L407.637 474.706C406.846 474.97 405.792 474.97 405.001 474.706Z" fill="#24126A"/>
<path d="M418.184 482.346L409.747 477.341C408.956 476.814 409.219 476.287 410.01 475.76L418.448 470.755C419.239 470.228 420.557 470.228 421.084 470.755L429.522 475.76C430.313 476.287 430.049 476.814 429.258 477.341L420.821 482.346C420.03 482.609 418.975 482.609 418.184 482.346Z" fill="#24126A"/>
<path d="M431.367 489.722L422.93 484.717C422.139 484.19 422.403 483.663 423.194 483.136L431.631 478.131C432.422 477.604 433.74 477.604 434.268 478.131L442.705 483.136C443.496 483.663 443.232 484.19 442.441 484.717L434.004 489.722C433.213 490.249 432.158 490.249 431.367 489.722Z" fill="#24126A"/>
<path d="M444.551 497.361L436.113 492.356C435.322 492.093 435.586 491.302 436.377 490.775L444.814 485.77C445.605 485.243 446.924 485.243 447.451 485.77L455.888 490.775C456.679 491.302 456.416 491.829 455.625 492.356L447.187 497.361C446.396 497.888 445.342 497.888 444.551 497.361Z" fill="#24126A"/>
<path d="M457.734 505.001L449.297 499.995C448.506 499.732 448.769 498.942 449.56 498.415L457.998 493.41C458.789 492.883 460.107 492.883 460.634 493.41L469.072 498.415C469.863 498.678 469.599 499.469 468.808 499.995L460.371 505.001C459.58 505.264 458.525 505.527 457.734 505.001Z" fill="#24126A"/>
<path d="M358.595 433.085L350.158 428.079C349.367 427.553 349.631 427.026 350.422 426.499L358.859 421.494C359.65 420.967 360.968 420.967 361.496 421.494L369.933 426.499C370.724 426.762 370.46 427.553 369.669 428.079L361.232 433.085C360.441 433.348 359.123 433.348 358.595 433.085Z" fill="#24126A"/>
<path d="M345.148 425.182L336.711 420.177C335.92 419.913 336.184 419.123 336.975 418.596L345.412 413.591C346.203 413.064 347.521 413.064 348.049 413.591L356.486 418.596C357.277 419.123 357.013 419.65 356.222 420.177L347.785 425.182C346.994 425.709 345.939 425.709 345.148 425.182Z" fill="#24126A"/>
<path d="M331.701 417.542L313.245 407.005C312.454 406.478 312.717 405.951 313.508 405.425L321.946 400.419C322.737 399.893 324.055 399.893 324.582 400.419L343.039 410.957C343.83 411.22 343.566 412.01 342.775 412.537L334.338 417.542C333.547 417.806 332.492 418.069 331.701 417.542Z" fill="#24126A"/>
<path d="M341.193 408.059L326.164 399.366C325.373 399.102 325.637 398.312 326.428 397.785L334.865 392.78C335.656 392.253 336.975 392.253 337.502 392.78L352.531 401.473C353.322 402 353.058 402.527 352.267 403.054L343.83 408.059C343.039 408.586 341.721 408.586 341.193 408.059Z" fill="#24126A"/>
<path d="M371.779 440.724L363.341 435.719C362.55 435.192 362.814 434.665 363.605 434.138L372.042 429.133C372.833 428.606 374.152 428.606 374.679 429.133L383.116 434.138C383.907 434.665 383.644 435.192 382.853 435.719L374.415 440.724C373.624 440.987 372.306 440.987 371.779 440.724Z" fill="#24126A"/>
<path d="M384.962 448.1L376.525 443.095C375.734 442.568 375.997 442.041 376.788 441.514L385.226 436.509C386.017 435.982 387.335 435.982 387.862 436.509L396.3 441.514C397.091 442.041 396.827 442.568 396.036 443.095L387.599 448.1C386.808 448.627 385.489 448.627 384.962 448.1Z" fill="#24126A"/>
<path d="M398.145 455.739L389.708 450.734C388.917 450.207 389.181 449.681 389.972 449.154L398.409 444.149C399.2 443.622 400.518 443.622 401.046 444.149L409.483 449.154C410.274 449.681 410.01 450.207 409.219 450.734L400.782 455.739C399.991 456.266 398.673 456.266 398.145 455.739Z" fill="#24126A"/>
<path d="M411.329 463.379L402.891 458.374C402.1 457.847 402.364 457.32 403.155 456.793L411.592 451.788C412.383 451.261 413.702 451.261 414.229 451.788L422.666 456.793C423.457 457.32 423.194 457.847 422.403 458.374L413.965 463.379C413.174 463.642 411.856 463.906 411.329 463.379Z" fill="#24126A"/>
<path d="M424.512 471.018L416.075 466.013C415.284 465.486 415.547 464.959 416.338 464.433L424.776 459.427C425.567 458.901 426.885 458.901 427.412 459.427L435.85 464.433C436.641 464.959 436.377 465.486 435.586 466.013L427.149 471.018C426.358 471.282 425.039 471.282 424.512 471.018Z" fill="#24126A"/>
<path d="M437.695 478.658L429.258 473.653C428.467 473.389 428.731 472.599 429.522 472.072L437.959 467.067C438.75 466.54 440.068 466.54 440.596 467.067L449.033 472.072C449.824 472.599 449.56 473.126 448.769 473.653L440.332 478.658C439.541 478.921 438.223 478.921 437.695 478.658Z" fill="#24126A"/>
<path d="M450.879 486.297L442.441 481.292C441.65 481.029 441.914 480.238 442.705 479.711L451.142 474.706C451.933 474.179 453.252 474.179 453.779 474.706L462.216 479.711C463.007 479.975 462.744 480.765 461.953 481.292L453.515 486.297C452.724 486.561 451.406 486.561 450.879 486.297Z" fill="#24126A"/>
<path d="M464.062 493.937L455.625 488.931C454.834 488.405 455.097 487.878 455.888 487.351L464.326 482.346C465.117 481.819 466.435 481.819 466.962 482.346L475.4 487.351C476.191 487.614 475.927 488.405 475.136 488.931L466.699 493.937C465.908 494.2 464.589 494.2 464.062 493.937Z" fill="#24126A"/>
<path d="M477.245 501.313L468.808 496.307C468.017 496.044 468.281 495.254 469.072 494.727L477.509 489.722C478.3 489.195 479.618 489.195 480.146 489.722L488.583 494.727C489.374 495.254 489.11 495.781 488.319 496.307L479.882 501.313C479.091 501.839 477.773 501.839 477.245 501.313Z" fill="#24126A"/>
<path d="M500.712 515.011L481.991 504.21C481.2 503.683 481.464 503.157 482.255 502.63L490.692 497.625C491.483 497.098 492.802 497.098 493.329 497.625L512.049 508.425C512.84 508.952 512.577 509.479 511.786 510.006L503.348 515.011C502.557 515.274 501.239 515.274 500.712 515.011Z" fill="#24126A"/>
<path d="M526.287 500.259L510.467 491.302C509.676 490.775 509.94 490.249 510.731 489.722L519.168 484.717C519.959 484.19 521.278 484.19 521.805 484.717L537.625 493.673C538.416 494.2 538.152 494.727 537.361 495.254L528.924 500.259C528.133 500.522 526.815 500.522 526.287 500.259Z" fill="#24126A"/>
<path d="M394.718 439.143L386.28 434.138C385.489 433.611 385.753 433.085 386.544 432.558L394.981 427.553C395.772 427.026 397.091 427.026 397.618 427.553L406.055 432.558C406.846 432.821 406.583 433.611 405.792 434.138L397.354 439.143C396.827 439.407 395.509 439.407 394.718 439.143Z" fill="#24126A"/>
<path d="M381.271 431.241L372.833 426.235C372.042 425.709 372.306 425.182 373.097 424.655L381.534 419.65C382.325 419.123 383.644 419.123 384.171 419.65L392.608 424.655C393.399 424.918 393.136 425.709 392.345 426.235L383.907 431.241C383.116 431.767 382.062 431.767 381.271 431.241Z" fill="#24126A"/>
<path d="M367.824 423.601L359.386 418.596C358.595 418.333 358.859 417.542 359.65 417.015L368.087 412.01C368.878 411.483 370.197 411.483 370.724 412.01L379.161 417.015C379.952 417.542 379.689 418.069 378.898 418.596L370.46 423.601C369.669 423.865 368.615 423.865 367.824 423.601Z" fill="#24126A"/>
<path d="M354.377 415.698L345.939 410.693C345.148 410.166 345.412 409.639 346.203 409.113L354.64 404.107C355.431 403.581 356.75 403.581 357.277 404.107L365.714 409.113C366.505 409.376 366.242 410.166 365.451 410.693L357.013 415.698C356.222 416.225 354.904 416.225 354.377 415.698Z" fill="#24126A"/>
<path d="M407.901 446.783L399.464 441.778C398.673 441.251 398.936 440.724 399.727 440.197L408.165 435.192C408.956 434.665 410.274 434.665 410.801 435.192L419.239 440.197C420.03 440.724 419.766 441.251 418.975 441.778L410.538 446.783C410.01 447.046 408.692 447.046 407.901 446.783Z" fill="#24126A"/>
<path d="M421.084 454.422L412.647 449.417C411.856 448.89 412.12 448.363 412.911 447.837L421.348 442.831C422.139 442.305 423.457 442.305 423.985 442.831L432.422 447.837C433.213 448.363 432.949 448.89 432.158 449.417L423.721 454.422C422.93 454.686 421.875 454.686 421.084 454.422Z" fill="#24126A"/>
<path d="M434.268 461.798L425.83 456.793C425.039 456.53 425.303 455.739 426.094 455.213L434.531 450.207C435.322 449.681 436.641 449.681 437.168 450.207L445.605 455.213C446.396 455.739 446.133 456.266 445.342 456.793L436.904 461.798C436.113 462.325 435.059 462.325 434.268 461.798Z" fill="#24126A"/>
<path d="M447.451 469.438L439.014 464.433C438.223 464.169 438.486 463.379 439.277 462.852L447.715 457.847C448.506 457.32 449.824 457.32 450.351 457.847L458.789 462.852C459.58 463.115 459.316 463.906 458.525 464.433L450.088 469.438C449.297 469.965 448.242 469.965 447.451 469.438Z" fill="#24126A"/>
<path d="M460.634 477.077L452.197 472.072C451.406 471.545 451.67 471.018 452.461 470.491L460.898 465.486C461.689 464.959 463.007 464.959 463.535 465.486L471.972 470.491C472.763 470.755 472.499 471.545 471.708 472.072L463.271 477.077C462.48 477.604 461.425 477.604 460.634 477.077Z" fill="#24126A"/>
<path d="M473.818 484.717L465.38 479.711C464.589 479.448 464.853 478.658 465.644 478.131L474.081 473.126C474.872 472.599 476.191 472.599 476.718 473.126L485.155 478.131C485.946 478.658 485.683 479.185 484.892 479.711L476.454 484.717C475.663 484.98 474.609 485.243 473.818 484.717Z" fill="#24126A"/>
<path d="M487.001 492.356L478.564 487.351C477.773 487.087 478.036 486.297 478.827 485.77L487.265 480.765C488.056 480.238 489.374 480.238 489.901 480.765L498.339 485.77C499.13 486.034 498.866 486.824 498.075 487.351L489.638 492.356C488.847 492.619 487.792 492.619 487.001 492.356Z" fill="#24126A"/>
<path d="M500.184 499.995L491.747 494.99C490.956 494.463 491.22 493.937 492.011 493.41L500.448 488.405C501.239 487.878 502.557 487.878 503.085 488.405L511.522 493.41C512.313 493.673 512.049 494.463 511.258 494.99L502.821 499.995C502.03 500.259 500.975 500.259 500.184 499.995Z" fill="#24126A"/>
<path d="M513.368 507.635L504.93 502.63C504.139 502.366 504.403 501.576 505.194 501.049L513.631 496.044C514.422 495.517 515.741 495.517 516.268 496.044L524.705 501.049C525.496 501.576 525.233 502.103 524.442 502.63L516.004 507.635C515.213 507.898 514.159 507.898 513.368 507.635Z" fill="#24126A"/>
<path d="M387.862 420.44L379.425 415.435C378.634 414.908 378.898 414.381 379.689 413.854L388.126 408.849C388.917 408.322 390.235 408.322 390.763 408.849L399.2 413.854C399.991 414.381 399.727 414.908 398.936 415.435L390.499 420.44C389.708 420.703 388.653 420.703 387.862 420.44Z" fill="#24126A"/>
<path d="M374.679 412.801L366.242 407.795C365.451 407.532 365.714 406.742 366.505 406.215L374.943 401.21C375.734 400.683 377.052 400.683 377.579 401.21L386.017 406.215C386.808 406.478 386.544 407.269 385.753 407.795L377.316 412.801C376.525 413.064 375.47 413.064 374.679 412.801Z" fill="#24126A"/>
<path d="M361.759 405.161L353.322 400.156C352.531 399.893 352.795 399.102 353.586 398.575L362.023 393.57C362.814 393.043 364.132 393.043 364.66 393.57L373.097 398.575C373.888 399.102 373.624 399.629 372.833 400.156L364.396 405.161C363.605 405.425 362.287 405.688 361.759 405.161Z" fill="#24126A"/>
<path d="M348.576 397.522L340.139 392.517C339.348 391.99 339.611 391.463 340.402 390.936L348.84 385.931C349.631 385.404 350.949 385.404 351.476 385.931L359.914 390.936C360.705 391.463 360.441 391.99 359.65 392.517L351.213 397.522C350.422 398.049 349.103 398.049 348.576 397.522Z" fill="#24126A"/>
<path d="M362.023 389.882L353.586 384.877C352.795 384.35 353.058 383.823 353.849 383.297L356.75 381.716C357.541 381.189 358.859 381.189 359.386 381.716L367.824 386.721C368.615 386.985 368.351 387.775 367.56 388.302L364.66 389.882C363.869 390.146 362.814 390.146 362.023 389.882Z" fill="#24126A"/>
<path d="M379.161 399.629L370.724 394.624C369.933 394.361 370.197 393.57 370.988 393.043L373.888 391.463C374.679 390.936 375.997 390.936 376.525 391.463L384.962 396.468C385.753 396.995 385.489 397.522 384.698 398.049L381.798 399.629C381.007 400.156 379.952 400.156 379.161 399.629Z" fill="#24126A"/>
<path d="M392.081 407.269L383.644 402.263C382.853 402 383.116 401.21 383.907 400.683L386.808 399.102C387.599 398.575 388.917 398.575 389.444 399.102L397.882 404.107C398.673 404.634 398.409 405.161 397.618 405.688L394.718 407.269C394.19 407.532 392.872 407.532 392.081 407.269Z" fill="#24126A"/>
<path d="M405.264 414.908L396.827 409.903C396.036 409.376 396.3 408.849 397.091 408.322L399.991 406.742C400.782 406.215 402.1 406.215 402.628 406.742L411.065 411.747C411.856 412.01 411.592 412.801 410.801 413.327L407.901 414.908C407.11 415.171 406.055 415.171 405.264 414.908Z" fill="#24126A"/>
<path d="M418.184 422.284L409.747 417.279C408.956 416.752 409.219 416.225 410.01 415.698L412.911 414.118C413.702 413.591 415.02 413.591 415.547 414.118L423.985 419.123C424.776 419.386 424.512 420.177 423.721 420.703L420.821 422.284C420.293 422.547 418.975 422.811 418.184 422.284Z" fill="#24126A"/>
<path d="M491.22 464.433L482.782 459.427C481.991 459.164 482.255 458.374 483.046 457.847L485.946 456.266C486.737 455.739 488.056 455.739 488.583 456.266L497.02 461.271C497.811 461.798 497.548 462.325 496.757 462.852L493.856 464.433C493.065 464.696 492.011 464.696 491.22 464.433Z" fill="#24126A"/>
<path d="M504.139 471.809L495.702 466.803C494.911 466.277 495.175 465.75 495.966 465.223L498.866 463.642C499.657 463.115 500.975 463.115 501.503 463.642L509.94 468.647C510.731 469.174 510.467 469.701 509.676 470.228L506.776 471.809C506.249 472.335 504.93 472.335 504.139 471.809Z" fill="#24126A"/>
<path d="M517.323 479.448L508.885 474.443C508.094 474.179 508.358 473.389 509.149 472.862L512.049 471.282C512.84 470.755 514.159 470.755 514.686 471.282L523.123 476.287C523.914 476.814 523.651 477.341 522.86 477.867L519.959 479.448C519.168 479.711 518.114 479.711 517.323 479.448Z" fill="#24126A"/>
<path d="M530.506 487.087L522.069 482.082C521.278 481.819 521.541 481.029 522.332 480.502L525.233 478.921C526.024 478.394 527.342 478.394 527.869 478.921L536.307 483.926C537.098 484.453 536.834 484.98 536.043 485.507L533.143 487.087C532.352 487.351 531.033 487.351 530.506 487.087Z" fill="#24126A"/>
<path d="M401.046 427.816L392.608 422.811C391.817 422.284 392.081 421.757 392.872 421.23L401.309 416.225C402.1 415.698 403.419 415.698 403.946 416.225L412.383 421.23C413.174 421.757 412.911 422.284 412.12 422.811L403.682 427.816C402.891 428.343 401.837 428.343 401.046 427.816Z" fill="#24126A"/>
<path d="M414.229 435.455L405.792 430.45C405.001 430.187 405.264 429.397 406.055 428.87L414.493 423.865C415.284 423.338 416.602 423.338 417.129 423.865L425.567 428.87C426.358 429.397 426.094 429.923 425.303 430.45L416.866 435.455C416.075 435.982 415.02 435.982 414.229 435.455Z" fill="#24126A"/>
<path d="M427.412 443.095L418.975 438.09C418.184 437.826 418.448 437.036 419.239 436.509L427.676 431.504C428.467 430.977 429.785 430.977 430.313 431.504L438.75 436.509C439.541 436.773 439.277 437.563 438.486 438.09L430.049 443.095C429.258 443.358 428.203 443.622 427.412 443.095Z" fill="#24126A"/>
<path d="M440.596 450.734L432.158 445.729C431.367 445.202 431.631 444.675 432.422 444.149L440.859 439.143C441.65 438.617 442.969 438.617 443.496 439.143L451.933 444.149C452.724 444.412 452.461 445.202 451.67 445.729L443.232 450.734C442.441 450.998 441.387 450.998 440.596 450.734Z" fill="#24126A"/>
<path d="M453.779 458.374L445.342 453.369C444.551 452.842 444.814 452.315 445.605 451.788L454.043 446.783C454.834 446.256 456.152 446.256 456.679 446.783L465.117 451.788C465.908 452.315 465.644 452.842 464.853 453.369L456.416 458.374C455.625 458.637 454.57 458.637 453.779 458.374Z" fill="#24126A"/>
<path d="M466.962 466.013L458.525 461.008C457.734 460.745 457.998 459.954 458.789 459.427L467.226 454.422C468.017 453.895 469.335 453.895 469.863 454.422L478.3 459.427C479.091 459.954 478.827 460.481 478.036 461.008L469.599 466.013C468.808 466.277 467.753 466.277 466.962 466.013Z" fill="#24126A"/>
<path d="M480.146 473.653L471.708 468.647C470.917 468.121 471.181 467.594 471.972 467.067L480.409 462.062C481.2 461.535 482.519 461.535 483.046 462.062L491.483 467.067C492.274 467.33 492.011 468.121 491.22 468.647L482.782 473.653C481.991 473.916 480.937 473.916 480.146 473.653Z" fill="#24126A"/>
<path d="M493.329 481.029L484.892 476.023C484.101 475.497 484.364 474.97 485.155 474.443L493.593 469.438C494.384 468.911 495.702 468.911 496.229 469.438L504.667 474.443C505.458 474.97 505.194 475.497 504.403 476.023L495.966 481.029C495.175 481.555 494.12 481.555 493.329 481.029Z" fill="#24126A"/>
<path d="M506.512 488.668L498.075 483.663C497.284 483.136 497.548 482.609 498.339 482.082L506.776 477.077C507.567 476.55 508.885 476.55 509.413 477.077L517.85 482.082C518.641 482.609 518.377 483.136 517.586 483.663L509.149 488.668C508.358 489.195 507.04 489.195 506.512 488.668Z" fill="#24126A"/>
<path d="M325.637 428.87L300.589 414.381C299.798 413.854 300.061 413.327 300.852 412.801L309.29 407.795C310.081 407.269 311.399 407.269 311.926 407.795L336.975 422.284C337.766 422.811 337.502 423.338 336.711 423.865L328.274 428.87C327.483 429.133 326.428 429.133 325.637 428.87Z" fill="#24126A"/>
<path d="M487.528 522.123L462.48 507.635C461.689 507.108 461.953 506.581 462.744 506.054L471.181 501.049C471.972 500.522 473.29 500.522 473.818 501.049L498.866 515.538C499.657 516.065 499.393 516.591 498.602 517.118L490.165 522.123C489.374 522.65 488.319 522.65 487.528 522.123Z" fill="#24126A"/>
<path d="M434.795 508.689L426.358 503.683C425.567 503.157 425.83 502.63 426.621 502.103L436.641 496.307C437.432 495.781 438.75 495.781 439.277 496.307L447.715 501.313C448.506 501.839 448.242 502.366 447.451 502.893L437.432 508.689C436.904 508.952 435.586 508.952 434.795 508.689Z" fill="#24126A"/>
<path d="M339.084 453.369L325.373 445.466C324.582 445.202 324.846 444.412 325.637 443.885L335.656 438.09C336.447 437.563 337.766 437.563 338.293 438.09L352.004 445.993C352.795 446.519 352.531 447.046 351.74 447.573L341.721 453.369C341.193 453.895 339.875 453.895 339.084 453.369Z" fill="#24126A"/>
<path d="M422.139 501.313L408.428 493.41C407.637 492.883 407.901 492.356 408.692 491.829L418.711 486.034C419.502 485.507 420.821 485.507 421.348 486.034L435.059 493.937C435.85 494.463 435.586 494.99 434.795 495.517L424.776 501.313C423.985 501.576 422.93 501.839 422.139 501.313Z" fill="#24126A"/>
<path d="M358.332 464.433L344.621 456.53C343.83 456.266 344.094 455.476 344.885 454.949L354.904 449.154C355.695 448.627 357.013 448.627 357.541 449.154L371.251 457.057C372.042 457.583 371.779 458.11 370.988 458.637L360.968 464.433C360.177 464.696 358.859 464.696 358.332 464.433Z" fill="#24126A"/>
<path d="M357.541 449.154L416.866 483.399C417.657 483.926 417.657 484.453 416.866 484.98L406.583 490.775C405.792 491.302 404.737 491.302 403.946 490.775L344.621 456.53L357.541 449.154Z" fill="#24126A"/>
<path d="M471.708 522.387L481.2 527.919C481.728 528.182 481.728 528.709 480.937 529.236L476.718 531.607C476.191 531.87 475.136 532.134 474.609 531.607L465.117 526.075C464.589 525.811 464.589 525.285 465.38 524.758L469.599 522.387C470.126 522.123 471.181 522.123 471.708 522.387Z" fill="#24126A"/>
<path d="M458.525 514.747L468.017 520.279C468.544 520.543 468.544 521.07 467.753 521.597L463.535 523.967C463.007 524.231 461.953 524.494 461.425 523.967L451.933 518.435C451.406 518.172 451.406 517.645 452.197 517.118L456.416 514.747C456.943 514.484 457.998 514.484 458.525 514.747Z" fill="#24126A"/>
<path d="M445.342 507.108L454.834 512.64C455.361 512.903 455.361 513.43 454.57 513.957L450.351 516.328C449.824 516.591 448.769 516.855 448.242 516.328L438.75 510.796C438.223 510.533 438.223 510.006 439.014 509.479L443.232 507.108C443.76 506.845 444.814 506.845 445.342 507.108Z" fill="#24126A"/>
<path d="M465.644 510.533L475.136 516.065C475.663 516.328 475.663 516.855 474.872 517.382L470.654 519.753C470.126 520.016 469.072 520.279 468.544 519.753L459.052 514.221C458.525 513.957 458.525 513.43 459.316 512.903L463.535 510.533C464.062 510.269 465.117 510.269 465.644 510.533Z" fill="#24126A"/>
</g>
<path d="M600.114 305.585C599.587 305.585 598.796 305.322 598.005 305.058C595.895 304.005 594.841 301.37 595.104 299.263C595.368 298.209 595.895 297.419 596.686 297.155C597.741 296.629 598.796 296.892 599.85 297.419C601.96 298.473 603.014 301.107 602.751 303.214C602.487 304.268 601.96 305.058 601.169 305.322C600.905 305.585 600.641 305.585 600.114 305.585ZM598.268 297.946C598.005 297.946 597.741 297.946 597.477 298.209C596.95 298.473 596.423 298.999 596.423 299.79C595.895 301.37 596.95 303.741 598.796 304.795C599.587 305.322 600.378 305.322 601.169 305.058C601.696 304.795 602.223 304.268 602.223 303.478C602.751 301.634 601.696 299.526 599.85 298.473C599.323 297.946 598.796 297.946 598.268 297.946Z" fill="#42E8E0"/>
<path d="M610.924 311.907C610.397 311.907 609.606 311.644 608.815 311.381C606.706 310.327 605.651 307.693 605.915 305.585C606.178 304.531 606.706 303.741 607.497 303.478C608.551 302.951 609.606 303.214 610.661 303.741C612.77 304.795 613.825 307.429 613.561 309.537C613.297 310.59 612.77 311.381 611.979 311.644C611.979 311.907 611.452 311.907 610.924 311.907ZM609.079 304.005C608.815 304.005 608.551 304.005 608.288 304.268C607.76 304.531 607.233 305.058 607.233 305.849C606.706 307.429 607.76 309.8 609.606 310.854C610.397 311.381 611.188 311.381 611.979 311.117C612.506 310.854 613.034 310.327 613.034 309.537C613.297 307.956 612.243 305.585 610.661 304.531C610.133 304.268 609.606 304.005 609.079 304.005Z" fill="#42E8E0"/>
<path d="M624.371 315.859C623.844 317.703 621.998 318.493 620.153 317.439C618.307 316.386 617.252 314.015 617.516 312.171C618.043 310.327 619.889 309.537 621.735 310.59C623.58 311.381 624.635 314.015 624.371 315.859Z" fill="#42E8E0"/>
<path d="M416.075 195.999L410.274 192.574L410.538 189.94L416.338 193.365L416.075 195.999Z" fill="#42E8E0"/>
<path d="M424.512 200.741L418.711 197.579L418.975 194.945L424.776 198.106L424.512 200.741Z" fill="#42E8E0"/>
<path d="M407.637 191.257L394.981 183.881L395.245 181.247L408.165 188.359L407.637 191.257Z" fill="#42E8E0"/>
<path d="M714.018 694.669C710.327 694.669 706.899 693.879 704.262 692.298L652.056 662.267C649.42 660.687 647.838 658.579 647.838 656.209C647.838 653.838 649.42 651.73 652.056 650.15L704.262 620.119C709.799 616.958 718.5 616.958 724.037 620.119L776.243 650.15C778.88 651.73 780.462 653.838 780.462 656.209C780.462 658.579 778.88 660.687 776.243 662.267L724.037 692.298C721.137 693.879 717.709 694.669 714.018 694.669ZM704.79 691.508C710.063 694.406 718.5 694.406 723.51 691.508L775.716 661.477C778.089 660.16 779.407 658.316 779.407 656.209C779.407 654.365 778.089 652.521 775.716 650.94L723.51 621.173C718.237 618.275 709.799 618.275 704.79 621.173L652.584 651.203C650.211 652.521 648.892 654.365 648.892 656.472C648.892 658.316 650.211 660.16 652.584 661.741L704.79 691.508Z" fill="#42E8E0"/>
<path opacity="0.4" d="M781.78 644.881V626.968L778.616 625.124C777.562 630.656 771.234 634.344 765.697 635.134L728.256 656.999L711.909 662.794L659.966 635.925L661.285 635.134C656.802 633.027 654.429 628.285 652.056 624.07L648.629 626.178L646.519 626.705V644.881C646.519 647.252 648.101 649.623 651.002 651.203L703.208 681.234C709.272 684.659 719.291 684.659 725.356 681.234L777.562 651.203C780.462 649.359 782.044 647.252 782.044 644.881C781.78 644.881 781.78 644.881 781.78 644.881Z" fill="#42E8E0"/>
<path d="M781.78 628.812V616.958L778.616 615.114C777.562 620.646 771.234 624.334 765.697 625.124L728.256 646.989L711.909 652.784L659.966 625.914L661.285 625.124C656.802 623.017 654.429 618.275 652.056 614.06L648.629 616.167L646.519 616.694V628.812C646.519 631.183 648.101 633.554 651.002 635.134L703.208 665.165C709.272 668.59 719.291 668.59 725.356 665.165L777.562 635.134C780.462 633.29 782.044 631.183 782.044 628.812C781.78 629.075 781.78 629.075 781.78 628.812Z" fill="url(#paint10_linear_3_11)"/>
<path opacity="0.3" d="M765.697 625.387L728.256 647.252L714.018 652.257V668.326C717.973 668.326 721.928 667.536 725.092 665.692L777.298 635.661C780.198 633.817 781.78 631.71 781.78 629.339V629.075V617.221L778.88 615.377H778.616C777.562 620.909 770.97 624.597 765.697 625.387Z" fill="#0F054C"/>
<path d="M661.021 625.387L710.327 596.937C712.172 595.883 715.336 595.883 717.446 596.937L765.96 624.861L765.433 625.124C770.97 624.334 777.562 620.646 778.353 615.114L723.774 584.819L707.954 580.605L695.034 588.244L651.529 614.06C654.166 618.538 656.539 623.543 661.021 625.387Z" fill="url(#paint11_linear_3_11)"/>
<path opacity="0.3" d="M714.018 582.449L708.217 580.868L695.298 588.507L651.793 614.323C654.166 618.538 656.539 623.28 661.021 625.387L710.327 596.937C711.381 596.41 712.7 596.147 713.754 596.147V582.449H714.018Z" fill="#0F054C"/>
<path d="M702.944 653.574L650.738 623.543C644.674 620.119 644.674 614.323 650.738 610.635L702.944 580.605C709.008 577.18 719.028 577.18 725.092 580.605L777.298 610.635C783.362 614.06 783.362 619.855 777.298 623.28L725.092 653.311C719.028 656.999 709.008 656.999 702.944 653.574ZM717.709 585.083C715.864 584.029 712.7 584.029 710.59 585.083L658.384 615.114C656.539 616.167 656.539 618.011 658.384 619.329L710.59 649.359C712.436 650.413 715.6 650.413 717.709 649.359L769.915 619.329C771.761 618.275 771.761 616.431 769.915 615.114L717.709 585.083Z" fill="url(#paint12_linear_3_11)"/>
<path d="M769.652 615.114L717.446 585.083C715.6 584.029 712.436 584.029 710.327 585.083L658.121 615.114C656.802 615.904 656.275 616.958 656.802 618.011C657.066 617.485 657.33 616.958 658.121 616.694L710.327 586.663C712.172 585.61 715.336 585.61 717.446 586.663L769.652 616.694C770.179 616.958 770.706 617.485 770.97 618.011C771.497 616.958 770.97 615.904 769.652 615.114Z" fill="white"/>
<path d="M777.298 623.543L725.092 653.574C719.028 656.999 709.008 656.999 702.944 653.574L650.738 623.543C648.101 621.963 646.519 619.855 646.256 618.011C645.992 620.646 647.31 623.28 650.738 625.124L702.944 655.155C709.008 658.579 719.028 658.579 725.092 655.155L777.298 625.124C780.726 623.28 782.308 620.646 781.78 618.011C781.517 619.855 779.935 621.963 777.298 623.543Z" fill="white"/>
<path d="M704.526 652.784L652.32 622.753C647.047 619.592 647.047 614.85 652.32 611.689L704.526 581.658C709.799 578.497 718.5 578.497 723.774 581.658L775.98 611.689C781.253 614.85 781.253 619.592 775.98 622.753L723.774 652.784C718.237 655.682 709.799 655.682 704.526 652.784ZM719.028 584.029C716.391 582.449 711.645 582.449 709.008 584.029L656.802 614.06C654.166 615.641 654.166 618.275 656.802 619.855L709.008 649.886C711.645 651.467 716.391 651.467 719.028 649.886L771.234 619.855C773.87 618.275 773.87 615.641 771.234 614.06L719.028 584.029Z" fill="url(#paint13_linear_3_11)"/>
<path opacity="0.4" d="M717.709 585.083C715.864 584.029 712.7 584.029 710.59 585.083L658.384 615.114C656.539 616.167 656.539 618.011 658.384 619.329L710.59 649.359C712.436 650.413 715.6 650.413 717.709 649.359L769.915 619.329C771.761 618.275 771.761 616.431 769.915 615.114L717.709 585.083Z" fill="#42E8E0"/>
<path opacity="0.5" d="M771.234 616.958V431.241H656.802V616.958C656.802 617.748 657.33 618.538 658.384 619.065L710.59 649.096C712.436 650.15 715.6 650.15 717.709 649.096L769.915 619.065C770.706 618.538 771.234 617.748 771.234 616.958Z" fill="url(#paint14_linear_3_11)"/>
<path d="M183.521 314.015C179.829 314.015 176.402 313.225 173.765 311.644L121.559 281.613C118.922 280.033 117.34 277.925 117.34 275.554C117.34 273.183 118.922 271.076 121.559 269.495L173.765 239.465C179.302 236.303 188.003 236.303 193.54 239.465L245.746 269.495C248.383 271.076 249.965 273.183 249.965 275.554C249.965 277.925 248.383 280.033 245.746 281.613L193.54 311.644C190.64 313.225 187.212 314.015 183.521 314.015ZM174.292 310.854C179.566 313.751 187.739 313.751 193.013 310.854L245.219 280.823C247.592 279.506 248.91 277.662 248.91 275.554C248.91 273.71 247.592 271.866 245.219 270.286L193.013 240.255C187.739 237.357 179.566 237.357 174.292 240.255L122.086 270.286C119.713 271.603 118.395 273.447 118.395 275.554C118.395 277.398 119.713 279.242 122.086 280.823L174.292 310.854Z" fill="#42E8E0"/>
<path opacity="0.4" d="M251.283 264.227V246.314L248.119 244.47C247.064 250.002 240.736 253.69 235.199 254.48L197.759 276.345L181.411 282.14L129.469 255.27L130.787 254.48C126.305 252.373 123.932 247.631 121.559 243.416L118.131 245.523L116.022 246.05V264.227C116.022 266.598 117.604 268.969 120.504 270.549L172.71 300.58C178.775 304.005 188.794 304.005 194.858 300.58L247.064 270.549C249.965 268.705 251.547 266.598 251.547 264.227C251.283 264.49 251.283 264.227 251.283 264.227Z" fill="#42E8E0"/>
<path d="M251.283 248.421V236.567L248.119 234.723C247.064 240.255 240.736 243.943 235.199 244.733L197.759 266.598L181.411 272.393L129.469 245.523L130.787 244.733C126.305 242.626 123.932 237.884 121.559 233.669L118.131 235.777L116.022 236.303V248.421C116.022 250.792 117.604 253.163 120.504 254.743L172.71 284.774C178.775 288.199 188.794 288.199 194.858 284.774L247.064 254.743C249.965 252.899 251.547 250.792 251.547 248.421C251.283 248.421 251.283 248.421 251.283 248.421Z" fill="url(#paint15_linear_3_11)"/>
<path opacity="0.3" d="M235.199 244.733L197.759 266.598L183.521 271.603V287.672C187.476 287.672 191.431 286.882 194.595 285.038L246.801 255.007C249.701 253.163 251.283 251.055 251.283 248.685V248.421V236.567L248.383 234.986H248.119C247.064 240.255 240.473 243.943 235.199 244.733Z" fill="#0F054C"/>
<path d="M172.447 272.92L120.241 242.889C114.176 239.465 114.176 233.669 120.241 229.981L172.447 199.95C178.511 196.526 188.53 196.526 194.595 199.95L246.801 229.981C252.865 233.406 252.865 239.201 246.801 242.626L194.595 272.92C188.53 276.608 178.511 276.608 172.447 272.92Z" fill="url(#paint16_linear_3_11)"/>
<path d="M246.801 242.889L194.595 272.92C188.53 276.345 178.511 276.345 172.447 272.92L120.241 242.889C117.604 241.309 116.022 239.201 115.758 237.357C115.495 239.991 116.813 242.626 120.241 244.47L172.447 274.501C178.511 277.925 188.53 277.925 194.595 274.501L246.801 244.47C250.228 242.626 251.81 239.991 251.283 237.357C251.019 239.201 249.437 241.309 246.801 242.889Z" fill="white"/>
<path d="M68.0347 610.899C64.3433 610.899 60.9157 610.109 58.279 608.528L6.07298 578.497C3.43632 576.917 1.85434 574.809 1.85434 572.438C1.85434 570.067 3.43632 567.96 6.07298 566.379L58.279 536.349C63.816 533.187 72.517 533.187 78.054 536.349L130.26 566.379C132.897 567.96 134.479 570.067 134.479 572.438C134.479 574.809 132.897 576.917 130.26 578.497L78.054 608.528C75.1537 610.109 71.726 610.899 68.0347 610.899ZM58.8063 607.738C64.0797 610.635 72.2533 610.635 77.5267 607.738L129.733 577.707C132.106 576.39 133.424 574.546 133.424 572.438C133.424 570.594 132.106 568.75 129.733 567.17L77.5267 537.402C72.2533 534.505 63.816 534.505 58.8063 537.402L6.60035 567.433C4.22735 568.75 2.90899 570.594 2.90899 572.702C2.90899 574.546 4.22735 576.39 6.60035 577.97L58.8063 607.738Z" fill="#42E8E0"/>
<path opacity="0.4" d="M136.061 561.111V543.198L132.897 541.354C131.842 546.886 125.514 550.574 119.977 551.364L82.5363 573.229L66.189 579.024L13.983 552.154L15.3013 551.364C10.819 549.257 8.44599 544.515 6.07299 540.3L2.64535 542.407L0.536011 542.934V561.111C0.536011 563.482 2.118 565.853 5.01834 567.433L57.2243 597.464C63.2887 600.889 73.308 600.889 79.3723 597.464L131.578 567.433C134.479 565.589 136.061 563.482 136.061 561.111Z" fill="#42E8E0"/>
<path d="M136.061 545.042V533.187L132.897 531.343C131.842 536.875 125.514 540.563 119.977 541.354L82.5363 563.218L66.189 569.014L14.2467 542.144L15.565 541.354C11.0827 539.246 8.70967 534.505 6.33667 530.29L2.90899 532.397L0.799652 532.924V545.042C0.799652 547.413 2.38168 549.783 5.28202 551.364L57.488 581.395C63.5523 584.819 73.5717 584.819 79.636 581.395L131.842 551.364C134.742 549.52 136.324 547.413 136.324 545.042C136.061 545.305 136.061 545.305 136.061 545.042Z" fill="url(#paint17_linear_3_11)"/>
<path opacity="0.3" d="M119.713 541.617L82.2727 563.482L68.0347 568.487V584.556C71.9897 584.556 75.9447 583.766 79.1087 581.922L131.315 551.891C134.215 550.047 135.797 547.939 135.797 545.569V545.305V533.451L132.897 531.87H132.633C131.578 537.139 125.25 540.827 119.713 541.617Z" fill="#0F054C"/>
<path d="M56.9606 569.804L4.75461 539.773C-1.30972 536.349 -1.30972 530.553 4.75461 526.865L56.9606 496.834C63.025 493.41 73.0443 493.41 79.1086 496.834L131.315 526.865C137.379 530.29 137.379 536.085 131.315 539.51L79.1086 569.541C73.0443 573.229 63.2886 573.229 56.9606 569.804Z" fill="url(#paint18_linear_3_11)"/>
<path d="M68.0346 564.272C64.8706 564.272 61.7067 563.482 59.07 562.165L18.2017 538.719C15.8287 537.402 14.5103 535.295 14.5103 533.451C14.5103 531.343 15.8287 529.499 18.2017 528.182L59.07 504.737C64.0797 501.839 71.9897 501.839 76.7357 504.737L117.604 528.182C119.977 529.499 121.295 531.607 121.295 533.451C121.295 535.558 119.977 537.402 117.604 538.719L76.7357 562.165C74.6263 563.745 71.4623 564.272 68.0346 564.272ZM68.0346 503.157C64.8706 503.157 61.9703 503.947 59.5973 505.264L18.729 528.709C16.6197 530.026 15.3013 531.607 15.3013 533.187C15.3013 535.031 16.6197 536.612 18.729 537.666L59.5973 561.111C64.3433 563.745 71.726 563.745 76.472 561.111L117.34 537.666C119.45 536.349 120.768 534.768 120.768 533.187C120.768 531.343 119.45 529.763 117.34 528.709L76.472 505.264C74.3627 503.947 71.1986 503.157 68.0346 503.157Z" fill="#5351AF"/>
<path d="M131.315 539.773L79.1087 569.804C73.0443 573.229 63.025 573.229 56.9606 569.804L4.75464 539.773C2.11797 538.193 0.535981 536.085 0.272314 534.241C0.00864736 536.875 1.32697 539.51 4.75464 541.354L56.9606 571.385C63.025 574.809 73.0443 574.809 79.1087 571.385L131.315 541.354C134.742 539.51 136.324 536.875 135.797 534.241C135.533 536.085 134.215 538.193 131.315 539.773Z" fill="white"/>
<path d="M523.123 353.529C521.805 353.529 520.487 353.266 519.168 352.475L446.396 310.59C441.914 307.956 439.541 301.897 440.859 296.892C441.65 294.258 442.969 292.414 445.078 291.623C447.187 290.833 449.297 291.097 451.67 292.15L524.442 334.035C528.924 336.67 531.297 342.729 529.979 347.734C529.188 350.368 527.869 352.212 525.76 353.002C524.705 353.529 523.914 353.529 523.123 353.529ZM447.715 291.887C446.924 291.887 446.133 292.15 445.605 292.414C443.76 293.204 442.441 294.785 441.914 296.892C440.596 301.634 442.969 307.166 446.924 309.537L519.696 351.422C521.541 352.475 523.651 352.739 525.496 351.949C527.342 351.158 528.66 349.578 529.188 347.207C530.506 342.465 528.133 336.933 524.178 334.562L451.406 292.677C450.088 292.414 448.769 291.887 447.715 291.887Z" fill="#42E8E0"/>
<path d="M513.368 768.693C508.885 768.693 504.667 767.639 501.239 765.795L291.624 644.881C288.196 643.037 286.614 640.403 286.614 637.769C286.614 635.134 288.46 632.5 291.624 630.656L335.92 605.103L336.447 605.894L292.151 631.446C289.251 633.29 287.405 635.398 287.405 637.769C287.405 640.139 288.987 642.51 292.151 644.091L501.766 765.004C508.094 768.692 518.641 768.692 524.969 765.004L678.423 676.756L678.95 677.546L525.496 765.795C522.069 767.902 517.85 768.693 513.368 768.693Z" fill="#42E8E0"/>
<path d="M87.2823 372.759C83.0636 372.759 78.845 371.969 75.681 370.125L23.475 340.094C20.311 338.25 18.4653 335.616 18.4653 332.982C18.4653 330.347 20.311 327.713 23.475 325.869L75.681 295.838C82.009 292.15 92.292 292.15 98.8837 295.838L151.09 325.869C154.254 327.713 156.099 330.347 156.099 332.982C156.099 335.616 154.254 338.25 151.09 340.094L98.62 370.125C95.456 371.969 91.501 372.759 87.2823 372.759ZM76.472 368.545C82.2727 371.969 91.7646 371.969 97.829 368.545L150.035 338.514C152.672 336.933 154.254 335.089 154.254 332.982C154.254 330.874 152.672 329.03 150.035 327.45L97.829 297.419C92.0283 293.994 82.5363 293.994 76.472 297.419L24.266 327.45C21.6293 329.03 20.0473 330.874 20.0473 332.982C20.0473 335.089 21.6293 336.933 24.266 338.514L76.472 368.545Z" fill="#0F054C"/>
<path d="M259.72 734.184C255.502 734.184 251.283 733.393 248.119 731.549L196.177 701.518C193.013 699.674 191.167 697.04 191.167 694.406C191.167 691.771 193.013 689.137 196.177 687.293L248.383 657.262C254.711 653.574 264.994 653.574 271.585 657.262L323.791 687.293C326.955 689.137 328.801 691.771 328.801 694.406C328.801 697.04 326.955 699.674 323.791 701.518L271.585 731.549C268.158 733.393 263.939 734.184 259.72 734.184ZM259.72 655.945C255.765 655.945 252.074 656.735 249.174 658.579L196.968 688.61C194.331 690.191 192.749 692.035 192.749 694.142C192.749 696.25 194.331 698.094 196.968 699.674L249.174 729.705C254.974 733.13 264.466 733.13 270.531 729.705L322.737 699.674C325.373 698.094 326.955 696.25 326.955 694.142C326.955 692.035 325.373 690.191 322.737 688.61L270.531 658.579C267.63 656.999 263.675 655.945 259.72 655.945Z" fill="#03002D"/>
<path d="M179.566 635.398C176.929 635.398 174.556 634.871 172.183 633.554L102.839 593.513L103.366 592.722L172.447 632.763C176.665 635.134 181.939 635.134 186.157 632.763L285.032 575.599L285.56 576.39L186.685 633.554C184.575 634.871 182.202 635.398 179.566 635.398Z" fill="#42E8E0"/>
<path opacity="0.4" d="M769.915 206.536C774.721 206.536 778.616 202.644 778.616 197.843C778.616 193.042 774.721 189.15 769.915 189.15C765.11 189.15 761.214 193.042 761.214 197.843C761.214 202.644 765.11 206.536 769.915 206.536Z" fill="#42E8E0"/>
<path opacity="0.4" d="M769.915 201.531C771.954 201.531 773.607 199.88 773.607 197.843C773.607 195.806 771.954 194.155 769.915 194.155C767.877 194.155 766.224 195.806 766.224 197.843C766.224 199.88 767.877 201.531 769.915 201.531Z" fill="#42E8E0"/>
<path opacity="0.4" d="M637.555 54.0109C642.36 54.0109 646.256 50.1188 646.256 45.3177C646.256 40.5166 642.36 36.6246 637.555 36.6246C632.749 36.6246 628.854 40.5166 628.854 45.3177C628.854 50.1188 632.749 54.0109 637.555 54.0109Z" fill="#42E8E0"/>
<path opacity="0.4" d="M637.555 49.0057C639.593 49.0057 641.246 47.3546 641.246 45.3177C641.246 43.2809 639.593 41.6297 637.555 41.6297C635.516 41.6297 633.863 43.2809 633.863 45.3177C633.863 47.3546 635.516 49.0057 637.555 49.0057Z" fill="#42E8E0"/>
<path opacity="0.4" d="M885.665 237.094C890.47 237.094 894.366 233.202 894.366 228.401C894.366 223.599 890.47 219.707 885.665 219.707C880.86 219.707 876.964 223.599 876.964 228.401C876.964 233.202 880.86 237.094 885.665 237.094Z" fill="#42E8E0"/>
<path opacity="0.4" d="M885.665 232.089C887.704 232.089 889.356 230.437 889.356 228.401C889.356 226.364 887.704 224.713 885.665 224.713C883.626 224.713 881.974 226.364 881.974 228.401C881.974 230.437 883.626 232.089 885.665 232.089Z" fill="#42E8E0"/>
</g>
<defs>
<linearGradient id="paint0_linear_3_11" x1="603.465" y1="522.071" x2="160.16" y2="522.071" gradientUnits="userSpaceOnUse">
<stop stop-color="#5761D7"/>
<stop offset="0.1779" stop-color="#5C66D9"/>
<stop offset="0.3876" stop-color="#6A73DF"/>
<stop offset="0.6134" stop-color="#8289E8"/>
<stop offset="0.849" stop-color="#A3A7F5"/>
<stop offset="1" stop-color="#BCBEFF"/>
</linearGradient>
<linearGradient id="paint1_linear_3_11" x1="462.822" y1="511.761" x2="19.5176" y2="511.761" gradientUnits="userSpaceOnUse">
<stop stop-color="#C0BFF6"/>
<stop offset="0.2938" stop-color="#C5C4F7"/>
<stop offset="0.6399" stop-color="#D3D2F9"/>
<stop offset="1" stop-color="#E9E9FD"/>
</linearGradient>
<linearGradient id="paint2_linear_3_11" x1="454.677" y1="228.351" x2="952.774" y2="228.351" gradientUnits="userSpaceOnUse">
<stop stop-color="#42E8E0"/>
<stop offset="0.1055" stop-color="#37B6BF"/>
<stop offset="0.2197" stop-color="#2C87A1"/>
<stop offset="0.338" stop-color="#235F87"/>
<stop offset="0.4587" stop-color="#1C3F72"/>
<stop offset="0.5824" stop-color="#162561"/>
<stop offset="0.7105" stop-color="#121355"/>
<stop offset="0.8458" stop-color="#10084E"/>
<stop offset="1" stop-color="#0F054C"/>
</linearGradient>
<linearGradient id="paint3_linear_3_11" x1="421.732" y1="246.791" x2="919.828" y2="246.791" gradientUnits="userSpaceOnUse">
<stop stop-color="#42E8E0"/>
<stop offset="0.1055" stop-color="#37B6BF"/>
<stop offset="0.2197" stop-color="#2C87A1"/>
<stop offset="0.338" stop-color="#235F87"/>
<stop offset="0.4587" stop-color="#1C3F72"/>
<stop offset="0.5824" stop-color="#162561"/>
<stop offset="0.7105" stop-color="#121355"/>
<stop offset="0.8458" stop-color="#10084E"/>
<stop offset="1" stop-color="#0F054C"/>
</linearGradient>
<linearGradient id="paint4_linear_3_11" x1="653.725" y1="317.476" x2="340.01" y2="317.476" gradientUnits="userSpaceOnUse">
<stop stop-color="#C0BFF6"/>
<stop offset="0.2938" stop-color="#C5C4F7"/>
<stop offset="0.6399" stop-color="#D3D2F9"/>
<stop offset="1" stop-color="#E9E9FD"/>
</linearGradient>
<linearGradient id="paint5_linear_3_11" x1="653.723" y1="397.857" x2="599.855" y2="397.857" gradientUnits="userSpaceOnUse">
<stop stop-color="#5761D7"/>
<stop offset="0.1779" stop-color="#5C66D9"/>
<stop offset="0.3876" stop-color="#6A73DF"/>
<stop offset="0.6134" stop-color="#8289E8"/>
<stop offset="0.849" stop-color="#A3A7F5"/>
<stop offset="1" stop-color="#BCBEFF"/>
</linearGradient>
<linearGradient id="paint6_linear_3_11" x1="611.695" y1="485.559" x2="168.626" y2="485.559" gradientUnits="userSpaceOnUse">
<stop stop-color="#5761D7"/>
<stop offset="0.1779" stop-color="#5C66D9"/>
<stop offset="0.3876" stop-color="#6A73DF"/>
<stop offset="0.6134" stop-color="#8289E8"/>
<stop offset="0.849" stop-color="#A3A7F5"/>
<stop offset="1" stop-color="#BCBEFF"/>
</linearGradient>
<linearGradient id="paint7_linear_3_11" x1="462.822" y1="473.455" x2="19.5176" y2="473.455" gradientUnits="userSpaceOnUse">
<stop stop-color="#C0BFF6"/>
<stop offset="0.2938" stop-color="#C5C4F7"/>
<stop offset="0.6399" stop-color="#D3D2F9"/>
<stop offset="1" stop-color="#E9E9FD"/>
</linearGradient>
<linearGradient id="paint8_linear_3_11" x1="782.069" y1="388.136" x2="339" y2="388.136" gradientUnits="userSpaceOnUse">
<stop stop-color="#5761D7"/>
<stop offset="0.1779" stop-color="#5C66D9"/>
<stop offset="0.3876" stop-color="#6A73DF"/>
<stop offset="0.6134" stop-color="#8289E8"/>
<stop offset="0.849" stop-color="#A3A7F5"/>
<stop offset="1" stop-color="#BCBEFF"/>
</linearGradient>
<linearGradient id="paint9_linear_3_11" x1="633.196" y1="376.033" x2="189.891" y2="376.033" gradientUnits="userSpaceOnUse">
<stop stop-color="#C0BFF6"/>
<stop offset="0.2938" stop-color="#C5C4F7"/>
<stop offset="0.6399" stop-color="#D3D2F9"/>
<stop offset="1" stop-color="#E9E9FD"/>
</linearGradient>
<linearGradient id="paint10_linear_3_11" x1="659.737" y1="593.656" x2="767.29" y2="655.808" gradientUnits="userSpaceOnUse">
<stop stop-color="#BCBEFF"/>
<stop offset="0.2271" stop-color="#AAADF8"/>
<stop offset="0.6802" stop-color="#7C83E5"/>
<stop offset="1" stop-color="#5761D7"/>
</linearGradient>
<linearGradient id="paint11_linear_3_11" x1="666.195" y1="589.476" x2="762.111" y2="644.903" gradientUnits="userSpaceOnUse">
<stop offset="0.2421" stop-color="#5761D7"/>
<stop offset="0.3923" stop-color="#7A82E5"/>
<stop offset="0.5463" stop-color="#979CF0"/>
<stop offset="0.7" stop-color="#ACAFF8"/>
<stop offset="0.8519" stop-color="#B8BAFD"/>
<stop offset="1" stop-color="#BCBEFF"/>
</linearGradient>
<linearGradient id="paint12_linear_3_11" x1="646.245" y1="617.117" x2="781.864" y2="617.117" gradientUnits="userSpaceOnUse">
<stop stop-color="#E9E9FD"/>
<stop offset="0.3601" stop-color="#D3D2F9"/>
<stop offset="0.7062" stop-color="#C5C4F7"/>
<stop offset="1" stop-color="#C0BFF6"/>
</linearGradient>
<linearGradient id="paint13_linear_3_11" x1="648.327" y1="617.117" x2="779.781" y2="617.117" gradientUnits="userSpaceOnUse">
<stop stop-color="#E9E9FD"/>
<stop offset="0.3601" stop-color="#D3D2F9"/>
<stop offset="0.7062" stop-color="#C5C4F7"/>
<stop offset="1" stop-color="#C0BFF6"/>
</linearGradient>
<linearGradient id="paint14_linear_3_11" x1="714.051" y1="650.093" x2="714.051" y2="431.231" gradientUnits="userSpaceOnUse">
<stop stop-color="#42E8E0"/>
<stop offset="0.1055" stop-color="#37B6BF"/>
<stop offset="0.2197" stop-color="#2C87A1"/>
<stop offset="0.338" stop-color="#235F87"/>
<stop offset="0.4587" stop-color="#1C3F72"/>
<stop offset="0.5824" stop-color="#162561"/>
<stop offset="0.7105" stop-color="#121355"/>
<stop offset="0.8458" stop-color="#10084E" stop-opacity="0.2"/>
<stop offset="1" stop-color="#0F054C" stop-opacity="0"/>
</linearGradient>
<linearGradient id="paint15_linear_3_11" x1="129.22" y1="213.048" x2="236.773" y2="275.2" gradientUnits="userSpaceOnUse">
<stop stop-color="#BCBEFF"/>
<stop offset="0.2271" stop-color="#AAADF8"/>
<stop offset="0.6802" stop-color="#7C83E5"/>
<stop offset="1" stop-color="#5761D7"/>
</linearGradient>
<linearGradient id="paint16_linear_3_11" x1="115.728" y1="236.51" x2="251.347" y2="236.51" gradientUnits="userSpaceOnUse">
<stop stop-color="#E9E9FD"/>
<stop offset="0.3601" stop-color="#D3D2F9"/>
<stop offset="0.7062" stop-color="#C5C4F7"/>
<stop offset="1" stop-color="#C0BFF6"/>
</linearGradient>
<linearGradient id="paint17_linear_3_11" x1="13.843" y1="509.861" x2="121.396" y2="572.013" gradientUnits="userSpaceOnUse">
<stop stop-color="#BCBEFF"/>
<stop offset="0.2271" stop-color="#AAADF8"/>
<stop offset="0.6802" stop-color="#7C83E5"/>
<stop offset="1" stop-color="#5761D7"/>
</linearGradient>
<linearGradient id="paint18_linear_3_11" x1="0.350849" y1="533.322" x2="135.969" y2="533.322" gradientUnits="userSpaceOnUse">
<stop stop-color="#E9E9FD"/>
<stop offset="0.3601" stop-color="#D3D2F9"/>
<stop offset="0.7062" stop-color="#C5C4F7"/>
<stop offset="1" stop-color="#C0BFF6"/>
</linearGradient>
<clipPath id="clip0_3_11">
<rect width="982" height="769" fill="white"/>
</clipPath>
</defs>
</svg>
