<svg width="305" height="291" viewBox="0 0 305 291" fill="none" xmlns="http://www.w3.org/2000/svg">
<path opacity="0.6" d="M23.5591 194.133L23.5571 194.132C22.65 193.613 22.3698 192.978 22.4459 192.403C22.5276 191.785 23.0423 191.04 24.1478 190.395C24.148 190.395 24.1483 190.395 24.1486 190.395L114.934 137.999L114.936 137.998C116.03 137.36 117.442 136.986 118.831 136.927C120.226 136.869 121.536 137.13 122.452 137.698L122.459 137.702L122.465 137.705L263.887 219.385L263.889 219.386C264.796 219.905 265.076 220.54 265 221.115C264.918 221.733 264.403 222.478 263.297 223.123L172.523 275.512C172.521 275.513 172.519 275.514 172.517 275.515C171.421 276.107 170.007 276.459 168.615 276.517C167.215 276.576 165.898 276.337 164.979 275.812C164.979 275.811 164.979 275.811 164.979 275.811L23.5591 194.133Z" fill="#020230" stroke="white"/>
<path d="M163.807 289.427L163.805 289.426L2.31874 196.295C2.31677 196.294 2.3148 196.292 2.31283 196.291C1.13281 195.563 0.5 194.625 0.5 193.587C0.5 192.456 1.32218 191.128 2.98507 190.204L2.98513 190.204L2.99485 190.199L113.075 125.757C113.075 125.757 113.075 125.757 113.075 125.757C114.514 124.921 116.293 124.45 118.035 124.379C119.78 124.309 121.44 124.642 122.656 125.363L122.661 125.366L284.05 218.595C284.052 218.596 284.054 218.597 284.055 218.598C285.236 219.326 285.869 220.264 285.869 221.303C285.869 222.434 285.046 223.762 283.383 224.685L283.374 224.691L173.3 289.129C173.298 289.13 173.297 289.131 173.296 289.132C171.814 289.964 169.846 290.436 167.962 290.436C166.37 290.436 164.893 290.06 163.807 289.427ZM113.457 126.555L113.453 126.558L3.37175 191C2.14479 191.716 1.36082 192.631 1.36082 193.685C1.36082 194.671 2.18598 195.285 2.79852 195.594L164.187 288.823L164.189 288.824C165.329 289.476 166.904 289.724 168.464 289.648C170.031 289.572 171.656 289.165 172.915 288.43L172.916 288.43L282.997 223.987C284.224 223.272 285.008 222.357 285.008 221.303C285.008 220.316 284.182 219.703 283.57 219.394L122.195 126.172C121.189 125.508 119.799 125.314 118.504 125.314C116.77 125.314 114.918 125.72 113.457 126.555Z" fill="url(#paint0_linear_19_4108)" stroke="white"/>
<path d="M301.499 82.3733L301.495 82.3711L160.563 0.985175L160.556 0.980994L160.556 0.980934C159.69 0.461409 158.862 0.391258 158.131 0.634778L157.199 0.945372L157.208 0.947238L156.564 1.5913C156.251 1.90389 155.989 2.40628 155.805 2.95739L123.977 106.471L123.977 106.471C123.622 107.625 123.706 108.932 124.139 110.106C124.573 111.28 125.339 112.279 126.297 112.846C126.298 112.847 126.299 112.847 126.3 112.848L267.227 194.231L267.241 194.239L267.254 194.248C267.462 194.386 267.76 194.467 268.176 194.571L268.78 194.722L268.668 194.946L269.933 194.49C270.761 194.156 271.533 193.4 271.883 192.176L271.886 192.166L303.813 88.7446L301.499 82.3733ZM301.499 82.3733C303.522 83.5169 304.536 86.3939 303.813 88.7441L301.499 82.3733Z" fill="url(#paint1_radial_19_4108)" stroke="white"/>
<path d="M261.732 198.916L261.906 199.016L262.1 198.969L264.95 198.276L264.238 201.602C264.084 202.201 263.528 202.888 262.506 203.54L172.419 255.536C172.418 255.537 172.417 255.537 172.417 255.538C171.273 256.177 169.861 256.528 168.484 256.575C167.102 256.621 165.806 256.361 164.881 255.832C164.881 255.832 164.881 255.832 164.881 255.832L24.4408 174.643L24.4277 174.636L24.4142 174.629C23.7506 174.297 23.3803 173.735 23.3126 173.329L23.3109 173.319L23.3088 173.309L22.616 169.999L24.7935 170.842L25.0167 170.928L25.224 170.808L115.125 118.905C115.126 118.904 115.127 118.904 115.128 118.903C116.271 118.263 117.683 117.913 119.06 117.866C120.441 117.82 121.737 118.08 122.662 118.608C122.663 118.608 122.663 118.609 122.663 118.609L261.732 198.916Z" fill="url(#paint2_radial_19_4108)" stroke="white"/>
<path d="M23.5591 170.53L23.5571 170.529C22.65 170.011 22.3698 169.375 22.4459 168.801C22.5276 168.183 23.0423 167.438 24.1478 166.792C24.148 166.792 24.1483 166.792 24.1486 166.792L114.934 114.397L114.936 114.396C116.03 113.757 117.442 113.383 118.831 113.325C120.226 113.266 121.536 113.528 122.452 114.095L122.459 114.099L122.465 114.103L263.887 195.782L263.889 195.784C264.796 196.302 265.076 196.937 265 197.512C264.918 198.13 264.403 198.875 263.297 199.521L172.523 251.909C172.521 251.91 172.519 251.911 172.517 251.912C171.421 252.505 170.007 252.856 168.615 252.915C167.215 252.973 165.898 252.734 164.979 252.209C164.979 252.209 164.979 252.209 164.979 252.209L23.5591 170.53Z" fill="url(#paint3_radial_19_4108)" stroke="white"/>
<path d="M168.619 252.853C167.666 252.885 166.749 252.773 165.969 252.532C166.81 252.764 167.735 252.85 168.657 252.812C169.686 252.768 170.739 252.568 171.701 252.216C170.765 252.602 169.687 252.817 168.619 252.853Z" fill="white" stroke="white"/>
<g opacity="0.4">
<path d="M91.0207 157.298L86.2951 154.598C86.3136 154.579 86.3366 154.557 86.3646 154.535L92.0145 151.32L92.0146 151.32L92.0245 151.314C92.3684 151.108 92.7678 151.118 93.0021 151.23L97.729 153.931C97.7105 153.95 97.6876 153.972 97.6595 153.994L92.0227 157.201C91.8909 157.265 91.6891 157.322 91.4771 157.341C91.259 157.361 91.1009 157.335 91.0207 157.298Z" fill="#06033E" stroke="white"/>
<path d="M98.367 161.511L93.6404 158.81C93.6589 158.79 93.6819 158.769 93.71 158.746L99.3598 155.532L99.3599 155.532L99.3698 155.526C99.7137 155.32 100.113 155.33 100.347 155.441L105.074 158.142C105.056 158.162 105.033 158.183 105.005 158.206L99.355 161.42L99.3275 161.436L99.3022 161.455C99.2116 161.523 99.0505 161.579 98.845 161.588C98.647 161.597 98.4716 161.56 98.367 161.511Z" fill="#06033E" stroke="white"/>
<path d="M105.778 165.764L105.754 165.745L105.727 165.73L100.986 163.021C101.004 163.001 101.027 162.98 101.055 162.957L106.705 159.743L106.705 159.743L106.715 159.737C107.059 159.531 107.458 159.541 107.693 159.652L112.42 162.353C112.401 162.373 112.378 162.394 112.35 162.417L106.7 165.631L106.673 165.647L106.647 165.666C106.535 165.751 106.356 165.82 106.168 165.837C105.975 165.855 105.844 165.813 105.778 165.764Z" fill="#06033E" stroke="white"/>
<path d="M116.039 162.32L116.025 162.311L116.01 162.302L111.269 159.593C111.288 159.573 111.312 159.551 111.341 159.528L116.014 156.802L116.014 156.802L116.019 156.799C116.363 156.593 116.762 156.603 116.997 156.714L121.724 159.415C121.705 159.435 121.681 159.457 121.652 159.48L116.979 162.206L116.979 162.206L116.974 162.209C116.812 162.306 116.602 162.362 116.4 162.371C116.301 162.376 116.214 162.369 116.146 162.355C116.112 162.348 116.086 162.34 116.067 162.333C116.057 162.329 116.051 162.326 116.046 162.324C116.041 162.321 116.039 162.32 116.039 162.32Z" fill="#06033E" stroke="white"/>
<path d="M123.341 166.505L118.614 163.804C118.633 163.785 118.657 163.763 118.686 163.74L123.359 161.014L123.359 161.014L123.364 161.01C123.708 160.804 124.108 160.814 124.342 160.926L129.069 163.627C129.05 163.647 129.026 163.669 128.998 163.692L124.324 166.418L124.299 166.432L124.276 166.45C124.186 166.518 124.024 166.573 123.819 166.583C123.621 166.592 123.446 166.554 123.341 166.505Z" fill="#06033E" stroke="white"/>
<path d="M130.685 170.814L125.96 168.114C125.979 168.094 126.002 168.072 126.031 168.049L130.704 165.323L130.704 165.323L130.71 165.32C131.054 165.113 131.453 165.124 131.687 165.235L136.414 167.936C136.395 167.956 136.372 167.978 136.343 168.001L131.685 170.718C131.553 170.781 131.353 170.838 131.142 170.857C130.924 170.877 130.765 170.85 130.685 170.814Z" fill="#06033E" stroke="white"/>
<path d="M138.032 175.026L133.305 172.325C133.324 172.305 133.347 172.283 133.376 172.26L138.05 169.534L138.05 169.534L138.055 169.531C138.399 169.324 138.798 169.334 139.033 169.446L143.759 172.147C143.741 172.167 143.717 172.189 143.688 172.212L139.015 174.938L138.99 174.953L138.967 174.97C138.876 175.038 138.715 175.094 138.51 175.103C138.312 175.112 138.136 175.075 138.032 175.026Z" fill="#06033E" stroke="white"/>
<path d="M145.541 179.279L145.516 179.261L145.489 179.245L140.748 176.536C140.767 176.516 140.791 176.495 140.82 176.472L145.493 173.745L145.493 173.745L145.498 173.742C145.842 173.536 146.242 173.546 146.476 173.658L151.203 176.359C151.184 176.379 151.16 176.401 151.131 176.424L146.458 179.15L146.433 179.164L146.41 179.182C146.297 179.266 146.119 179.336 145.93 179.353C145.738 179.37 145.606 179.328 145.541 179.279Z" fill="#06033E" stroke="white"/>
<path d="M152.82 183.546L148.094 180.845C148.112 180.826 148.136 180.804 148.165 180.781L152.838 178.055L152.838 178.055L152.844 178.051C153.187 177.845 153.587 177.855 153.821 177.967L158.548 180.668C158.529 180.688 158.506 180.71 158.477 180.733L153.803 183.459L153.778 183.473L153.755 183.491C153.665 183.559 153.504 183.614 153.298 183.624C153.1 183.633 152.925 183.595 152.82 183.546Z" fill="#06033E" stroke="white"/>
<path d="M160.232 187.8L160.207 187.781L160.18 187.766L155.439 185.057C155.458 185.037 155.481 185.015 155.51 184.992L160.183 182.266L160.183 182.266L160.189 182.263C160.533 182.056 160.932 182.066 161.166 182.178L165.893 184.879C165.874 184.899 165.851 184.921 165.822 184.944L161.149 187.67L161.124 187.684L161.101 187.702C160.988 187.786 160.809 187.856 160.621 187.873C160.428 187.891 160.297 187.849 160.232 187.8Z" fill="#06033E" stroke="white"/>
<path d="M167.609 192.067L162.882 189.366C162.901 189.346 162.925 189.324 162.953 189.301L167.627 186.575L167.627 186.575L167.632 186.572C167.976 186.365 168.375 186.375 168.61 186.487L173.337 189.188C173.318 189.208 173.294 189.23 173.265 189.253L168.592 191.979L168.592 191.979L168.587 191.982C168.243 192.188 167.843 192.178 167.609 192.067Z" fill="#06033E" stroke="white"/>
<path d="M175.02 196.32L174.995 196.302L174.968 196.286L170.227 193.577C170.246 193.557 170.27 193.536 170.299 193.513L174.972 190.786L174.972 190.786L174.977 190.783C175.321 190.577 175.721 190.587 175.955 190.699L180.682 193.4C180.663 193.42 180.639 193.442 180.61 193.465L175.937 196.191L175.912 196.205L175.889 196.223C175.776 196.307 175.598 196.377 175.409 196.394C175.217 196.411 175.085 196.369 175.02 196.32Z" fill="#06033E" stroke="white"/>
<path d="M182.299 200.587L177.573 197.886C177.592 197.867 177.615 197.845 177.644 197.822L182.317 195.096L182.317 195.096L182.323 195.092C182.667 194.886 183.066 194.896 183.3 195.008L188.027 197.709C188.008 197.729 187.985 197.751 187.956 197.774L183.283 200.5L183.258 200.514L183.234 200.532C183.144 200.6 182.983 200.655 182.777 200.665C182.579 200.674 182.404 200.636 182.299 200.587Z" fill="#06033E" stroke="white"/>
<path d="M126.91 160.263L126.896 160.254L126.881 160.245L122.14 157.536C122.159 157.516 122.183 157.494 122.212 157.471L126.885 154.745L126.885 154.745L126.89 154.742C127.234 154.536 127.633 154.546 127.868 154.657L132.595 157.359C132.576 157.378 132.552 157.4 132.523 157.423L127.85 160.149L127.85 160.149L127.845 160.153C127.683 160.249 127.473 160.305 127.271 160.314C127.172 160.319 127.085 160.312 127.017 160.298C126.983 160.291 126.957 160.283 126.938 160.276C126.929 160.272 126.922 160.269 126.917 160.267C126.912 160.265 126.91 160.263 126.91 160.263Z" fill="#06033E" stroke="white"/>
<path d="M119.326 155.928L114.599 153.227C114.618 153.207 114.641 153.185 114.67 153.162L119.344 150.436L119.344 150.436L119.349 150.433C119.693 150.227 120.092 150.237 120.327 150.348L125.053 153.049C125.035 153.069 125.011 153.091 124.982 153.114L120.309 155.84L120.284 155.855L120.261 155.872C120.17 155.94 120.009 155.996 119.804 156.005C119.606 156.014 119.43 155.977 119.326 155.928Z" fill="#06033E" stroke="white"/>
<path d="M111.926 151.645L111.913 151.636L111.9 151.629L101.671 145.686C101.69 145.666 101.714 145.644 101.743 145.621L106.416 142.895L106.416 142.895L106.421 142.892C106.764 142.686 107.163 142.696 107.397 142.807L117.611 148.74C117.592 148.76 117.568 148.782 117.539 148.805L112.866 151.531L112.866 151.531L112.86 151.534C112.699 151.631 112.489 151.687 112.287 151.696C112.188 151.701 112.101 151.693 112.032 151.68C111.999 151.673 111.973 151.665 111.953 151.658C111.944 151.654 111.937 151.651 111.932 151.649C111.928 151.646 111.926 151.645 111.926 151.645Z" fill="#06033E" stroke="white"/>
<path d="M117.074 146.33L108.821 141.573C108.839 141.553 108.863 141.531 108.892 141.508L113.565 138.782L113.565 138.782L113.571 138.778C113.914 138.572 114.313 138.582 114.548 138.693L122.801 143.451C122.782 143.471 122.759 143.493 122.73 143.516L118.056 146.242L118.031 146.257L118.008 146.274C117.918 146.342 117.756 146.398 117.551 146.407C117.353 146.416 117.178 146.379 117.074 146.33Z" fill="#06033E" stroke="white"/>
<path d="M134.278 164.491L134.253 164.472L134.226 164.457L129.485 161.748C129.504 161.728 129.528 161.706 129.557 161.683L134.23 158.957L134.23 158.957L134.235 158.954C134.579 158.747 134.979 158.758 135.213 158.869L139.94 161.57C139.921 161.59 139.897 161.612 139.869 161.635L135.195 164.361L135.17 164.376L135.147 164.393C135.034 164.478 134.856 164.547 134.667 164.564C134.475 164.582 134.343 164.54 134.278 164.491Z" fill="#06033E" stroke="white"/>
<path d="M141.557 168.758L136.831 166.057C136.85 166.037 136.873 166.015 136.902 165.992L141.575 163.266L141.575 163.266L141.581 163.263C141.925 163.056 142.324 163.067 142.558 163.178L147.285 165.879C147.266 165.899 147.243 165.921 147.214 165.944L142.541 168.67L142.516 168.685L142.493 168.702C142.402 168.77 142.241 168.826 142.035 168.835C141.837 168.844 141.662 168.807 141.557 168.758Z" fill="#06033E" stroke="white"/>
<path d="M148.969 173.011L148.944 172.992L148.917 172.977L144.176 170.268C144.195 170.248 144.218 170.226 144.247 170.203L148.921 167.477L148.921 167.477L148.926 167.474C149.27 167.268 149.669 167.278 149.904 167.389L154.631 170.09C154.612 170.11 154.588 170.132 154.559 170.155L149.886 172.881L149.861 172.896L149.838 172.913C149.725 172.998 149.547 173.067 149.358 173.085C149.166 173.102 149.034 173.06 148.969 173.011Z" fill="#06033E" stroke="white"/>
<path d="M156.346 177.279L151.619 174.578C151.638 174.558 151.662 174.536 151.691 174.513L156.364 171.787L156.364 171.787L156.369 171.784C156.713 171.577 157.113 171.587 157.347 171.699L162.074 174.4C162.055 174.42 162.031 174.442 162.002 174.465L157.329 177.191L157.329 177.191L157.324 177.194C156.98 177.4 156.58 177.39 156.346 177.279Z" fill="#06033E" stroke="white"/>
<path d="M163.757 181.532L163.732 181.513L163.705 181.498L158.965 178.789C158.983 178.769 159.007 178.747 159.036 178.724L163.709 175.998L163.709 175.998L163.715 175.995C164.058 175.788 164.458 175.799 164.692 175.91L169.419 178.611C169.4 178.631 169.377 178.653 169.348 178.676L164.674 181.402L164.649 181.417L164.626 181.434C164.513 181.519 164.335 181.588 164.147 181.605C163.954 181.623 163.822 181.581 163.757 181.532Z" fill="#06033E" stroke="white"/>
<path d="M171.036 185.799L166.31 183.098C166.329 183.078 166.352 183.056 166.381 183.033L171.055 180.307L171.055 180.307L171.06 180.304C171.404 180.097 171.803 180.108 172.037 180.219L176.764 182.92C176.746 182.94 176.722 182.962 176.693 182.985L172.02 185.711L171.995 185.726L171.972 185.743C171.881 185.811 171.72 185.867 171.514 185.876C171.316 185.885 171.141 185.848 171.036 185.799Z" fill="#06033E" stroke="white"/>
<path d="M178.546 190.053L178.521 190.034L178.494 190.019L173.753 187.31C173.772 187.29 173.796 187.268 173.825 187.245L178.498 184.519L178.498 184.519L178.503 184.515C178.847 184.309 179.246 184.319 179.481 184.431L184.208 187.132C184.189 187.152 184.165 187.174 184.136 187.197L179.463 189.923L179.463 189.923L179.458 189.926C179.031 190.182 178.691 190.162 178.546 190.053Z" fill="#06033E" stroke="white"/>
<path d="M185.825 194.319L181.098 191.619C181.117 191.599 181.141 191.577 181.17 191.554L185.843 188.828L185.843 188.828L185.848 188.825C186.192 188.618 186.592 188.628 186.826 188.74L191.553 191.441C191.534 191.461 191.51 191.483 191.481 191.506L186.808 194.232L186.783 194.246L186.76 194.264C186.67 194.332 186.508 194.388 186.303 194.397C186.105 194.406 185.93 194.369 185.825 194.319Z" fill="#06033E" stroke="white"/>
<path d="M193.236 198.573L193.211 198.554L193.184 198.539L188.444 195.83C188.463 195.81 188.486 195.788 188.515 195.765L193.188 193.039L193.188 193.039L193.194 193.036C193.538 192.829 193.937 192.84 194.171 192.951L198.898 195.652C198.879 195.672 198.856 195.694 198.827 195.717L194.154 198.443L194.129 198.458L194.105 198.475C193.993 198.56 193.814 198.629 193.626 198.646C193.433 198.664 193.302 198.622 193.236 198.573Z" fill="#06033E" stroke="white"/>
<path d="M206.294 206.17L195.985 200.237C196.004 200.217 196.027 200.195 196.056 200.172L200.73 197.446L200.73 197.446L200.735 197.443C201.078 197.237 201.478 197.247 201.712 197.358L212.022 203.291C212.003 203.311 211.979 203.333 211.95 203.356L207.277 206.082L207.252 206.097L207.229 206.114C207.138 206.182 206.977 206.238 206.772 206.247C206.574 206.256 206.399 206.219 206.294 206.17Z" fill="#06033E" stroke="white"/>
<path d="M220.692 197.846L211.948 192.794C211.967 192.774 211.991 192.752 212.02 192.729L216.693 190.003L216.693 190.003L216.699 190C217.042 189.794 217.441 189.803 217.675 189.915L226.419 194.966C226.4 194.986 226.376 195.008 226.347 195.031L221.674 197.757L221.674 197.757L221.669 197.761C221.325 197.967 220.926 197.957 220.692 197.846Z" fill="#06033E" stroke="white"/>
<path d="M147.14 163.665L142.413 160.964C142.432 160.944 142.456 160.922 142.485 160.899L147.158 158.173L147.158 158.173L147.163 158.17C147.507 157.963 147.906 157.974 148.141 158.085L152.868 160.786C152.849 160.806 152.825 160.828 152.796 160.851L148.123 163.577L148.123 163.577L148.118 163.58C147.774 163.787 147.374 163.776 147.14 163.665Z" fill="#06033E" stroke="white"/>
<path d="M139.718 159.346L139.671 159.299L139.613 159.266L134.872 156.557C134.891 156.537 134.914 156.515 134.943 156.492L139.617 153.766L139.617 153.766L139.622 153.763C139.966 153.556 140.365 153.567 140.6 153.678L145.326 156.379C145.308 156.399 145.284 156.421 145.255 156.444L140.582 159.17L140.582 159.17L140.577 159.173C140.393 159.284 140.171 159.356 139.981 159.373C139.8 159.39 139.731 159.352 139.719 159.346C139.717 159.345 139.717 159.345 139.718 159.346Z" fill="#06033E" stroke="white"/>
<path d="M131.959 154.948L127.233 152.248C127.252 152.228 127.275 152.206 127.304 152.183L131.978 149.457L131.978 149.457L131.983 149.453C132.327 149.247 132.726 149.257 132.96 149.369L137.687 152.07C137.669 152.09 137.645 152.112 137.616 152.135L132.943 154.861L132.918 154.875L132.895 154.893C132.804 154.961 132.643 155.016 132.437 155.026C132.239 155.035 132.064 154.998 131.959 154.948Z" fill="#06033E" stroke="white"/>
<path d="M124.484 150.584L124.46 150.565L124.433 150.55L119.692 147.841C119.711 147.821 119.734 147.799 119.763 147.776L124.436 145.05L124.436 145.05L124.442 145.046C124.786 144.84 125.185 144.85 125.419 144.962L130.146 147.663C130.127 147.683 130.104 147.705 130.075 147.728L125.402 150.454L125.377 150.468L125.354 150.486C125.241 150.57 125.062 150.64 124.874 150.657C124.681 150.675 124.55 150.633 124.484 150.584Z" fill="#06033E" stroke="white"/>
<path d="M154.551 167.919L154.526 167.9L154.499 167.885L149.758 165.175C149.777 165.156 149.801 165.134 149.83 165.111L154.503 162.385L154.503 162.385L154.508 162.381C154.852 162.175 155.252 162.185 155.486 162.297L160.213 164.998C160.194 165.018 160.171 165.04 160.142 165.063L155.468 167.789L155.443 167.803L155.42 167.821C155.307 167.905 155.129 167.975 154.94 167.992C154.748 168.01 154.616 167.967 154.551 167.919Z" fill="#06033E" stroke="white"/>
<path d="M161.83 172.185L157.104 169.485C157.123 169.465 157.146 169.443 157.175 169.42L161.848 166.694L161.848 166.694L161.854 166.691C162.198 166.484 162.597 166.494 162.831 166.606L167.558 169.307C167.539 169.327 167.516 169.349 167.487 169.372L162.814 172.098L162.789 172.112L162.766 172.13C162.675 172.198 162.514 172.254 162.308 172.263C162.11 172.272 161.935 172.235 161.83 172.185Z" fill="#06033E" stroke="white"/>
<path d="M169.34 176.439L169.315 176.42L169.288 176.405L164.547 173.696C164.566 173.676 164.589 173.654 164.618 173.631L169.292 170.905L169.292 170.905L169.297 170.902C169.641 170.695 170.04 170.706 170.275 170.817L175.001 173.518C174.983 173.538 174.959 173.56 174.93 173.583L170.257 176.309L170.257 176.309L170.252 176.312C169.825 176.568 169.485 176.548 169.34 176.439Z" fill="#06033E" stroke="white"/>
<path d="M176.619 180.706L171.892 178.005C171.911 177.985 171.935 177.964 171.964 177.941L176.637 175.214L176.637 175.214L176.642 175.211C176.986 175.005 177.386 175.015 177.62 175.127L182.347 177.828C182.328 177.848 182.304 177.87 182.275 177.893L177.602 180.619L177.577 180.633L177.554 180.651C177.464 180.718 177.302 180.774 177.097 180.784C176.899 180.793 176.723 180.755 176.619 180.706Z" fill="#06033E" stroke="white"/>
<path d="M184.03 184.96L184.005 184.941L183.978 184.926L179.238 182.217C179.256 182.197 179.28 182.175 179.309 182.152L183.982 179.426L183.982 179.426L183.988 179.422C184.331 179.216 184.731 179.226 184.965 179.338L189.692 182.039C189.673 182.059 189.65 182.081 189.621 182.104L184.947 184.83L184.922 184.844L184.899 184.862C184.786 184.946 184.608 185.016 184.42 185.033C184.227 185.051 184.095 185.008 184.03 184.96Z" fill="#06033E" stroke="white"/>
<path d="M191.451 189.253L191.437 189.243L191.422 189.235L186.681 186.526C186.7 186.506 186.723 186.484 186.752 186.461L191.425 183.735L191.426 183.735L191.431 183.732C191.775 183.525 192.174 183.535 192.408 183.647L197.135 186.348C197.116 186.368 197.093 186.39 197.064 186.413L192.391 189.139L192.391 189.139L192.385 189.142C192.224 189.239 192.014 189.295 191.812 189.304C191.713 189.308 191.626 189.301 191.558 189.287C191.524 189.281 191.498 189.273 191.479 189.265C191.469 189.262 191.462 189.259 191.458 189.256C191.455 189.255 191.454 189.254 191.453 189.254C191.451 189.253 191.451 189.253 191.451 189.253Z" fill="#06033E" stroke="white"/>
<path d="M198.819 193.48L198.794 193.462L198.767 193.446L194.026 190.737C194.045 190.717 194.069 190.695 194.097 190.672L198.771 187.946L198.771 187.946L198.776 187.943C199.12 187.737 199.519 187.747 199.754 187.859L204.481 190.56C204.462 190.58 204.438 190.601 204.409 190.624L199.736 193.351L199.711 193.365L199.688 193.382C199.575 193.467 199.397 193.537 199.208 193.554C199.016 193.571 198.884 193.529 198.819 193.48Z" fill="#06033E" stroke="white"/>
<path d="M206.098 197.747L201.371 195.046C201.39 195.026 201.414 195.005 201.443 194.982L206.116 192.255L206.116 192.255L206.121 192.252C206.465 192.046 206.865 192.056 207.099 192.168L211.826 194.869C211.807 194.889 211.783 194.911 211.755 194.934L207.081 197.66L207.056 197.674L207.033 197.692C206.943 197.759 206.781 197.815 206.576 197.825C206.378 197.834 206.203 197.796 206.098 197.747Z" fill="#06033E" stroke="white"/>
<path d="M213.443 201.958L208.717 199.258C208.736 199.238 208.759 199.216 208.788 199.193L213.461 196.467L213.461 196.467L213.467 196.463C213.811 196.257 214.21 196.267 214.444 196.379L219.171 199.08C219.152 199.1 219.129 199.122 219.1 199.145L214.427 201.871L214.402 201.885L214.378 201.903C214.288 201.971 214.127 202.027 213.921 202.036C213.723 202.045 213.548 202.008 213.443 201.958Z" fill="#06033E" stroke="white"/>
<path d="M143.288 153.13L143.263 153.111L143.236 153.096L138.496 150.387C138.515 150.367 138.538 150.345 138.567 150.322L143.24 147.596L143.24 147.596L143.246 147.593C143.59 147.387 143.989 147.397 144.223 147.508L148.95 150.209C148.931 150.229 148.908 150.251 148.879 150.274L144.206 153L144.181 153.015L144.157 153.032C144.045 153.117 143.866 153.186 143.678 153.204C143.485 153.221 143.354 153.179 143.288 153.13Z" fill="#06033E" stroke="white"/>
<path d="M135.877 148.877L131.15 146.176C131.169 146.156 131.193 146.134 131.222 146.111L135.895 143.385L135.895 143.385L135.9 143.382C136.244 143.175 136.644 143.186 136.878 143.297L141.605 145.998C141.586 146.018 141.562 146.04 141.533 146.063L136.86 148.789L136.835 148.804L136.812 148.821C136.722 148.889 136.56 148.945 136.355 148.954C136.157 148.963 135.982 148.926 135.877 148.877Z" fill="#06033E" stroke="white"/>
<path d="M128.532 144.665L123.805 141.964C123.824 141.944 123.848 141.923 123.876 141.899L128.55 139.173L128.55 139.173L128.555 139.17C128.899 138.964 129.298 138.974 129.533 139.086L134.26 141.787C134.241 141.807 134.217 141.829 134.188 141.852L129.515 144.578L129.49 144.592L129.467 144.61C129.376 144.677 129.215 144.733 129.01 144.743C128.812 144.752 128.636 144.714 128.532 144.665Z" fill="#06033E" stroke="white"/>
<path d="M121.186 140.454L116.46 137.753C116.479 137.733 116.502 137.711 116.531 137.688L121.204 134.962L121.204 134.962L121.21 134.959C121.554 134.753 121.953 134.763 122.187 134.874L126.914 137.576C126.895 137.596 126.871 137.618 126.841 137.642L122.264 140.369L122.262 140.37C122.102 140.466 121.893 140.522 121.678 140.531C121.465 140.541 121.29 140.503 121.186 140.454Z" fill="#06033E" stroke="white"/>
<path d="M128.728 136.047L124.001 133.346C124.019 133.326 124.042 133.305 124.07 133.283L125.605 132.42L125.605 132.42L125.617 132.412C125.961 132.206 126.36 132.216 126.595 132.328L131.321 135.029C131.303 135.048 131.281 135.069 131.253 135.092L129.718 135.955L129.689 135.971L129.663 135.991C129.572 136.059 129.411 136.115 129.206 136.124C129.008 136.133 128.832 136.096 128.728 136.047Z" fill="#06033E" stroke="white"/>
<path d="M138.325 141.629L133.599 138.928C133.617 138.909 133.64 138.888 133.667 138.866L135.203 138.002L135.203 138.002L135.215 137.995C135.559 137.789 135.958 137.799 136.192 137.911L140.919 140.612C140.901 140.631 140.878 140.652 140.851 140.674L139.315 141.538L139.287 141.554L139.261 141.574C139.17 141.642 139.009 141.697 138.803 141.707C138.605 141.716 138.43 141.678 138.325 141.629Z" fill="#06033E" stroke="white"/>
<path d="M145.671 145.841L140.944 143.14C140.962 143.12 140.985 143.099 141.013 143.077L142.548 142.213L142.548 142.214L142.56 142.206C142.904 142 143.303 142.01 143.538 142.122L148.265 144.823C148.246 144.842 148.224 144.863 148.196 144.886L146.661 145.749L146.661 145.749L146.649 145.756C146.305 145.962 145.905 145.952 145.671 145.841Z" fill="#06033E" stroke="white"/>
<path d="M152.918 150.051L148.191 147.351C148.21 147.331 148.232 147.31 148.26 147.288L149.795 146.424L149.795 146.425L149.807 146.417C150.151 146.211 150.551 146.221 150.785 146.333L155.512 149.034C155.494 149.053 155.471 149.074 155.443 149.096L153.908 149.96L153.88 149.976L153.853 149.996C153.763 150.064 153.602 150.12 153.396 150.129C153.198 150.138 153.023 150.101 152.918 150.051Z" fill="#06033E" stroke="white"/>
<path d="M160.263 154.263L155.537 151.562C155.555 151.543 155.578 151.522 155.605 151.5L157.141 150.636L157.141 150.636L157.153 150.629C157.497 150.423 157.896 150.433 158.13 150.544L162.857 153.245C162.839 153.265 162.816 153.286 162.789 153.308L161.253 154.172L161.225 154.188L161.199 154.207C161.108 154.275 160.947 154.331 160.741 154.341C160.543 154.35 160.368 154.312 160.263 154.263Z" fill="#06033E" stroke="white"/>
<path d="M201.223 177.857L201.176 177.809L201.117 177.776L196.377 175.067C196.395 175.048 196.418 175.027 196.445 175.004L197.98 174.141L197.981 174.141L197.993 174.134C198.336 173.928 198.736 173.938 198.97 174.049L203.697 176.75C203.679 176.77 203.656 176.791 203.628 176.813L202.093 177.677L202.093 177.676L202.081 177.684C201.897 177.794 201.675 177.866 201.485 177.884C201.305 177.9 201.235 177.863 201.224 177.857C201.222 177.856 201.222 177.856 201.223 177.857Z" fill="#06033E" stroke="white"/>
<path d="M208.417 182.021L208.392 182.003L208.365 181.987L203.624 179.278C203.642 179.259 203.665 179.238 203.693 179.216L205.228 178.352L205.228 178.352L205.24 178.345C205.584 178.139 205.983 178.149 206.218 178.26L210.944 180.962C210.926 180.981 210.903 181.002 210.876 181.024L209.341 181.888L209.312 181.904L209.286 181.924C209.173 182.008 208.995 182.078 208.806 182.095C208.614 182.112 208.482 182.07 208.417 182.021Z" fill="#06033E" stroke="white"/>
<path d="M215.698 186.29L210.969 183.491C210.987 183.471 211.01 183.45 211.038 183.427L212.573 182.564L212.573 182.564L212.585 182.557C212.929 182.35 213.329 182.361 213.563 182.472L218.29 185.173C218.271 185.192 218.249 185.214 218.221 185.236L216.686 186.099L216.686 186.099L216.674 186.106C216.266 186.351 215.879 186.371 215.698 186.29Z" fill="#06033E" stroke="white"/>
<path d="M222.943 190.5L218.217 187.799C218.235 187.78 218.258 187.759 218.285 187.736L219.821 186.873L219.821 186.873L219.833 186.866C220.177 186.659 220.576 186.67 220.81 186.781L225.537 189.482C225.519 189.502 225.496 189.523 225.468 189.545L223.933 190.408L223.905 190.425L223.878 190.444C223.788 190.512 223.627 190.568 223.421 190.577C223.223 190.586 223.048 190.549 222.943 190.5Z" fill="#06033E" stroke="white"/>
<path d="M150.568 157.397L145.841 154.696C145.86 154.676 145.883 154.654 145.912 154.631L150.586 151.905L150.586 151.905L150.591 151.902C150.935 151.696 151.334 151.706 151.569 151.817L156.295 154.518C156.277 154.538 156.253 154.56 156.224 154.583L151.551 157.309L151.526 157.324L151.503 157.341C151.412 157.409 151.251 157.465 151.046 157.474C150.848 157.483 150.672 157.446 150.568 157.397Z" fill="#06033E" stroke="white"/>
<path d="M158.077 161.651L158.052 161.632L158.025 161.617L153.284 158.908C153.303 158.888 153.327 158.866 153.356 158.843L158.029 156.117L158.029 156.117L158.034 156.114C158.378 155.907 158.778 155.917 159.012 156.029L163.739 158.73C163.72 158.75 163.696 158.772 163.667 158.795L158.994 161.521L158.994 161.521L158.989 161.524C158.562 161.78 158.222 161.76 158.077 161.651Z" fill="#06033E" stroke="white"/>
<path d="M165.356 165.918L160.63 163.217C160.648 163.197 160.672 163.175 160.701 163.152L165.374 160.426L165.374 160.426L165.379 160.423C165.723 160.216 166.123 160.227 166.357 160.338L171.084 163.039C171.065 163.059 171.042 163.081 171.013 163.104L166.339 165.83L166.314 165.845L166.291 165.862C166.201 165.93 166.04 165.986 165.834 165.995C165.636 166.004 165.461 165.967 165.356 165.918Z" fill="#06033E" stroke="white"/>
<path d="M172.768 170.171L172.743 170.152L172.716 170.137L167.975 167.428C167.994 167.408 168.017 167.386 168.046 167.363L172.719 164.637L172.72 164.637L172.725 164.634C173.069 164.428 173.468 164.438 173.702 164.549L178.429 167.25C178.41 167.27 178.387 167.292 178.358 167.315L173.685 170.041L173.66 170.056L173.637 170.073C173.524 170.158 173.345 170.227 173.157 170.245C172.964 170.262 172.833 170.22 172.768 170.171Z" fill="#06033E" stroke="white"/>
<path d="M180.188 174.464L180.174 174.455L180.159 174.446L175.418 171.737C175.437 171.717 175.46 171.695 175.489 171.672L180.163 168.946L180.163 168.946L180.168 168.943C180.512 168.737 180.911 168.747 181.146 168.858L185.873 171.559C185.854 171.579 185.83 171.601 185.801 171.624L181.128 174.35L181.128 174.35L181.123 174.353C180.961 174.45 180.751 174.506 180.549 174.515C180.45 174.52 180.363 174.513 180.295 174.499C180.261 174.492 180.235 174.484 180.216 174.477C180.206 174.473 180.199 174.47 180.195 174.468C180.19 174.465 180.188 174.464 180.188 174.464Z" fill="#06033E" stroke="white"/>
<path d="M187.556 178.692L187.531 178.673L187.504 178.658L182.763 175.949C182.782 175.929 182.806 175.907 182.835 175.884L187.508 173.158L187.508 173.158L187.513 173.155C187.857 172.948 188.257 172.958 188.491 173.07L193.218 175.771C193.199 175.791 193.175 175.813 193.146 175.836L188.473 178.562L188.448 178.577L188.425 178.594C188.312 178.679 188.134 178.748 187.945 178.765C187.753 178.783 187.621 178.741 187.556 178.692Z" fill="#06033E" stroke="white"/>
<path d="M194.835 182.959L190.109 180.258C190.127 180.238 190.151 180.216 190.18 180.193L194.853 177.467L194.853 177.467L194.859 177.464C195.203 177.257 195.602 177.268 195.836 177.379L200.563 180.08C200.544 180.1 200.521 180.122 200.492 180.145L195.818 182.871L195.794 182.886L195.77 182.903C195.68 182.971 195.519 183.027 195.313 183.036C195.115 183.045 194.94 183.008 194.835 182.959Z" fill="#06033E" stroke="white"/>
<path d="M202.18 187.17L197.454 184.469C197.473 184.449 197.496 184.427 197.525 184.404L202.199 181.678L202.199 181.678L202.204 181.675C202.548 181.469 202.947 181.479 203.181 181.59L207.908 184.291C207.89 184.311 207.866 184.333 207.837 184.356L203.164 187.082L203.139 187.097L203.116 187.114C203.025 187.182 202.864 187.238 202.658 187.247C202.461 187.256 202.285 187.219 202.18 187.17Z" fill="#06033E" stroke="white"/>
<path d="M209.624 191.479L204.897 188.779C204.916 188.759 204.94 188.737 204.969 188.714L209.642 185.988L209.642 185.988L209.647 185.984C209.991 185.778 210.39 185.788 210.625 185.9L215.352 188.601C215.333 188.621 215.309 188.643 215.28 188.666L210.607 191.392L210.582 191.406L210.559 191.424C210.468 191.492 210.307 191.548 210.102 191.557C209.904 191.566 209.728 191.529 209.624 191.479Z" fill="#06033E" stroke="white"/>
<path d="M108.521 157.929L108.497 157.911L108.47 157.896L94.4237 149.799C94.4426 149.78 94.4663 149.758 94.4953 149.734L99.1686 147.008L99.1686 147.008L99.1739 147.005C99.5174 146.799 99.9164 146.809 100.151 146.92L114.183 155.008C114.164 155.028 114.14 155.05 114.111 155.073L109.438 157.799L109.413 157.814L109.39 157.831C109.277 157.916 109.099 157.985 108.91 158.002C108.718 158.02 108.586 157.978 108.521 157.929Z" fill="#06033E" stroke="white"/>
<path d="M199.113 210.227L199.088 210.209L199.062 210.194L185.016 202.098C185.035 202.078 185.058 202.056 185.087 202.033L189.761 199.307L189.761 199.307L189.766 199.304C190.109 199.097 190.508 199.107 190.743 199.219L204.775 207.306C204.756 207.326 204.732 207.348 204.703 207.371L200.03 210.097L200.005 210.112L199.982 210.129C199.869 210.214 199.691 210.284 199.502 210.301C199.31 210.318 199.178 210.276 199.113 210.227Z" fill="#06033E" stroke="white"/>
<path d="M169.567 202.644L164.841 199.943C164.859 199.924 164.882 199.902 164.91 199.88L170.56 196.665L170.56 196.665L170.57 196.66C170.914 196.453 171.313 196.463 171.548 196.575L176.275 199.276C176.256 199.295 176.233 199.317 176.205 199.339L170.555 202.554L170.528 202.569L170.503 202.588C170.412 202.656 170.251 202.712 170.045 202.722C169.847 202.731 169.672 202.693 169.567 202.644Z" fill="#06033E" stroke="white"/>
<path d="M115.996 171.696L108.429 167.33C108.447 167.31 108.47 167.289 108.498 167.266L114.148 164.052L114.148 164.052L114.158 164.046C114.502 163.84 114.901 163.85 115.135 163.961L122.703 168.327C122.685 168.347 122.662 168.368 122.633 168.391L116.984 171.605L116.956 171.621L116.931 171.64C116.84 171.708 116.679 171.764 116.474 171.773C116.276 171.782 116.101 171.745 115.996 171.696Z" fill="#06033E" stroke="white"/>
<path d="M162.419 198.531L154.851 194.165C154.87 194.146 154.893 194.124 154.921 194.102L160.571 190.887L160.571 190.887L160.581 190.881C160.924 190.675 161.323 190.685 161.557 190.796L169.125 195.162C169.107 195.182 169.084 195.203 169.056 195.226L163.406 198.44L163.378 198.456L163.353 198.475C163.263 198.543 163.101 198.599 162.896 198.608C162.698 198.617 162.523 198.58 162.419 198.531Z" fill="#06033E" stroke="white"/>
<path d="M126.672 177.867L119.104 173.5C119.122 173.481 119.145 173.459 119.174 173.437L124.823 170.222L124.824 170.222L124.833 170.216C125.177 170.01 125.576 170.02 125.81 170.131L133.378 174.498C133.36 174.517 133.337 174.539 133.309 174.561L127.659 177.776L127.659 177.776L127.649 177.782C127.305 177.988 126.906 177.978 126.672 177.867Z" fill="#06033E" stroke="white"/>
<path d="M152.233 192.655L119.795 173.9L126.046 170.267L158.996 189.318L159 189.32C158.991 189.33 158.98 189.34 158.966 189.351L153.233 192.655C153.127 192.704 152.946 192.743 152.733 192.743C152.52 192.743 152.34 192.704 152.233 192.655Z" fill="#06033E" stroke="white"/>
<path d="M189.704 211.189L194.734 214.077L192.504 215.377C192.269 215.49 191.946 215.507 191.652 215.446L186.634 212.565L188.863 211.265C188.978 211.21 189.144 211.173 189.327 211.164C189.489 211.155 189.624 211.17 189.704 211.189Z" fill="#06033E" stroke="white"/>
<path d="M182.18 206.93L182.194 206.939L182.208 206.948L187.29 209.865L185.061 211.166C184.825 211.279 184.503 211.295 184.209 211.234L179.191 208.354L181.436 207.044L181.436 207.044L181.441 207.041C181.822 206.812 182.095 206.874 182.18 206.93Z" fill="#06033E" stroke="white"/>
<path d="M174.835 202.621L174.848 202.63L174.863 202.638L179.945 205.556L177.716 206.856C177.48 206.969 177.158 206.986 176.863 206.925L171.846 204.044L174.091 202.734L174.116 202.72L174.139 202.703C174.241 202.626 174.386 202.577 174.538 202.569C174.699 202.561 174.803 202.6 174.835 202.621Z" fill="#06033E" stroke="white"/>
<path d="M186.293 204.579L186.307 204.589L186.322 204.597L191.404 207.515L189.174 208.815C188.939 208.928 188.616 208.945 188.322 208.883L183.304 206.003L185.549 204.693L185.574 204.679L185.597 204.661C185.7 204.584 185.844 204.536 185.997 204.528C186.158 204.52 186.262 204.558 186.293 204.579Z" fill="#06033E" stroke="white"/>
</g>
<g opacity="0.4">
<path d="M91.0207 157.298L86.2951 154.598C86.3136 154.579 86.3366 154.557 86.3646 154.535L92.0145 151.32L92.0146 151.32L92.0245 151.314C92.3684 151.108 92.7678 151.118 93.0021 151.23L97.729 153.931C97.7105 153.95 97.6876 153.972 97.6595 153.994L92.0227 157.201C91.8909 157.265 91.6891 157.322 91.4771 157.341C91.259 157.361 91.1009 157.335 91.0207 157.298Z" fill="#06033E" stroke="white"/>
<path d="M98.367 161.511L93.6404 158.81C93.6589 158.79 93.6819 158.769 93.71 158.746L99.3598 155.532L99.3599 155.532L99.3698 155.526C99.7137 155.32 100.113 155.33 100.347 155.441L105.074 158.142C105.056 158.162 105.033 158.183 105.005 158.206L99.355 161.42L99.3275 161.436L99.3022 161.455C99.2116 161.523 99.0505 161.579 98.845 161.588C98.647 161.597 98.4716 161.56 98.367 161.511Z" fill="#06033E" stroke="white"/>
<path d="M105.778 165.764L105.754 165.745L105.727 165.73L100.986 163.021C101.004 163.001 101.027 162.98 101.055 162.957L106.705 159.743L106.705 159.743L106.715 159.737C107.059 159.531 107.458 159.541 107.693 159.652L112.42 162.353C112.401 162.373 112.378 162.394 112.35 162.417L106.7 165.631L106.673 165.647L106.647 165.666C106.535 165.751 106.356 165.82 106.168 165.837C105.975 165.855 105.844 165.813 105.778 165.764Z" fill="#06033E" stroke="white"/>
<path d="M116.039 162.32L116.025 162.311L116.01 162.302L111.269 159.593C111.288 159.573 111.312 159.551 111.341 159.528L116.014 156.802L116.014 156.802L116.019 156.799C116.363 156.593 116.762 156.603 116.997 156.714L121.724 159.415C121.705 159.435 121.681 159.457 121.652 159.48L116.979 162.206L116.979 162.206L116.974 162.209C116.812 162.306 116.602 162.362 116.4 162.371C116.301 162.376 116.214 162.369 116.146 162.355C116.112 162.348 116.086 162.34 116.067 162.333C116.057 162.329 116.051 162.326 116.046 162.324C116.041 162.321 116.039 162.32 116.039 162.32Z" fill="#06033E" stroke="white"/>
<path d="M123.341 166.505L118.614 163.804C118.633 163.785 118.657 163.763 118.686 163.74L123.359 161.014L123.359 161.014L123.364 161.01C123.708 160.804 124.108 160.814 124.342 160.926L129.069 163.627C129.05 163.647 129.026 163.669 128.998 163.692L124.324 166.418L124.299 166.432L124.276 166.45C124.186 166.518 124.024 166.573 123.819 166.583C123.621 166.592 123.446 166.554 123.341 166.505Z" fill="#06033E" stroke="white"/>
<path d="M130.685 170.814L125.96 168.114C125.979 168.094 126.002 168.072 126.031 168.049L130.704 165.323L130.704 165.323L130.71 165.32C131.054 165.113 131.453 165.124 131.687 165.235L136.414 167.936C136.395 167.956 136.372 167.978 136.343 168.001L131.685 170.718C131.553 170.781 131.353 170.838 131.142 170.857C130.924 170.877 130.765 170.85 130.685 170.814Z" fill="#06033E" stroke="white"/>
<path d="M138.032 175.026L133.305 172.325C133.324 172.305 133.347 172.283 133.376 172.26L138.05 169.534L138.05 169.534L138.055 169.531C138.399 169.324 138.798 169.334 139.033 169.446L143.759 172.147C143.741 172.167 143.717 172.189 143.688 172.212L139.015 174.938L138.99 174.953L138.967 174.97C138.876 175.038 138.715 175.094 138.51 175.103C138.312 175.112 138.136 175.075 138.032 175.026Z" fill="#06033E" stroke="white"/>
<path d="M145.541 179.279L145.516 179.261L145.489 179.245L140.748 176.536C140.767 176.516 140.791 176.495 140.82 176.472L145.493 173.745L145.493 173.745L145.498 173.742C145.842 173.536 146.242 173.546 146.476 173.658L151.203 176.359C151.184 176.379 151.16 176.401 151.131 176.424L146.458 179.15L146.433 179.164L146.41 179.182C146.297 179.266 146.119 179.336 145.93 179.353C145.738 179.37 145.606 179.328 145.541 179.279Z" fill="#06033E" stroke="white"/>
<path d="M152.82 183.546L148.094 180.845C148.112 180.826 148.136 180.804 148.165 180.781L152.838 178.055L152.838 178.055L152.844 178.051C153.187 177.845 153.587 177.855 153.821 177.967L158.548 180.668C158.529 180.688 158.506 180.71 158.477 180.733L153.803 183.459L153.778 183.473L153.755 183.491C153.665 183.559 153.504 183.614 153.298 183.624C153.1 183.633 152.925 183.595 152.82 183.546Z" fill="#06033E" stroke="white"/>
<path d="M160.232 187.8L160.207 187.781L160.18 187.766L155.439 185.057C155.458 185.037 155.481 185.015 155.51 184.992L160.183 182.266L160.183 182.266L160.189 182.263C160.533 182.056 160.932 182.066 161.166 182.178L165.893 184.879C165.874 184.899 165.851 184.921 165.822 184.944L161.149 187.67L161.124 187.684L161.101 187.702C160.988 187.786 160.809 187.856 160.621 187.873C160.428 187.891 160.297 187.849 160.232 187.8Z" fill="#06033E" stroke="white"/>
<path d="M167.609 192.067L162.882 189.366C162.901 189.346 162.925 189.324 162.953 189.301L167.627 186.575L167.627 186.575L167.632 186.572C167.976 186.365 168.375 186.375 168.61 186.487L173.337 189.188C173.318 189.208 173.294 189.23 173.265 189.253L168.592 191.979L168.592 191.979L168.587 191.982C168.243 192.188 167.843 192.178 167.609 192.067Z" fill="#06033E" stroke="white"/>
<path d="M175.02 196.32L174.995 196.302L174.968 196.286L170.227 193.577C170.246 193.557 170.27 193.536 170.299 193.513L174.972 190.786L174.972 190.786L174.977 190.783C175.321 190.577 175.721 190.587 175.955 190.699L180.682 193.4C180.663 193.42 180.639 193.442 180.61 193.465L175.937 196.191L175.912 196.205L175.889 196.223C175.776 196.307 175.598 196.377 175.409 196.394C175.217 196.411 175.085 196.369 175.02 196.32Z" fill="#06033E" stroke="white"/>
<path d="M182.299 200.587L177.573 197.886C177.592 197.867 177.615 197.845 177.644 197.822L182.317 195.096L182.317 195.096L182.323 195.092C182.667 194.886 183.066 194.896 183.3 195.008L188.027 197.709C188.008 197.729 187.985 197.751 187.956 197.774L183.283 200.5L183.258 200.514L183.234 200.532C183.144 200.6 182.983 200.655 182.777 200.665C182.579 200.674 182.404 200.636 182.299 200.587Z" fill="#06033E" stroke="white"/>
<path d="M126.91 160.263L126.896 160.254L126.881 160.245L122.14 157.536C122.159 157.516 122.183 157.494 122.212 157.471L126.885 154.745L126.885 154.745L126.89 154.742C127.234 154.536 127.633 154.546 127.868 154.657L132.595 157.359C132.576 157.378 132.552 157.4 132.523 157.423L127.85 160.149L127.85 160.149L127.845 160.153C127.683 160.249 127.473 160.305 127.271 160.314C127.172 160.319 127.085 160.312 127.017 160.298C126.983 160.291 126.957 160.283 126.938 160.276C126.929 160.272 126.922 160.269 126.917 160.267C126.912 160.265 126.91 160.263 126.91 160.263Z" fill="#06033E" stroke="white"/>
<path d="M119.326 155.928L114.599 153.227C114.618 153.207 114.641 153.185 114.67 153.162L119.344 150.436L119.344 150.436L119.349 150.433C119.693 150.227 120.092 150.237 120.327 150.348L125.053 153.049C125.035 153.069 125.011 153.091 124.982 153.114L120.309 155.84L120.284 155.855L120.261 155.872C120.17 155.94 120.009 155.996 119.804 156.005C119.606 156.014 119.43 155.977 119.326 155.928Z" fill="#06033E" stroke="white"/>
<path d="M111.926 151.645L111.913 151.636L111.9 151.629L101.671 145.686C101.69 145.666 101.714 145.644 101.743 145.621L106.416 142.895L106.416 142.895L106.421 142.892C106.764 142.686 107.163 142.696 107.397 142.807L117.611 148.74C117.592 148.76 117.568 148.782 117.539 148.805L112.866 151.531L112.866 151.531L112.86 151.534C112.699 151.631 112.489 151.687 112.287 151.696C112.188 151.701 112.101 151.693 112.032 151.68C111.999 151.673 111.973 151.665 111.953 151.658C111.944 151.654 111.937 151.651 111.932 151.649C111.928 151.646 111.926 151.645 111.926 151.645Z" fill="#06033E" stroke="white"/>
<path d="M117.074 146.33L108.821 141.573C108.839 141.553 108.863 141.531 108.892 141.508L113.565 138.782L113.565 138.782L113.571 138.778C113.914 138.572 114.313 138.582 114.548 138.693L122.801 143.451C122.782 143.471 122.759 143.493 122.73 143.516L118.056 146.242L118.031 146.257L118.008 146.274C117.918 146.342 117.756 146.398 117.551 146.407C117.353 146.416 117.178 146.379 117.074 146.33Z" fill="#06033E" stroke="white"/>
<path d="M134.278 164.491L134.253 164.472L134.226 164.457L129.485 161.748C129.504 161.728 129.528 161.706 129.557 161.683L134.23 158.957L134.23 158.957L134.235 158.954C134.579 158.747 134.979 158.758 135.213 158.869L139.94 161.57C139.921 161.59 139.897 161.612 139.869 161.635L135.195 164.361L135.17 164.376L135.147 164.393C135.034 164.478 134.856 164.547 134.667 164.564C134.475 164.582 134.343 164.54 134.278 164.491Z" fill="#06033E" stroke="white"/>
<path d="M141.557 168.758L136.831 166.057C136.85 166.037 136.873 166.015 136.902 165.992L141.575 163.266L141.575 163.266L141.581 163.263C141.925 163.056 142.324 163.067 142.558 163.178L147.285 165.879C147.266 165.899 147.243 165.921 147.214 165.944L142.541 168.67L142.516 168.685L142.493 168.702C142.402 168.77 142.241 168.826 142.035 168.835C141.837 168.844 141.662 168.807 141.557 168.758Z" fill="#06033E" stroke="white"/>
<path d="M148.969 173.011L148.944 172.992L148.917 172.977L144.176 170.268C144.195 170.248 144.218 170.226 144.247 170.203L148.921 167.477L148.921 167.477L148.926 167.474C149.27 167.268 149.669 167.278 149.904 167.389L154.631 170.09C154.612 170.11 154.588 170.132 154.559 170.155L149.886 172.881L149.861 172.896L149.838 172.913C149.725 172.998 149.547 173.067 149.358 173.085C149.166 173.102 149.034 173.06 148.969 173.011Z" fill="#06033E" stroke="white"/>
<path d="M156.346 177.279L151.619 174.578C151.638 174.558 151.662 174.536 151.691 174.513L156.364 171.787L156.364 171.787L156.369 171.784C156.713 171.577 157.113 171.587 157.347 171.699L162.074 174.4C162.055 174.42 162.031 174.442 162.002 174.465L157.329 177.191L157.329 177.191L157.324 177.194C156.98 177.4 156.58 177.39 156.346 177.279Z" fill="#06033E" stroke="white"/>
<path d="M163.757 181.532L163.732 181.513L163.705 181.498L158.965 178.789C158.983 178.769 159.007 178.747 159.036 178.724L163.709 175.998L163.709 175.998L163.715 175.995C164.058 175.788 164.458 175.799 164.692 175.91L169.419 178.611C169.4 178.631 169.377 178.653 169.348 178.676L164.674 181.402L164.649 181.417L164.626 181.434C164.513 181.519 164.335 181.588 164.147 181.605C163.954 181.623 163.822 181.581 163.757 181.532Z" fill="#06033E" stroke="white"/>
<path d="M171.036 185.799L166.31 183.098C166.329 183.078 166.352 183.056 166.381 183.033L171.055 180.307L171.055 180.307L171.06 180.304C171.404 180.097 171.803 180.108 172.037 180.219L176.764 182.92C176.746 182.94 176.722 182.962 176.693 182.985L172.02 185.711L171.995 185.726L171.972 185.743C171.881 185.811 171.72 185.867 171.514 185.876C171.316 185.885 171.141 185.848 171.036 185.799Z" fill="#06033E" stroke="white"/>
<path d="M178.546 190.053L178.521 190.034L178.494 190.019L173.753 187.31C173.772 187.29 173.796 187.268 173.825 187.245L178.498 184.519L178.498 184.519L178.503 184.515C178.847 184.309 179.246 184.319 179.481 184.431L184.208 187.132C184.189 187.152 184.165 187.174 184.136 187.197L179.463 189.923L179.463 189.923L179.458 189.926C179.031 190.182 178.691 190.162 178.546 190.053Z" fill="#06033E" stroke="white"/>
<path d="M185.825 194.319L181.098 191.619C181.117 191.599 181.141 191.577 181.17 191.554L185.843 188.828L185.843 188.828L185.848 188.825C186.192 188.618 186.592 188.628 186.826 188.74L191.553 191.441C191.534 191.461 191.51 191.483 191.481 191.506L186.808 194.232L186.783 194.246L186.76 194.264C186.67 194.332 186.508 194.388 186.303 194.397C186.105 194.406 185.93 194.369 185.825 194.319Z" fill="#06033E" stroke="white"/>
<path d="M193.236 198.573L193.211 198.554L193.184 198.539L188.444 195.83C188.463 195.81 188.486 195.788 188.515 195.765L193.188 193.039L193.188 193.039L193.194 193.036C193.538 192.829 193.937 192.84 194.171 192.951L198.898 195.652C198.879 195.672 198.856 195.694 198.827 195.717L194.154 198.443L194.129 198.458L194.105 198.475C193.993 198.56 193.814 198.629 193.626 198.646C193.433 198.664 193.302 198.622 193.236 198.573Z" fill="#06033E" stroke="white"/>
<path d="M206.294 206.17L195.985 200.237C196.004 200.217 196.027 200.195 196.056 200.172L200.73 197.446L200.73 197.446L200.735 197.443C201.078 197.237 201.478 197.247 201.712 197.358L212.022 203.291C212.003 203.311 211.979 203.333 211.95 203.356L207.277 206.082L207.252 206.097L207.229 206.114C207.138 206.182 206.977 206.238 206.772 206.247C206.574 206.256 206.399 206.219 206.294 206.17Z" fill="#06033E" stroke="white"/>
<path d="M220.692 197.846L211.948 192.794C211.967 192.774 211.991 192.752 212.02 192.729L216.693 190.003L216.693 190.003L216.699 190C217.042 189.794 217.441 189.803 217.675 189.915L226.419 194.966C226.4 194.986 226.376 195.008 226.347 195.031L221.674 197.757L221.674 197.757L221.669 197.761C221.325 197.967 220.926 197.957 220.692 197.846Z" fill="#06033E" stroke="white"/>
<path d="M147.14 163.665L142.413 160.964C142.432 160.944 142.456 160.922 142.485 160.899L147.158 158.173L147.158 158.173L147.163 158.17C147.507 157.963 147.906 157.974 148.141 158.085L152.868 160.786C152.849 160.806 152.825 160.828 152.796 160.851L148.123 163.577L148.123 163.577L148.118 163.58C147.774 163.787 147.374 163.776 147.14 163.665Z" fill="#06033E" stroke="white"/>
<path d="M139.718 159.346L139.671 159.299L139.613 159.266L134.872 156.557C134.891 156.537 134.914 156.515 134.943 156.492L139.617 153.766L139.617 153.766L139.622 153.763C139.966 153.556 140.365 153.567 140.6 153.678L145.326 156.379C145.308 156.399 145.284 156.421 145.255 156.444L140.582 159.17L140.582 159.17L140.577 159.173C140.393 159.284 140.171 159.356 139.981 159.373C139.8 159.39 139.731 159.352 139.719 159.346C139.717 159.345 139.717 159.345 139.718 159.346Z" fill="#06033E" stroke="white"/>
<path d="M131.959 154.948L127.233 152.248C127.252 152.228 127.275 152.206 127.304 152.183L131.978 149.457L131.978 149.457L131.983 149.453C132.327 149.247 132.726 149.257 132.96 149.369L137.687 152.07C137.669 152.09 137.645 152.112 137.616 152.135L132.943 154.861L132.918 154.875L132.895 154.893C132.804 154.961 132.643 155.016 132.437 155.026C132.239 155.035 132.064 154.998 131.959 154.948Z" fill="#06033E" stroke="white"/>
<path d="M124.484 150.584L124.46 150.565L124.433 150.55L119.692 147.841C119.711 147.821 119.734 147.799 119.763 147.776L124.436 145.05L124.436 145.05L124.442 145.046C124.786 144.84 125.185 144.85 125.419 144.962L130.146 147.663C130.127 147.683 130.104 147.705 130.075 147.728L125.402 150.454L125.377 150.468L125.354 150.486C125.241 150.57 125.062 150.64 124.874 150.657C124.681 150.675 124.55 150.633 124.484 150.584Z" fill="#06033E" stroke="white"/>
<path d="M154.551 167.919L154.526 167.9L154.499 167.885L149.758 165.175C149.777 165.156 149.801 165.134 149.83 165.111L154.503 162.385L154.503 162.385L154.508 162.381C154.852 162.175 155.252 162.185 155.486 162.297L160.213 164.998C160.194 165.018 160.171 165.04 160.142 165.063L155.468 167.789L155.443 167.803L155.42 167.821C155.307 167.905 155.129 167.975 154.94 167.992C154.748 168.01 154.616 167.967 154.551 167.919Z" fill="#06033E" stroke="white"/>
<path d="M161.83 172.185L157.104 169.485C157.123 169.465 157.146 169.443 157.175 169.42L161.848 166.694L161.848 166.694L161.854 166.691C162.198 166.484 162.597 166.494 162.831 166.606L167.558 169.307C167.539 169.327 167.516 169.349 167.487 169.372L162.814 172.098L162.789 172.112L162.766 172.13C162.675 172.198 162.514 172.254 162.308 172.263C162.11 172.272 161.935 172.235 161.83 172.185Z" fill="#06033E" stroke="white"/>
<path d="M169.34 176.439L169.315 176.42L169.288 176.405L164.547 173.696C164.566 173.676 164.589 173.654 164.618 173.631L169.292 170.905L169.292 170.905L169.297 170.902C169.641 170.695 170.04 170.706 170.275 170.817L175.001 173.518C174.983 173.538 174.959 173.56 174.93 173.583L170.257 176.309L170.257 176.309L170.252 176.312C169.825 176.568 169.485 176.548 169.34 176.439Z" fill="#06033E" stroke="white"/>
<path d="M176.619 180.706L171.892 178.005C171.911 177.985 171.935 177.964 171.964 177.941L176.637 175.214L176.637 175.214L176.642 175.211C176.986 175.005 177.386 175.015 177.62 175.127L182.347 177.828C182.328 177.848 182.304 177.87 182.275 177.893L177.602 180.619L177.577 180.633L177.554 180.651C177.464 180.718 177.302 180.774 177.097 180.784C176.899 180.793 176.723 180.755 176.619 180.706Z" fill="#06033E" stroke="white"/>
<path d="M184.03 184.96L184.005 184.941L183.978 184.926L179.238 182.217C179.256 182.197 179.28 182.175 179.309 182.152L183.982 179.426L183.982 179.426L183.988 179.422C184.331 179.216 184.731 179.226 184.965 179.338L189.692 182.039C189.673 182.059 189.65 182.081 189.621 182.104L184.947 184.83L184.922 184.844L184.899 184.862C184.786 184.946 184.608 185.016 184.42 185.033C184.227 185.051 184.095 185.008 184.03 184.96Z" fill="#06033E" stroke="white"/>
<path d="M191.451 189.253L191.437 189.243L191.422 189.235L186.681 186.526C186.7 186.506 186.723 186.484 186.752 186.461L191.425 183.735L191.426 183.735L191.431 183.732C191.775 183.525 192.174 183.535 192.408 183.647L197.135 186.348C197.116 186.368 197.093 186.39 197.064 186.413L192.391 189.139L192.391 189.139L192.385 189.142C192.224 189.239 192.014 189.295 191.812 189.304C191.713 189.308 191.626 189.301 191.558 189.287C191.524 189.281 191.498 189.273 191.479 189.265C191.469 189.262 191.462 189.259 191.458 189.256C191.455 189.255 191.454 189.254 191.453 189.254C191.451 189.253 191.451 189.253 191.451 189.253Z" fill="#06033E" stroke="white"/>
<path d="M198.819 193.48L198.794 193.462L198.767 193.446L194.026 190.737C194.045 190.717 194.069 190.695 194.097 190.672L198.771 187.946L198.771 187.946L198.776 187.943C199.12 187.737 199.519 187.747 199.754 187.859L204.481 190.56C204.462 190.58 204.438 190.601 204.409 190.624L199.736 193.351L199.711 193.365L199.688 193.382C199.575 193.467 199.397 193.537 199.208 193.554C199.016 193.571 198.884 193.529 198.819 193.48Z" fill="#06033E" stroke="white"/>
<path d="M206.098 197.747L201.371 195.046C201.39 195.026 201.414 195.005 201.443 194.982L206.116 192.255L206.116 192.255L206.121 192.252C206.465 192.046 206.865 192.056 207.099 192.168L211.826 194.869C211.807 194.889 211.783 194.911 211.755 194.934L207.081 197.66L207.056 197.674L207.033 197.692C206.943 197.759 206.781 197.815 206.576 197.825C206.378 197.834 206.203 197.796 206.098 197.747Z" fill="#06033E" stroke="white"/>
<path d="M213.443 201.958L208.717 199.258C208.736 199.238 208.759 199.216 208.788 199.193L213.461 196.467L213.461 196.467L213.467 196.463C213.811 196.257 214.21 196.267 214.444 196.379L219.171 199.08C219.152 199.1 219.129 199.122 219.1 199.145L214.427 201.871L214.402 201.885L214.378 201.903C214.288 201.971 214.127 202.027 213.921 202.036C213.723 202.045 213.548 202.008 213.443 201.958Z" fill="#06033E" stroke="white"/>
<path d="M143.288 153.13L143.263 153.111L143.236 153.096L138.496 150.387C138.515 150.367 138.538 150.345 138.567 150.322L143.24 147.596L143.24 147.596L143.246 147.593C143.59 147.387 143.989 147.397 144.223 147.508L148.95 150.209C148.931 150.229 148.908 150.251 148.879 150.274L144.206 153L144.181 153.015L144.157 153.032C144.045 153.117 143.866 153.186 143.678 153.204C143.485 153.221 143.354 153.179 143.288 153.13Z" fill="#06033E" stroke="white"/>
<path d="M135.877 148.877L131.15 146.176C131.169 146.156 131.193 146.134 131.222 146.111L135.895 143.385L135.895 143.385L135.9 143.382C136.244 143.175 136.644 143.186 136.878 143.297L141.605 145.998C141.586 146.018 141.562 146.04 141.533 146.063L136.86 148.789L136.835 148.804L136.812 148.821C136.722 148.889 136.56 148.945 136.355 148.954C136.157 148.963 135.982 148.926 135.877 148.877Z" fill="#06033E" stroke="white"/>
<path d="M128.532 144.665L123.805 141.964C123.824 141.944 123.848 141.923 123.876 141.899L128.55 139.173L128.55 139.173L128.555 139.17C128.899 138.964 129.298 138.974 129.533 139.086L134.26 141.787C134.241 141.807 134.217 141.829 134.188 141.852L129.515 144.578L129.49 144.592L129.467 144.61C129.376 144.677 129.215 144.733 129.01 144.743C128.812 144.752 128.636 144.714 128.532 144.665Z" fill="#06033E" stroke="white"/>
<path d="M121.186 140.454L116.46 137.753C116.479 137.733 116.502 137.711 116.531 137.688L121.204 134.962L121.204 134.962L121.21 134.959C121.554 134.753 121.953 134.763 122.187 134.874L126.914 137.576C126.895 137.596 126.871 137.618 126.841 137.642L122.264 140.369L122.262 140.37C122.102 140.466 121.893 140.522 121.678 140.531C121.465 140.541 121.29 140.503 121.186 140.454Z" fill="#06033E" stroke="white"/>
<path d="M128.728 136.047L124.001 133.346C124.019 133.326 124.042 133.305 124.07 133.283L125.605 132.42L125.605 132.42L125.617 132.412C125.961 132.206 126.36 132.216 126.595 132.328L131.321 135.029C131.303 135.048 131.281 135.069 131.253 135.092L129.718 135.955L129.689 135.971L129.663 135.991C129.572 136.059 129.411 136.115 129.206 136.124C129.008 136.133 128.832 136.096 128.728 136.047Z" fill="#06033E" stroke="white"/>
<path d="M138.325 141.629L133.599 138.928C133.617 138.909 133.64 138.888 133.667 138.866L135.203 138.002L135.203 138.002L135.215 137.995C135.559 137.789 135.958 137.799 136.192 137.911L140.919 140.612C140.901 140.631 140.878 140.652 140.851 140.674L139.315 141.538L139.287 141.554L139.261 141.574C139.17 141.642 139.009 141.697 138.803 141.707C138.605 141.716 138.43 141.678 138.325 141.629Z" fill="#06033E" stroke="white"/>
<path d="M145.671 145.841L140.944 143.14C140.962 143.12 140.985 143.099 141.013 143.077L142.548 142.213L142.548 142.214L142.56 142.206C142.904 142 143.303 142.01 143.538 142.122L148.265 144.823C148.246 144.842 148.224 144.863 148.196 144.886L146.661 145.749L146.661 145.749L146.649 145.756C146.305 145.962 145.905 145.952 145.671 145.841Z" fill="#06033E" stroke="white"/>
<path d="M152.918 150.051L148.191 147.351C148.21 147.331 148.232 147.31 148.26 147.288L149.795 146.424L149.795 146.425L149.807 146.417C150.151 146.211 150.551 146.221 150.785 146.333L155.512 149.034C155.494 149.053 155.471 149.074 155.443 149.096L153.908 149.96L153.88 149.976L153.853 149.996C153.763 150.064 153.602 150.12 153.396 150.129C153.198 150.138 153.023 150.101 152.918 150.051Z" fill="#06033E" stroke="white"/>
<path d="M160.263 154.263L155.537 151.562C155.555 151.543 155.578 151.522 155.605 151.5L157.141 150.636L157.141 150.636L157.153 150.629C157.497 150.423 157.896 150.433 158.13 150.544L162.857 153.245C162.839 153.265 162.816 153.286 162.789 153.308L161.253 154.172L161.225 154.188L161.199 154.207C161.108 154.275 160.947 154.331 160.741 154.341C160.543 154.35 160.368 154.312 160.263 154.263Z" fill="#06033E" stroke="white"/>
<path d="M201.223 177.857L201.176 177.809L201.117 177.776L196.377 175.067C196.395 175.048 196.418 175.027 196.445 175.004L197.98 174.141L197.981 174.141L197.993 174.134C198.336 173.928 198.736 173.938 198.97 174.049L203.697 176.75C203.679 176.77 203.656 176.791 203.628 176.813L202.093 177.677L202.093 177.676L202.081 177.684C201.897 177.794 201.675 177.866 201.485 177.884C201.305 177.9 201.235 177.863 201.224 177.857C201.222 177.856 201.222 177.856 201.223 177.857Z" fill="#06033E" stroke="white"/>
<path d="M208.417 182.021L208.392 182.003L208.365 181.987L203.624 179.278C203.642 179.259 203.665 179.238 203.693 179.216L205.228 178.352L205.228 178.352L205.24 178.345C205.584 178.139 205.983 178.149 206.218 178.26L210.944 180.962C210.926 180.981 210.903 181.002 210.876 181.024L209.341 181.888L209.312 181.904L209.286 181.924C209.173 182.008 208.995 182.078 208.806 182.095C208.614 182.112 208.482 182.07 208.417 182.021Z" fill="#06033E" stroke="white"/>
<path d="M215.698 186.29L210.969 183.491C210.987 183.471 211.01 183.45 211.038 183.427L212.573 182.564L212.573 182.564L212.585 182.557C212.929 182.35 213.329 182.361 213.563 182.472L218.29 185.173C218.271 185.192 218.249 185.214 218.221 185.236L216.686 186.099L216.686 186.099L216.674 186.106C216.266 186.351 215.879 186.371 215.698 186.29Z" fill="#06033E" stroke="white"/>
<path d="M222.943 190.5L218.217 187.799C218.235 187.78 218.258 187.759 218.285 187.736L219.821 186.873L219.821 186.873L219.833 186.866C220.177 186.659 220.576 186.67 220.81 186.781L225.537 189.482C225.519 189.502 225.496 189.523 225.468 189.545L223.933 190.408L223.905 190.425L223.878 190.444C223.788 190.512 223.627 190.568 223.421 190.577C223.223 190.586 223.048 190.549 222.943 190.5Z" fill="#06033E" stroke="white"/>
<path d="M150.568 157.397L145.841 154.696C145.86 154.676 145.883 154.654 145.912 154.631L150.586 151.905L150.586 151.905L150.591 151.902C150.935 151.696 151.334 151.706 151.569 151.817L156.295 154.518C156.277 154.538 156.253 154.56 156.224 154.583L151.551 157.309L151.526 157.324L151.503 157.341C151.412 157.409 151.251 157.465 151.046 157.474C150.848 157.483 150.672 157.446 150.568 157.397Z" fill="#06033E" stroke="white"/>
<path d="M158.077 161.651L158.052 161.632L158.025 161.617L153.284 158.908C153.303 158.888 153.327 158.866 153.356 158.843L158.029 156.117L158.029 156.117L158.034 156.114C158.378 155.907 158.778 155.917 159.012 156.029L163.739 158.73C163.72 158.75 163.696 158.772 163.667 158.795L158.994 161.521L158.994 161.521L158.989 161.524C158.562 161.78 158.222 161.76 158.077 161.651Z" fill="#06033E" stroke="white"/>
<path d="M165.356 165.918L160.63 163.217C160.648 163.197 160.672 163.175 160.701 163.152L165.374 160.426L165.374 160.426L165.379 160.423C165.723 160.216 166.123 160.227 166.357 160.338L171.084 163.039C171.065 163.059 171.042 163.081 171.013 163.104L166.339 165.83L166.314 165.845L166.291 165.862C166.201 165.93 166.04 165.986 165.834 165.995C165.636 166.004 165.461 165.967 165.356 165.918Z" fill="#06033E" stroke="white"/>
<path d="M172.768 170.171L172.743 170.152L172.716 170.137L167.975 167.428C167.994 167.408 168.017 167.386 168.046 167.363L172.719 164.637L172.72 164.637L172.725 164.634C173.069 164.428 173.468 164.438 173.702 164.549L178.429 167.25C178.41 167.27 178.387 167.292 178.358 167.315L173.685 170.041L173.66 170.056L173.637 170.073C173.524 170.158 173.345 170.227 173.157 170.245C172.964 170.262 172.833 170.22 172.768 170.171Z" fill="#06033E" stroke="white"/>
<path d="M180.188 174.464L180.174 174.455L180.159 174.446L175.418 171.737C175.437 171.717 175.46 171.695 175.489 171.672L180.163 168.946L180.163 168.946L180.168 168.943C180.512 168.737 180.911 168.747 181.146 168.858L185.873 171.559C185.854 171.579 185.83 171.601 185.801 171.624L181.128 174.35L181.128 174.35L181.123 174.353C180.961 174.45 180.751 174.506 180.549 174.515C180.45 174.52 180.363 174.513 180.295 174.499C180.261 174.492 180.235 174.484 180.216 174.477C180.206 174.473 180.199 174.47 180.195 174.468C180.19 174.465 180.188 174.464 180.188 174.464Z" fill="#06033E" stroke="white"/>
<path d="M187.556 178.692L187.531 178.673L187.504 178.658L182.763 175.949C182.782 175.929 182.806 175.907 182.835 175.884L187.508 173.158L187.508 173.158L187.513 173.155C187.857 172.948 188.257 172.958 188.491 173.07L193.218 175.771C193.199 175.791 193.175 175.813 193.146 175.836L188.473 178.562L188.448 178.577L188.425 178.594C188.312 178.679 188.134 178.748 187.945 178.765C187.753 178.783 187.621 178.741 187.556 178.692Z" fill="#06033E" stroke="white"/>
<path d="M194.835 182.959L190.109 180.258C190.127 180.238 190.151 180.216 190.18 180.193L194.853 177.467L194.853 177.467L194.859 177.464C195.203 177.257 195.602 177.268 195.836 177.379L200.563 180.08C200.544 180.1 200.521 180.122 200.492 180.145L195.818 182.871L195.794 182.886L195.77 182.903C195.68 182.971 195.519 183.027 195.313 183.036C195.115 183.045 194.94 183.008 194.835 182.959Z" fill="#06033E" stroke="white"/>
<path d="M202.18 187.17L197.454 184.469C197.473 184.449 197.496 184.427 197.525 184.404L202.199 181.678L202.199 181.678L202.204 181.675C202.548 181.469 202.947 181.479 203.181 181.59L207.908 184.291C207.89 184.311 207.866 184.333 207.837 184.356L203.164 187.082L203.139 187.097L203.116 187.114C203.025 187.182 202.864 187.238 202.658 187.247C202.461 187.256 202.285 187.219 202.18 187.17Z" fill="#06033E" stroke="white"/>
<path d="M209.624 191.479L204.897 188.779C204.916 188.759 204.94 188.737 204.969 188.714L209.642 185.988L209.642 185.988L209.647 185.984C209.991 185.778 210.39 185.788 210.625 185.9L215.352 188.601C215.333 188.621 215.309 188.643 215.28 188.666L210.607 191.392L210.582 191.406L210.559 191.424C210.468 191.492 210.307 191.548 210.102 191.557C209.904 191.566 209.728 191.529 209.624 191.479Z" fill="#06033E" stroke="white"/>
<path d="M108.521 157.929L108.497 157.911L108.47 157.896L94.4237 149.799C94.4426 149.78 94.4663 149.758 94.4953 149.734L99.1686 147.008L99.1686 147.008L99.1739 147.005C99.5174 146.799 99.9164 146.809 100.151 146.92L114.183 155.008C114.164 155.028 114.14 155.05 114.111 155.073L109.438 157.799L109.413 157.814L109.39 157.831C109.277 157.916 109.099 157.985 108.91 158.002C108.718 158.02 108.586 157.978 108.521 157.929Z" fill="#06033E" stroke="white"/>
<path d="M199.113 210.227L199.088 210.209L199.062 210.194L185.016 202.098C185.035 202.078 185.058 202.056 185.087 202.033L189.761 199.307L189.761 199.307L189.766 199.304C190.109 199.097 190.508 199.107 190.743 199.219L204.775 207.306C204.756 207.326 204.732 207.348 204.703 207.371L200.03 210.097L200.005 210.112L199.982 210.129C199.869 210.214 199.691 210.284 199.502 210.301C199.31 210.318 199.178 210.276 199.113 210.227Z" fill="#06033E" stroke="white"/>
<path d="M169.567 202.644L164.841 199.943C164.859 199.924 164.882 199.902 164.91 199.88L170.56 196.665L170.56 196.665L170.57 196.66C170.914 196.453 171.313 196.463 171.548 196.575L176.275 199.276C176.256 199.295 176.233 199.317 176.205 199.339L170.555 202.554L170.528 202.569L170.503 202.588C170.412 202.656 170.251 202.712 170.045 202.722C169.847 202.731 169.672 202.693 169.567 202.644Z" fill="#06033E" stroke="white"/>
<path d="M115.996 171.696L108.429 167.33C108.447 167.31 108.47 167.289 108.498 167.266L114.148 164.052L114.148 164.052L114.158 164.046C114.502 163.84 114.901 163.85 115.135 163.961L122.703 168.327C122.685 168.347 122.662 168.368 122.633 168.391L116.984 171.605L116.956 171.621L116.931 171.64C116.84 171.708 116.679 171.764 116.474 171.773C116.276 171.782 116.101 171.745 115.996 171.696Z" fill="#06033E" stroke="white"/>
<path d="M162.419 198.531L154.851 194.165C154.87 194.146 154.893 194.124 154.921 194.102L160.571 190.887L160.571 190.887L160.581 190.881C160.924 190.675 161.323 190.685 161.557 190.796L169.125 195.162C169.107 195.182 169.084 195.203 169.056 195.226L163.406 198.44L163.378 198.456L163.353 198.475C163.263 198.543 163.101 198.599 162.896 198.608C162.698 198.617 162.523 198.58 162.419 198.531Z" fill="#06033E" stroke="white"/>
<path d="M126.672 177.867L119.104 173.5C119.122 173.481 119.145 173.459 119.174 173.437L124.823 170.222L124.824 170.222L124.833 170.216C125.177 170.01 125.576 170.02 125.81 170.131L133.378 174.498C133.36 174.517 133.337 174.539 133.309 174.561L127.659 177.776L127.659 177.776L127.649 177.782C127.305 177.988 126.906 177.978 126.672 177.867Z" fill="#06033E" stroke="white"/>
<path d="M152.233 192.655L119.795 173.9L126.046 170.267L158.996 189.318L159 189.32C158.991 189.33 158.98 189.34 158.966 189.351L153.233 192.655C153.127 192.704 152.946 192.743 152.733 192.743C152.52 192.743 152.34 192.704 152.233 192.655Z" fill="#06033E" stroke="white"/>
<path d="M189.704 211.189L194.734 214.077L192.504 215.377C192.269 215.49 191.946 215.507 191.652 215.446L186.634 212.565L188.863 211.265C188.978 211.21 189.144 211.173 189.327 211.164C189.489 211.155 189.624 211.17 189.704 211.189Z" fill="#06033E" stroke="white"/>
<path d="M182.18 206.93L182.194 206.939L182.208 206.948L187.29 209.865L185.061 211.166C184.825 211.279 184.503 211.295 184.209 211.234L179.191 208.354L181.436 207.044L181.436 207.044L181.441 207.041C181.822 206.812 182.095 206.874 182.18 206.93Z" fill="#06033E" stroke="white"/>
<path d="M174.835 202.621L174.848 202.63L174.863 202.638L179.945 205.556L177.716 206.856C177.48 206.969 177.158 206.986 176.863 206.925L171.846 204.044L174.091 202.734L174.116 202.72L174.139 202.703C174.241 202.626 174.386 202.577 174.538 202.569C174.699 202.561 174.803 202.6 174.835 202.621Z" fill="#06033E" stroke="white"/>
<path d="M186.293 204.579L186.307 204.589L186.322 204.597L191.404 207.515L189.174 208.815C188.939 208.928 188.616 208.945 188.322 208.883L183.304 206.003L185.549 204.693L185.574 204.679L185.597 204.661C185.7 204.584 185.844 204.536 185.997 204.528C186.158 204.52 186.262 204.558 186.293 204.579Z" fill="#06033E" stroke="white"/>
</g>
<path d="M264.881 195.115L264.877 195.113L123.945 113.727L123.941 113.724C121.918 112.581 120.903 109.704 121.626 107.353L153.456 3.9315L153.456 3.93147C153.81 2.78082 154.526 1.99942 155.368 1.63583C156.205 1.27405 157.215 1.30398 158.215 1.86816C158.215 1.86851 158.216 1.86886 158.216 1.86922L299.144 83.2528L299.148 83.2551C301.171 84.3987 302.186 87.276 301.463 89.6263L269.636 193.04C269.234 194.194 268.492 194.979 267.648 195.344C266.808 195.707 265.825 195.673 264.881 195.115Z" fill="url(#paint4_radial_19_4108)" stroke="white"/>
<path d="M126.883 112.551L126.883 112.551L126.872 112.545C124.952 111.498 123.942 108.724 124.661 106.477L124.661 106.477L124.662 106.472L155.119 7.5603C155.119 7.55941 155.12 7.55853 155.12 7.55765C155.473 6.45657 156.164 5.72252 156.958 5.38232C157.749 5.04317 158.686 5.07581 159.585 5.58898C159.585 5.58914 159.585 5.58931 159.586 5.58947L296.206 84.5257L296.206 84.5258L296.217 84.5317C298.137 85.5791 299.147 88.3531 298.428 90.6001L298.427 90.6054L267.968 189.522L267.968 189.522L267.965 189.534C267.658 190.628 266.994 191.356 266.205 191.695C265.417 192.032 264.453 192.004 263.5 191.486C263.498 191.485 263.497 191.484 263.495 191.483L126.883 112.551Z" fill="url(#paint5_linear_19_4108)" stroke="white"/>
<path opacity="0.4" d="M126.883 112.551L126.883 112.551L126.872 112.545C124.952 111.498 123.942 108.724 124.661 106.477L124.661 106.477L124.662 106.472L155.119 7.5603C155.119 7.55941 155.12 7.55853 155.12 7.55765C155.473 6.45657 156.164 5.72252 156.958 5.38232C157.749 5.04317 158.686 5.07581 159.585 5.58898C159.585 5.58914 159.585 5.58931 159.586 5.58947L296.206 84.5257L296.206 84.5258L296.217 84.5317C298.137 85.5791 299.147 88.3531 298.428 90.6001L298.427 90.6054L267.968 189.522L267.968 189.522L267.965 189.534C267.658 190.628 266.994 191.356 266.205 191.695C265.417 192.032 264.453 192.004 263.5 191.486C263.498 191.485 263.497 191.484 263.495 191.483L126.883 112.551Z" fill="#06033E" stroke="white"/>
<path opacity="0.4" d="M126.883 112.551L126.883 112.551L126.872 112.545C124.952 111.498 123.942 108.724 124.661 106.477L124.661 106.477L124.662 106.472L155.119 7.5603C155.119 7.55941 155.12 7.55853 155.12 7.55765C155.473 6.45657 156.164 5.72252 156.958 5.38232C157.749 5.04317 158.686 5.07581 159.585 5.58898C159.585 5.58914 159.585 5.58931 159.586 5.58947L296.206 84.5257L296.206 84.5258L296.217 84.5317C298.137 85.5791 299.147 88.3531 298.428 90.6001L298.427 90.6054L267.968 189.522L267.968 189.522L267.965 189.534C267.658 190.628 266.994 191.356 266.205 191.695C265.417 192.032 264.453 192.004 263.5 191.486C263.498 191.485 263.497 191.484 263.495 191.483L126.883 112.551Z" fill="#06033E" stroke="white"/>
<path opacity="0.5" d="M256.167 161.23L256.167 161.23L256.16 161.226L163.617 107.854C163.616 107.854 163.614 107.853 163.613 107.852C162.345 107.089 161.656 105.375 162.169 103.838L162.169 103.838L162.172 103.827L183.131 35.859L183.131 35.859L183.133 35.8527C183.539 34.4701 184.864 33.9698 185.93 34.5783C185.93 34.5785 185.93 34.5786 185.931 34.5788L278.472 87.9492C278.473 87.9499 278.475 87.9507 278.476 87.9514C279.744 88.7146 280.432 90.4286 279.92 91.9654L279.92 91.9654L279.917 91.9762L258.958 159.945L258.952 159.964L258.948 159.984C258.782 160.727 258.363 161.198 257.878 161.408C257.392 161.62 256.778 161.596 256.167 161.23Z" fill="#06033E" stroke="white"/>
<path d="M149.731 105.405L149.731 105.405L149.734 105.395L170.693 37.4261L170.693 37.4261L170.695 37.4199C171.101 36.0373 172.426 35.5369 173.492 36.1454C173.492 36.1456 173.492 36.1458 173.493 36.1459L266.034 89.5163C266.035 89.5171 266.037 89.5178 266.038 89.5185C267.306 90.2817 267.994 91.9957 267.482 93.5325L267.482 93.5325L267.479 93.5433L246.52 161.512L246.52 161.512L246.516 161.525C246.304 162.289 245.875 162.77 245.393 162.993C244.915 163.213 244.323 163.209 243.714 162.887L151.179 109.422C151.178 109.421 151.176 109.42 151.175 109.42C149.907 108.657 149.218 106.942 149.731 105.405Z" fill="url(#paint6_radial_19_4108)" stroke="white"/>
<g opacity="0.5">
<path d="M149.731 105.405L149.731 105.405L149.734 105.395L170.693 37.4261L170.693 37.4261L170.695 37.4199C171.101 36.0373 172.426 35.5369 173.492 36.1454C173.492 36.1456 173.492 36.1458 173.493 36.1459L266.034 89.5163C266.035 89.5171 266.037 89.5178 266.038 89.5185C267.306 90.2817 267.994 91.9957 267.482 93.5325L267.482 93.5325L267.479 93.5433L246.52 161.512L246.52 161.512L246.516 161.525C246.304 162.289 245.875 162.77 245.393 162.993C244.915 163.213 244.323 163.209 243.714 162.887L151.179 109.422C151.178 109.421 151.176 109.42 151.175 109.42C149.907 108.657 149.218 106.942 149.731 105.405Z" fill="#06033E" stroke="white"/>
</g>
<path d="M265.944 89.7163L265.951 89.7205L265.958 89.7244C267.191 90.3821 267.902 92.1737 267.384 93.7281L267.384 93.7281L267.381 93.7389L246.424 161.702C246.343 161.944 246.24 162.156 246.121 162.34L267.061 94.4307C267.678 92.5737 266.951 90.5309 265.492 89.456L265.944 89.7163Z" fill="white" stroke="white"/>
<path opacity="0.4" d="M106.119 180.896L106.122 180.895C107.215 180.257 108.576 179.907 109.915 179.861C111.257 179.814 112.529 180.073 113.456 180.602C113.456 180.603 113.457 180.603 113.457 180.603L150.468 201.948C150.469 201.949 150.471 201.949 150.472 201.95C151.371 202.491 151.792 203.138 151.792 203.772C151.792 204.587 151.195 205.433 149.98 206.182L130.889 217.147L130.882 217.151L130.876 217.155C129.693 217.883 128.219 218.256 126.731 218.256C125.54 218.256 124.446 217.983 123.54 217.532L86.54 196.096C86.5389 196.095 86.5379 196.094 86.5368 196.094C85.6373 195.553 85.2157 194.906 85.2157 194.272C85.2157 193.457 85.8131 192.611 87.0281 191.861L106.119 180.896ZM87.111 191.88L87.111 191.879L87.1028 191.884C86.0763 192.5 85.391 193.317 85.391 194.174C85.391 195.15 86.1088 195.671 86.6131 195.974L86.6131 195.974L86.6197 195.978L123.637 217.424C123.638 217.425 123.638 217.425 123.639 217.425C124.582 217.979 125.886 218.205 127.179 218.154C128.477 218.103 129.835 217.77 130.901 217.131C130.903 217.13 130.904 217.129 130.906 217.128L149.995 206.164L149.995 206.164L150.003 206.159C151.03 205.543 151.715 204.727 151.715 203.87C151.715 202.893 150.997 202.372 150.493 202.07L150.493 202.07L150.486 202.065L113.465 180.715L113.465 180.715L113.458 180.711C112.512 180.185 111.45 179.865 110.277 179.865C108.847 179.865 107.378 180.169 106.199 180.916L87.111 191.88Z" fill="#06033E" stroke="white"/>
<path d="M193.549 67.9143L193.549 67.9143L193.544 67.9117L187.867 64.5834C187.745 64.5098 187.612 64.348 187.531 64.1215C187.45 63.8962 187.443 63.671 187.498 63.5064C187.558 63.3258 187.665 63.2302 187.744 63.1969C187.804 63.1718 187.879 63.165 187.984 63.249L188.013 63.2716L188.044 63.2899L193.722 66.6182C193.843 66.6918 193.976 66.8536 194.058 67.0801C194.139 67.3054 194.145 67.5306 194.09 67.6952C194.036 67.8572 193.944 67.9307 193.866 67.9596C193.785 67.9893 193.673 67.9888 193.549 67.9143Z" fill="white" stroke="white"/>
<path d="M207.162 75.8473L207.162 75.8472L207.156 75.8437L198.737 70.9489C198.616 70.8752 198.483 70.7136 198.402 70.4875C198.321 70.2622 198.314 70.037 198.369 69.8723C198.429 69.6918 198.536 69.5961 198.615 69.5629C198.675 69.5377 198.75 69.5309 198.855 69.615L198.884 69.6381L198.916 69.6568L207.336 74.5516C207.457 74.6253 207.589 74.787 207.671 75.013C207.75 75.2318 207.758 75.4505 207.708 75.6138C207.658 75.728 207.563 75.8196 207.458 75.8642C207.356 75.907 207.256 75.9036 207.162 75.8473Z" fill="white" stroke="white"/>
<path d="M176.428 88.7126L176.456 88.7352L176.487 88.7535L182.165 92.0818C182.286 92.1554 182.419 92.3172 182.501 92.5437C182.582 92.769 182.589 92.9942 182.534 93.1589C182.47 93.35 182.385 93.4077 182.337 93.4263C182.286 93.4461 182.172 93.4626 181.972 93.3661L176.31 90.047C176.189 89.9734 176.056 89.8116 175.974 89.5851C175.893 89.3598 175.886 89.1346 175.941 88.97C176.002 88.7894 176.109 88.6938 176.187 88.6606C176.247 88.6354 176.323 88.6286 176.428 88.7126Z" fill="white" stroke="white"/>
<path d="M185.83 94.1972L185.859 94.2204L185.891 94.239L194.31 99.1339C194.431 99.2076 194.564 99.3692 194.645 99.5953C194.726 99.8206 194.733 100.046 194.678 100.21C194.614 100.402 194.529 100.459 194.482 100.478C194.431 100.498 194.316 100.514 194.116 100.417L185.711 95.5312C185.59 95.4575 185.458 95.2959 185.376 95.0698C185.295 94.8444 185.288 94.6193 185.343 94.4546C185.404 94.2741 185.511 94.1784 185.589 94.1452C185.649 94.12 185.725 94.1132 185.83 94.1972Z" fill="white" stroke="white"/>
<path d="M176.41 63.4094L176.41 63.4094L176.404 63.4063L172.882 61.3514C172.761 61.2778 172.628 61.1161 172.546 60.8898C172.465 60.6645 172.459 60.4393 172.514 60.2747C172.574 60.0941 172.681 59.9985 172.76 59.9653C172.819 59.9401 172.895 59.9333 173 60.0173L173.029 60.0402L173.06 60.0588L176.583 62.1136C176.704 62.1872 176.837 62.3489 176.919 62.5752C177 62.8005 177.006 63.0257 176.951 63.1904C176.897 63.3523 176.805 63.4258 176.726 63.4547C176.646 63.4844 176.534 63.4839 176.41 63.4094Z" fill="white" stroke="white"/>
<path d="M187.183 74.9659L187.183 74.9659L187.175 74.9615L176.309 68.6961C176.188 68.6222 176.055 68.4607 175.974 68.235C175.893 68.0097 175.886 67.7845 175.941 67.6199C176.002 67.4393 176.109 67.3437 176.187 67.3105C176.247 67.2853 176.323 67.2785 176.428 67.3625L176.458 67.3863L176.49 67.4052L187.357 73.6706C187.478 73.7445 187.61 73.906 187.692 74.1317C187.773 74.357 187.779 74.5822 187.725 74.7469C187.671 74.9088 187.578 74.9823 187.5 75.0112C187.419 75.0409 187.307 75.0404 187.183 74.9659Z" fill="white" stroke="white"/>
<path d="M177.095 79.8625L177.095 79.8625L177.09 79.8594L173.567 77.8046C173.446 77.7309 173.313 77.5692 173.232 77.343C173.151 77.1176 173.144 76.8924 173.199 76.7278C173.259 76.5473 173.366 76.4516 173.445 76.4184C173.505 76.3932 173.581 76.3864 173.686 76.4704L173.714 76.4934L173.746 76.5119L177.269 78.5667C177.39 78.6404 177.523 78.8021 177.604 79.0283C177.685 79.2536 177.692 79.4788 177.637 79.6435C177.583 79.8054 177.49 79.8789 177.412 79.9078C177.331 79.9375 177.22 79.937 177.095 79.8625Z" fill="white" stroke="white"/>
<path d="M195.508 111.888L195.508 111.888L195.5 111.884L186.005 106.402C185.884 106.328 185.751 106.167 185.67 105.941C185.589 105.716 185.582 105.49 185.637 105.326C185.697 105.145 185.804 105.05 185.883 105.016C185.943 104.991 186.019 104.984 186.124 105.068L186.153 105.092L186.186 105.111L195.682 110.593C195.803 110.667 195.935 110.828 196.016 111.054C196.097 111.279 196.104 111.505 196.049 111.669C195.995 111.831 195.903 111.905 195.824 111.934C195.744 111.963 195.632 111.963 195.508 111.888Z" fill="white" stroke="white"/>
<path d="M170.83 86.9162L170.83 86.9162L170.827 86.9145C170.706 86.8415 170.572 86.6792 170.49 86.4516C170.409 86.2263 170.402 86.0011 170.457 85.8364C170.517 85.6559 170.624 85.5602 170.703 85.527C170.763 85.5019 170.838 85.495 170.943 85.5791L170.968 85.5991L170.996 85.6157L173.248 86.9869L173.248 86.9869L173.251 86.9885C173.373 87.0616 173.507 87.2238 173.589 87.4514C173.668 87.6706 173.676 87.8896 173.626 88.0529C173.567 88.1917 173.481 88.272 173.403 88.3064C173.337 88.3358 173.23 88.3541 173.063 88.2752L170.83 86.9162Z" fill="white" stroke="white"/>
<path d="M170.925 97.6874L170.925 97.6873L170.921 97.6848L168.083 96.0213C167.962 95.9478 167.829 95.786 167.747 95.5595C167.666 95.3342 167.66 95.109 167.715 94.9443C167.775 94.7638 167.882 94.6682 167.961 94.6349C168.02 94.6098 168.096 94.6029 168.201 94.687L168.229 94.7096L168.261 94.7279L171.098 96.3913C171.219 96.4648 171.353 96.6266 171.434 96.8531C171.515 97.0785 171.522 97.3036 171.467 97.4683C171.413 97.6303 171.32 97.7038 171.242 97.7326C171.161 97.7624 171.05 97.7619 170.925 97.6874Z" fill="white" stroke="white"/>
<path d="M181.992 104.151L181.992 104.151L181.983 104.146L174.447 99.8395C174.327 99.7654 174.194 99.6041 174.113 99.3789C174.032 99.1535 174.026 98.9283 174.081 98.7637C174.141 98.5831 174.248 98.4875 174.327 98.4543C174.386 98.4291 174.462 98.4223 174.567 98.5063L174.597 98.5307L174.631 98.55L182.167 102.856C182.288 102.93 182.42 103.091 182.501 103.317C182.58 103.536 182.588 103.754 182.538 103.917C182.489 104.032 182.393 104.123 182.288 104.168C182.186 104.211 182.086 104.207 181.992 104.151Z" fill="white" stroke="white"/>
<path d="M172.101 103.76L172.101 103.76L172.095 103.756L166.712 100.624C166.591 100.551 166.458 100.389 166.376 100.163C166.295 99.9375 166.289 99.7123 166.343 99.5476C166.404 99.3671 166.511 99.2714 166.59 99.2382C166.649 99.213 166.725 99.2062 166.83 99.2902L166.859 99.3134L166.891 99.332L172.274 102.464C172.395 102.538 172.528 102.699 172.609 102.925C172.69 103.151 172.697 103.376 172.642 103.541C172.588 103.703 172.496 103.776 172.417 103.805C172.337 103.835 172.225 103.834 172.101 103.76Z" fill="white" stroke="white"/>
<path d="M200.325 113.393L200.355 113.417L200.389 113.437L203.811 115.392C203.932 115.466 204.064 115.628 204.145 115.853C204.226 116.078 204.233 116.303 204.178 116.468L204.168 116.498L204.162 116.528C204.141 116.634 203.956 116.839 203.614 116.674L200.205 114.726C200.084 114.652 199.952 114.491 199.871 114.266C199.79 114.04 199.783 113.815 199.838 113.65C199.898 113.47 200.005 113.374 200.084 113.341C200.144 113.316 200.219 113.309 200.325 113.393Z" fill="white" stroke="white"/>
<path d="M190.47 87.5403L190.44 87.5167L190.408 87.4977L180.912 82.0158C180.791 81.9419 180.658 81.7804 180.577 81.5546C180.496 81.3293 180.49 81.1041 180.544 80.9395C180.605 80.7589 180.712 80.6633 180.79 80.6301C180.85 80.6049 180.926 80.5981 181.031 80.6821L181.06 80.7057L181.093 80.7247L190.589 86.2067C190.71 86.2806 190.842 86.442 190.924 86.6678C191.005 86.8931 191.011 87.1183 190.956 87.283C190.896 87.4635 190.789 87.5591 190.71 87.5924C190.651 87.6175 190.575 87.6244 190.47 87.5403Z" fill="white" stroke="white"/>
<path d="M191.512 82.8132L191.499 82.8041L191.485 82.796L174.84 73.2008C174.719 73.1269 174.586 72.9654 174.505 72.7397C174.424 72.5144 174.417 72.2892 174.472 72.1245C174.532 71.944 174.64 71.8483 174.718 71.8151C174.778 71.7899 174.854 71.7831 174.959 71.8671L174.988 71.8909L175.021 71.9099L191.666 81.5052C191.787 81.5791 191.92 81.7405 192.001 81.9662C192.082 82.1915 192.089 82.4167 192.034 82.5814L192.021 82.6186L192.015 82.6573C191.991 82.8013 191.918 82.8667 191.861 82.8908C191.808 82.9133 191.69 82.9317 191.512 82.8132Z" fill="#E8975B" stroke="white"/>
<path d="M181.698 87.8934L181.698 87.8933L181.691 87.8891L172.196 82.4071C172.075 82.3332 171.942 82.1717 171.861 81.946C171.78 81.7207 171.773 81.4955 171.828 81.3308C171.888 81.1503 171.995 81.0546 172.074 81.0214C172.134 80.9962 172.209 80.9894 172.315 81.0734L172.344 81.0971L172.377 81.116L181.872 86.598C181.993 86.6719 182.126 86.8334 182.207 87.0591C182.288 87.2845 182.295 87.5097 182.24 87.6743C182.186 87.8363 182.093 87.9098 182.015 87.9386C181.934 87.9684 181.823 87.9679 181.698 87.8934Z" fill="#E8975B" stroke="white"/>
<path d="M197.662 91.7131L197.662 91.713L197.653 91.7077L194.231 89.7521C194.11 89.678 193.978 89.5167 193.897 89.2914C193.816 89.0661 193.809 88.8409 193.864 88.6763C193.924 88.4957 194.031 88.4001 194.11 88.3669C194.17 88.3417 194.245 88.3349 194.35 88.4189L194.381 88.4433L194.415 88.4626L197.837 90.4182C197.958 90.4923 198.09 90.6536 198.171 90.8789C198.252 91.1042 198.259 91.3294 198.204 91.494C198.15 91.656 198.057 91.7295 197.979 91.7584C197.898 91.7881 197.786 91.7876 197.662 91.7131Z" fill="#E8975B" stroke="white"/>
<path d="M232.92 90.6355L232.92 90.6354L232.912 90.631L212.35 78.7832C212.229 78.7093 212.096 78.5479 212.015 78.3222C211.934 78.0969 211.927 77.8717 211.982 77.707C212.042 77.5265 212.149 77.4309 212.228 77.3976C212.288 77.3725 212.364 77.3656 212.469 77.4497L212.499 77.4735L212.531 77.4925L233.094 89.3402C233.215 89.4142 233.347 89.5756 233.428 89.8013C233.509 90.0266 233.516 90.2518 233.461 90.4165C233.407 90.5784 233.315 90.6519 233.236 90.6808C233.156 90.7105 233.044 90.71 232.92 90.6355Z" fill="#E8975B" stroke="white"/>
<path d="M180.915 98.1768L180.915 98.1767L180.909 98.1732L169.454 91.5156C169.333 91.4418 169.2 91.2802 169.119 91.0541C169.037 90.8288 169.031 90.6036 169.086 90.439C169.146 90.2584 169.253 90.1628 169.332 90.1296C169.392 90.1044 169.467 90.0976 169.572 90.1816L169.601 90.2048L169.633 90.2235L181.088 96.8811C181.21 96.9548 181.342 97.1165 181.424 97.3425C181.502 97.5614 181.511 97.78 181.461 97.9433C181.411 98.0575 181.316 98.1491 181.21 98.1937C181.109 98.2365 181.009 98.2331 180.915 98.1768Z" fill="#F8359E" stroke="white"/>
<path d="M182.678 61.6461L182.678 61.646L182.672 61.6426L174.253 56.7478C174.132 56.674 173.999 56.5124 173.917 56.2863C173.836 56.061 173.83 55.8358 173.885 55.6711C173.945 55.4906 174.052 55.395 174.131 55.3617C174.191 55.3366 174.266 55.3297 174.371 55.4138L174.4 55.437L174.432 55.4556L182.851 60.3504C182.972 60.4241 183.105 60.5858 183.187 60.8119C183.268 61.0372 183.274 61.2624 183.219 61.427C183.165 61.589 183.073 61.6625 182.994 61.6914C182.914 61.7211 182.802 61.7206 182.678 61.6461Z" fill="#F8359E" stroke="white"/>
<path d="M170.338 108.068L170.338 108.068L170.331 108.065L160.541 102.387C160.42 102.313 160.288 102.151 160.206 101.925C160.125 101.7 160.119 101.475 160.173 101.31C160.234 101.13 160.341 101.034 160.42 101.001C160.479 100.975 160.555 100.969 160.66 101.053L160.689 101.076L160.721 101.095L170.511 106.773C170.632 106.847 170.765 107.008 170.846 107.234C170.928 107.46 170.934 107.685 170.879 107.849C170.825 108.011 170.733 108.085 170.654 108.114C170.574 108.144 170.462 108.143 170.338 108.068Z" fill="#E8975B" stroke="white"/>
<path d="M227.344 105.547L227.32 105.529L227.295 105.515L223.084 103.066L223.07 103.058L223.056 103.051C223.005 103.026 222.927 102.949 222.87 102.803C222.813 102.658 222.809 102.52 222.828 102.445C222.832 102.428 222.849 102.395 222.908 102.371C222.964 102.349 223.03 102.348 223.088 102.374L227.282 104.812L227.296 104.82L227.31 104.827C227.36 104.853 227.439 104.929 227.496 105.075C227.546 105.204 227.555 105.327 227.543 105.406C227.484 105.538 227.424 105.578 227.412 105.584C227.404 105.583 227.381 105.575 227.344 105.547Z" fill="white" stroke="white"/>
<path d="M235.374 110.15L235.351 110.133L235.326 110.118L231.114 107.67L231.101 107.662L231.087 107.655C231.036 107.629 230.958 107.553 230.901 107.406C230.844 107.261 230.84 107.123 230.859 107.048C230.863 107.032 230.88 106.998 230.939 106.975C230.994 106.952 231.061 106.952 231.119 106.977L235.313 109.416L235.326 109.423L235.341 109.43C235.391 109.456 235.47 109.532 235.527 109.679C235.577 109.807 235.586 109.93 235.574 110.009C235.514 110.142 235.455 110.181 235.442 110.188C235.435 110.186 235.412 110.179 235.374 110.15Z" fill="white" stroke="white"/>
<path d="M239.047 112.371L239.034 112.363L239.02 112.356C238.969 112.33 238.89 112.254 238.834 112.107C238.777 111.962 238.773 111.824 238.791 111.749C238.795 111.733 238.813 111.699 238.872 111.676C238.927 111.653 238.994 111.653 239.052 111.678L243.246 114.116L243.259 114.124L243.273 114.131C243.324 114.157 243.403 114.233 243.46 114.38C243.505 114.497 243.517 114.61 243.51 114.688C243.462 114.763 243.41 114.8 243.374 114.816C243.341 114.83 243.302 114.836 243.242 114.809L239.047 112.371Z" fill="white" stroke="white"/>
<path d="M247.18 117.052L247.123 116.995L247.051 116.959C247 116.934 246.921 116.857 246.864 116.711C246.808 116.565 246.803 116.427 246.822 116.352C246.826 116.336 246.843 116.302 246.902 116.279C246.944 116.262 246.992 116.258 247.038 116.267L247.061 116.291L247.118 116.348L247.191 116.384C247.242 116.41 247.32 116.486 247.377 116.632C247.423 116.75 247.434 116.863 247.427 116.941C247.379 117.015 247.328 117.053 247.291 117.069C247.268 117.079 247.241 117.085 247.205 117.078L247.18 117.052Z" fill="#F8359E" stroke="white"/>
<defs>
<linearGradient id="paint0_linear_19_4108" x1="0.0581747" y1="207.456" x2="286.386" y2="207.456" gradientUnits="userSpaceOnUse">
<stop stop-color="#E39A65"/>
<stop offset="1" stop-color="#E95F8D"/>
</linearGradient>
<radialGradient id="paint1_radial_19_4108" cx="0" cy="0" r="1" gradientUnits="userSpaceOnUse" gradientTransform="translate(158.214 -4.5335) scale(218.69 218.69)">
<stop stop-color="#E39A65"/>
<stop offset="0.4742" stop-color="#A92FFB"/>
<stop offset="0.5947" stop-color="#891CFB"/>
<stop offset="0.7421" stop-color="#6507FA"/>
<stop offset="0.8016" stop-color="#0D0C6F"/>
</radialGradient>
<radialGradient id="paint2_radial_19_4108" cx="0" cy="0" r="1" gradientUnits="userSpaceOnUse" gradientTransform="translate(24.4581 171.09) scale(239.136 239.136)">
<stop stop-color="#E39A65"/>
<stop offset="0.4742" stop-color="#A92FFB"/>
<stop offset="0.5679" stop-color="#891CFB"/>
<stop offset="0.6825" stop-color="#6507FA"/>
<stop offset="0.7381" stop-color="#0D0C6F"/>
</radialGradient>
<radialGradient id="paint3_radial_19_4108" cx="0" cy="0" r="1" gradientUnits="userSpaceOnUse" gradientTransform="translate(46.4521 123.092) scale(214.443 214.443)">
<stop stop-color="#E39A65"/>
<stop offset="0.4742" stop-color="#A92FFB"/>
<stop offset="0.5875" stop-color="#891CFB"/>
<stop offset="0.7262" stop-color="#6507FA"/>
<stop offset="1" stop-color="#3919BB"/>
</radialGradient>
<radialGradient id="paint4_radial_19_4108" cx="0" cy="0" r="1" gradientUnits="userSpaceOnUse" gradientTransform="translate(99.8744 41.0835) scale(218.734 218.734)">
<stop stop-color="#E39A65"/>
<stop offset="0.4742" stop-color="#A92FFB"/>
<stop offset="0.5875" stop-color="#891CFB"/>
<stop offset="0.7262" stop-color="#6507FA"/>
<stop offset="1" stop-color="#3919BB"/>
</radialGradient>
<linearGradient id="paint5_linear_19_4108" x1="123.916" y1="98.5014" x2="299.191" y2="98.5014" gradientUnits="userSpaceOnUse">
<stop stop-color="#3919BB"/>
<stop offset="1" stop-color="#6507FA"/>
</linearGradient>
<radialGradient id="paint6_radial_19_4108" cx="0" cy="0" r="1" gradientUnits="userSpaceOnUse" gradientTransform="translate(20.0244 -5.62615) scale(340.672 340.672)">
<stop stop-color="#E39A65"/>
<stop offset="0.4742" stop-color="#A92FFB"/>
<stop offset="0.5875" stop-color="#891CFB"/>
<stop offset="0.7262" stop-color="#6507FA"/>
<stop offset="1" stop-color="#3919BB"/>
</radialGradient>
</defs>
</svg>
